<?xml version="1.0" encoding="UTF-8"?>
<svg width="70px" height="70px" viewBox="0 0 70 70" version="1.1" xmlns="http://www.w3.org/2000/svg" xmlns:xlink="http://www.w3.org/1999/xlink">
    <!-- Generator: Sketch 51.1 (57501) - http://www.bohemiancoding.com/sketch -->
    <title>Icons/add_light_inactive</title>
    <desc>Created with Sketch.</desc>
    <defs></defs>
    <g id="Icons/add_light_inactive" stroke="none" stroke-width="1" fill="none" fill-rule="evenodd">
        <rect id="Rectangle-2" x="0" y="0" width="70" height="70"></rect>
        <text id="Button-Name-Copy" font-family="Montserrat-Medium, Montserrat" font-size="8" font-weight="400" fill="#260E0D">
            <tspan x="11.008" y="65">Add Review</tspan>
        </text>
        <path d="M24.393418,44.606582 C21.560293,41.773457 20,38.0066406 20,34 C20,29.9933594 21.560293,26.2264844 24.393418,23.393418 C27.226543,20.560293 30.9933594,19 35,19 C39.0066406,19 42.773457,20.560293 45.606582,23.393418 C48.439707,26.2264844 50,29.9933594 50,34 C50,38.0066406 48.439707,41.773457 45.606582,44.606582 C42.773457,47.439707 39.0066406,49 35,49 C30.9933594,49 27.2264844,47.439707 24.393418,44.606582 Z M35,21.4237305 C28.0654297,21.4237305 22.4237305,27.0654297 22.4237305,34 C22.4237305,40.9345703 28.0654297,46.5763281 35,46.5763281 C41.9345703,46.5763281 47.5763281,40.9345703 47.5763281,34 C47.5763281,27.0654297 41.9345703,21.4237305 35,21.4237305 Z M33.7881641,35.2118359 L29.4847461,35.2118359 C28.8154883,35.2118359 28.2729102,34.6693164 28.2729102,34 C28.2729102,33.3307422 28.8154883,32.7881641 29.4847461,32.7881641 L33.7881641,32.7881641 L33.7881641,28.4847461 C33.7881641,27.8154883 34.3307422,27.2729102 35,27.2729102 C35.6693164,27.2729102 36.2118359,27.8154883 36.2118359,28.4847461 L36.2118359,32.7881641 L40.5152539,32.7881641 C41.1845703,32.7881641 41.7270898,33.3307422 41.7270898,34 C41.7270898,34.6693164 41.1845703,35.2118359 40.5152539,35.2118359 L36.2118359,35.2118359 L36.2118359,39.5152539 C36.2118359,40.1845703 35.6693164,40.7270898 35,40.7270898 C34.3307422,40.7270898 33.7881641,40.1845703 33.7881641,39.5152539 L33.7881641,35.2118359 Z" id="Combined-Shape" fill="#260E0D"></path>
    </g>
</svg>