<?xml version="1.0" encoding="UTF-8"?>
<svg width="21px" height="21px" viewBox="0 0 21 21" version="1.1" xmlns="http://www.w3.org/2000/svg" xmlns:xlink="http://www.w3.org/1999/xlink">
    <!-- Generator: Sketch 51.1 (57501) - http://www.bohemiancoding.com/sketch -->
    <title>Buttons/age_light_btn</title>
    <desc>Created with Sketch.</desc>
    <defs>
        <linearGradient x1="91.1311345%" y1="93.8675885%" x2="20.130637%" y2="39.80221%" id="linearGradient-1">
            <stop stop-color="#FCC374" offset="0%"></stop>
            <stop stop-color="#FF6058" offset="100%"></stop>
        </linearGradient>
    </defs>
    <g id="Buttons/age_light_btn" stroke="none" stroke-width="1" fill="none" fill-rule="evenodd">
        <path d="M6.51434948,13.5372639 L5.84676325,11.9436709 L2.16427148,11.9436709 L1.49668525,13.5372639 L0,13.5372639 L3.30562858,6 L4.80231383,6 L8.06487233,13.5372639 L6.51434948,13.5372639 Z M2.68111243,10.7054062 L5.3299223,10.7054062 L4.01628489,7.53975533 L2.68111243,10.7054062 Z M14.1915911,7.77664077 L14.1915911,12.9881204 C14.1915911,13.5336774 14.0677659,14.0092381 13.8201117,14.4148167 C13.5724575,14.8203953 13.220722,15.1326503 12.7648947,15.351591 C12.3090674,15.5705316 11.7796697,15.6800003 11.1766856,15.6800003 C10.3009229,15.6800003 9.48977785,15.4251716 8.74322608,14.9155064 L9.30313711,13.9033595 C9.84869418,14.305349 10.4480801,14.5063406 11.1013129,14.5063406 C11.6181565,14.5063406 12.0291127,14.3735426 12.3341939,14.1079424 C12.6392752,13.8423423 12.7918135,13.4798394 12.7918135,13.0204229 L12.7918135,12.3420692 C12.5979972,12.6363828 12.3467576,12.8607039 12.0380871,13.0150392 C11.7294167,13.1693744 11.370503,13.2465408 10.9613352,13.2465408 C10.4588484,13.2465408 10.0137954,13.1298939 9.62616271,12.8965964 C9.23853005,12.663299 8.93704252,12.3366875 8.72169104,11.9167521 C8.50633957,11.4968168 8.39866545,11.0140778 8.39866545,10.4685207 C8.39866545,9.93014204 8.50633957,9.45458133 8.72169104,9.04182435 C8.93704252,8.62906736 9.23853005,8.30783956 9.62616271,8.07813132 C10.0137954,7.84842308 10.4588484,7.73357069 10.9613352,7.73357069 C11.3633246,7.73357069 11.7204437,7.81253171 12.0327034,7.97045612 C12.344963,8.12838054 12.5979972,8.35090706 12.7918135,8.63804235 L12.7918135,7.77664077 L14.1915911,7.77664077 Z M11.2628257,12.1482538 C11.7150638,12.1482538 12.0829504,11.9957155 12.3664965,11.6906342 C12.6500426,11.385553 12.7918135,10.9889533 12.7918135,10.5008233 C12.7918135,10.0126933 12.6500426,9.61609359 12.3664965,9.31101234 C12.0829504,9.00593109 11.7150638,8.85339275 11.2628257,8.85339275 C10.8105876,8.85339275 10.442701,9.00772566 10.1591549,9.3163961 C9.87560883,9.62506654 9.73024877,10.0198717 9.72307038,10.5008233 C9.73024877,10.9889533 9.87560883,11.385553 10.1591549,11.6906342 C10.442701,11.9957155 10.8105876,12.1482538 11.2628257,12.1482538 Z M18.2401786,7.73357069 C19.1590115,7.73357069 19.8499204,7.99557772 20.3129261,8.51959963 C20.7759318,9.04362155 21.0074311,9.77939471 21.0074311,10.7269412 C21.0074311,10.9135791 21.003842,11.0535555 20.9966636,11.1468745 L16.7434933,11.1468745 C16.8368123,11.5560423 17.0288311,11.8772701 17.3195556,12.1105675 C17.6102801,12.3438649 17.9673993,12.4605119 18.3909238,12.4605119 C18.6852375,12.4605119 18.9669848,12.4048803 19.2361741,12.2936153 C19.5053635,12.1823504 19.740452,12.0226338 19.9414467,11.8144607 L20.6951731,12.6004896 C20.4080378,12.9163385 20.0580969,13.1603998 19.6453399,13.332681 C19.2325829,13.5049622 18.7749679,13.5911015 18.2724811,13.5911015 C17.6838538,13.5911015 17.1652234,13.4690708 16.7165745,13.2250058 C16.2679256,12.9809408 15.9215738,12.6381782 15.6775088,12.1967076 C15.4334438,11.7552371 15.3114132,11.2473742 15.3114132,10.6731036 C15.3114132,10.098833 15.4352384,9.58917549 15.6828926,9.14411578 C15.9305468,8.69905607 16.2768985,8.35270432 16.7219583,8.10505012 C17.167018,7.85739593 17.6730863,7.73357069 18.2401786,7.73357069 Z M19.7260963,10.2101002 C19.7117395,9.78657568 19.5717632,9.44919677 19.306163,9.19795338 C19.0405629,8.94671 18.6888274,8.82109019 18.2509461,8.82109019 C17.8417783,8.82109019 17.4990157,8.94491543 17.2226479,9.19256962 C16.9462802,9.44022382 16.7757962,9.7793973 16.7111907,10.2101002 L19.7260963,10.2101002 Z" id="Age" fill="#FF786B"></path>
        <path d="M2.02313994,16.6999998 L4.25601841,16.6999998 C5.85180754,18.3070167 8.06173425,19.3034297 10.5,19.3034297 C12.9382657,19.3034297 15.1482028,18.3070167 16.7440022,16.6999998 L18.9768601,16.6999998 C18.6606295,17.1304411 18.3093887,17.5398262 17.9246074,17.9246074 C15.9414199,19.9077949 13.3046484,21 10.5,21 C7.69535156,21 5.05853906,19.9077949 3.07539258,17.9246074 C2.69061131,17.5398262 2.33937053,17.1304411 2.02313994,16.6999998 Z M1.74334323,4.69999981 C2.12803484,4.12180021 2.57314079,3.57763398 3.07539258,3.07539258 C5.05858008,1.09220508 7.69535156,0 10.5,0 C13.3046484,0 15.9414199,1.09220508 17.9246074,3.07539258 C18.4268592,3.57763398 18.8719652,4.12180021 19.2566568,4.69999981 L17.1174384,4.69999981 C15.5027099,2.85998349 13.1346501,1.69661133 10.5,1.69661133 C7.8653499,1.69661133 5.49730215,2.85998349 3.88258475,4.69999981 L1.74334323,4.69999981 Z" id="Combined-Shape" fill="url(#linearGradient-1)"></path>
    </g>
</svg>