<?xml version="1.0" encoding="UTF-8"?>
<svg width="70px" height="70px" viewBox="0 0 70 70" version="1.1" xmlns="http://www.w3.org/2000/svg" xmlns:xlink="http://www.w3.org/1999/xlink">
    <!-- Generator: Sketch 51.1 (57501) - http://www.bohemiancoding.com/sketch -->
    <title>Icons/alert</title>
    <desc>Created with Sketch.</desc>
    <defs>
        <polygon id="path-1" points="0.004 0.0607333333 34.1332667 0.0607333333 34.1332667 29.996 0.004 29.996"></polygon>
    </defs>
    <g id="Icons/alert" stroke="none" stroke-width="1" fill="none" fill-rule="evenodd">
        <rect id="Rectangle-2" x="0" y="0" width="70" height="70"></rect>
        <text id="Button-Name-Copy" font-family="Montserrat-Medium, Montserrat" font-size="8" font-weight="400" fill="#260E0D">
            <tspan x="22.368" y="65">Abuse</tspan>
        </text>
        <g id="warning" transform="translate(18.000000, 20.000000)">
            <g id="Group-3">
                <mask id="mask-2" fill="white">
                    <use xlink:href="#path-1"></use>
                </mask>
                <g id="Clip-2"></g>
                <path d="M4.35926667,27.2424667 L29.7759333,27.2424667 C30.6684,27.2291333 31.3855333,26.494 31.3756,25.6006 C31.3726,25.3252667 31.2990667,25.0536 31.1626667,24.8144 L18.4544667,3.599 C18.2294,3.22953333 17.8741333,2.96953333 17.4538667,2.8666 C17.0326,2.7634 16.5962,2.83053333 16.2252667,3.05546667 C16.0037333,3.18986667 15.8154667,3.3778 15.6807333,3.59906667 L2.97233333,24.8144667 C2.75926667,25.1884 2.7032,25.6227333 2.81466667,26.0387333 C2.92693333,26.4578 3.19566667,26.8080667 3.57126667,27.0249333 C3.81066667,27.1632 4.08293333,27.2383333 4.35926667,27.2424667 Z M29.7847333,29.9999333 L4.35053333,29.9999333 C4.3454,29.9999333 4.3404,29.9999333 4.33533333,29.9999333 C3.58406667,29.9916 2.84306667,29.7886667 2.1924,29.413 C1.17886667,28.8277333 0.453933333,27.8828 0.151133333,26.7522667 C-0.151733333,25.6217333 0.0038,24.441 0.589066667,23.4274667 C0.592733333,23.4210667 0.596466667,23.4147333 0.600266667,23.4083333 L13.3174,2.17826667 C13.3186667,2.17606667 13.3199333,2.17393333 13.3212667,2.1718 C13.6852667,1.5716 14.1948667,1.062 14.7951333,0.697866667 C15.7958667,0.0908666667 16.9728667,-0.0902666667 18.1098,0.188266667 C19.2465333,0.4666 20.2068667,1.17106667 20.8138667,2.17173333 C20.8151333,2.17393333 20.8164667,2.17606667 20.8178,2.17826667 L33.5348,23.4084667 C33.5386,23.4148 33.5423333,23.4211333 33.5460667,23.4275333 C33.9218,24.0781333 34.1246667,24.8191333 34.133,25.5704 C34.1595333,27.9863333 32.2156,29.9734 29.7998667,30 C29.7948667,29.9999333 29.7898,29.9999333 29.7847333,29.9999333 Z" id="Fill-1" fill="#0A0B09" mask="url(#mask-2)" transform="translate(17.066637, 15.030364) rotate(-180.000000) translate(-17.066637, -15.030364) "></path>
            </g>
            <path d="M17.0675333,14.9885333 C16.3061333,14.9885333 15.6888,14.3712667 15.6888,13.6098 L15.6888,7.60406667 C15.6888,6.84266667 16.3061333,6.22533333 17.0675333,6.22533333 C17.8290667,6.22533333 18.4463333,6.84266667 18.4463333,7.60406667 L18.4463333,13.6098 C18.4463333,14.3712667 17.8290667,14.9885333 17.0675333,14.9885333" id="Fill-4" fill="#0A0B09"></path>
            <path d="M17.0674,20.9941333 C16.7046,20.9941333 16.3492,20.8471333 16.0924667,20.5903333 C15.8362667,20.3336667 15.6886,19.9788667 15.6886,19.6154 C15.6886,19.2526 15.8362667,18.8972 16.0924667,18.6404667 C16.3492,18.3837333 16.7046,18.2366667 17.0674,18.2366667 C17.4307333,18.2366667 17.7861333,18.3837333 18.0423333,18.6404667 C18.299,18.8972 18.4461333,19.2526 18.4461333,19.6154 C18.4461333,19.9788667 18.2990667,20.3336667 18.0423333,20.5903333 C17.7854667,20.8470667 17.4306667,20.9941333 17.0674,20.9941333" id="Fill-5" fill="#0A0B09"></path>
        </g>
    </g>
</svg>