<?xml version="1.0" encoding="UTF-8"?>
<svg width="19px" height="17px" viewBox="0 0 19 17" version="1.1" xmlns="http://www.w3.org/2000/svg" xmlns:xlink="http://www.w3.org/1999/xlink">
    <!-- Generator: Sketch 51.1 (57501) - http://www.bohemiancoding.com/sketch -->
    <title>Icons/attachment</title>
    <desc>Created with Sketch.</desc>
    <defs>
        <polygon id="path-1" points="0.0443478261 0.290478261 15.8432609 0.290478261 15.8432609 16.9556522 0.0443478261 16.9556522"></polygon>
    </defs>
    <g id="Icons/attachment" stroke="none" stroke-width="1" fill="none" fill-rule="evenodd">
        <g id="paperclip" transform="translate(1.000000, 0.000000)">
            <mask id="mask-2" fill="white">
                <use xlink:href="#path-1"></use>
            </mask>
            <g id="Clip-2"></g>
            <path d="M5.17391304,17 C3.84791304,17 2.52265217,16.4951739 1.513,15.4862609 C-0.504086957,13.4684348 -0.504086957,10.1837391 1.513,8.16591304 L8.30634783,1.37330435 C9.00408696,0.674826087 9.93243478,0.290478261 10.9206522,0.290478261 C11.9081304,0.290478261 12.8364783,0.674826087 13.5349565,1.37330435 C14.9762609,2.8146087 14.9762609,5.15986957 13.5349565,6.60191304 L6.73421739,13.3945217 C5.86943478,14.2593043 4.46213043,14.2585652 3.59808696,13.3945217 C3.179,12.9754348 2.94765217,12.4181304 2.94765217,11.826087 C2.94765217,11.2333043 3.179,10.676 3.59808696,10.2576522 L9.87330435,3.98908696 C10.1623043,3.70156522 10.6301739,3.70082609 10.9191739,3.98982609 C11.2074348,4.27882609 11.2074348,4.74669565 10.9184348,5.03569565 L4.64247826,11.3035217 C4.50278261,11.4424783 4.42591304,11.628 4.42591304,11.826087 C4.42591304,12.0234348 4.50352174,12.2096957 4.64321739,12.3493913 C4.93221739,12.6391304 5.40156522,12.6376522 5.68982609,12.3493913 L12.4898261,5.55604348 C13.3546087,4.69126087 13.3546087,3.28321739 12.4898261,2.41843478 C11.6501739,1.57952174 10.1896522,1.58026087 9.35147826,2.41843478 L2.55886957,9.21104348 C1.11682609,10.653087 1.11682609,12.999087 2.55886957,14.4411304 C4.00091304,15.8824348 6.34691304,15.8824348 7.78895652,14.4411304 L14.5815652,7.64852174 C14.8705652,7.35952174 15.3384348,7.35952174 15.6266957,7.64852174 C15.9156957,7.93678261 15.9156957,8.40465217 15.6266957,8.69365217 L8.83408696,15.4862609 C7.82443478,16.4951739 6.49917391,17 5.17391304,17" id="Fill-1" fill="#260E0D" mask="url(#mask-2)"></path>
        </g>
    </g>
</svg>