<?xml version="1.0" encoding="UTF-8"?>
<svg width="19px" height="18px" viewBox="0 0 19 18" version="1.1" xmlns="http://www.w3.org/2000/svg" xmlns:xlink="http://www.w3.org/1999/xlink">
    <!-- Generator: Sketch 51.1 (57501) - http://www.bohemiancoding.com/sketch -->
    <title>Icons/calendar_active_1</title>
    <desc>Created with Sketch.</desc>
    <defs></defs>
    <g id="Icons/calendar_active_1" stroke="none" stroke-width="1" fill="none" fill-rule="evenodd">
        <path d="M3.45454545,3.27272727 C3.00267611,3.27272727 2.63636364,3.63903975 2.63636364,4.09090909 L2.63636364,15.5454545 C2.63636364,15.9973239 3.00267611,16.3636364 3.45454545,16.3636364 L14.9090909,16.3636364 C15.3609602,16.3636364 15.7272727,15.9973239 15.7272727,15.5454545 L15.7272727,4.09090909 C15.7272727,3.63903975 15.3609602,3.27272727 14.9090909,3.27272727 L3.45454545,3.27272727 Z M3.45454545,1.63636364 L14.9090909,1.63636364 C16.2646989,1.63636364 17.3636364,2.73530107 17.3636364,4.09090909 L17.3636364,15.5454545 C17.3636364,16.9010626 16.2646989,18 14.9090909,18 L3.45454545,18 C2.09893743,18 1,16.9010626 1,15.5454545 L1,4.09090909 C1,2.73530107 2.09893743,1.63636364 3.45454545,1.63636364 Z M11.6363636,0.818181818 C11.6363636,0.366312477 12.0026761,0 12.4545455,0 C12.9064148,0 13.2727273,0.366312477 13.2727273,0.818181818 L13.2727273,4.09090909 C13.2727273,4.54277843 12.9064148,4.90909091 12.4545455,4.90909091 C12.0026761,4.90909091 11.6363636,4.54277843 11.6363636,4.09090909 L11.6363636,0.818181818 Z M5.09090909,0.818181818 C5.09090909,0.366312477 5.45722157,0 5.90909091,0 C6.36096025,0 6.72727273,0.366312477 6.72727273,0.818181818 L6.72727273,4.09090909 C6.72727273,4.54277843 6.36096025,4.90909091 5.90909091,4.90909091 C5.45722157,4.90909091 5.09090909,4.54277843 5.09090909,4.09090909 L5.09090909,0.818181818 Z M1.81818182,8.18181818 C1.36631248,8.18181818 1,7.8155057 1,7.36363636 C1,6.91176702 1.36631248,6.54545455 1.81818182,6.54545455 L16.5454545,6.54545455 C16.9973239,6.54545455 17.3636364,6.91176702 17.3636364,7.36363636 C17.3636364,7.8155057 16.9973239,8.18181818 16.5454545,8.18181818 L1.81818182,8.18181818 Z" id="Combined-Shape" fill="#5DDD91" fill-rule="nonzero"></path>
    </g>
</svg>