<?xml version="1.0" encoding="UTF-8"?>
<svg width="19px" height="17px" viewBox="0 0 19 17" version="1.1" xmlns="http://www.w3.org/2000/svg" xmlns:xlink="http://www.w3.org/1999/xlink">
    <!-- Generator: Sketch 51.1 (57501) - http://www.bohemiancoding.com/sketch -->
    <title>Icons/car</title>
    <desc>Created with Sketch.</desc>
    <defs></defs>
    <g id="Icons/car" stroke="none" stroke-width="1" fill="none" fill-rule="evenodd">
        <g id="car" transform="translate(0.000000, 3.000000)" fill="#260E0D">
            <path d="M7.11722111,7.9375419 C7.11722111,6.62693619 6.0553683,5.56508337 4.74476259,5.56508337 C3.43415688,5.56508337 2.37230407,6.62693619 2.37230407,7.9375419 C2.37230407,9.2481476 3.43415688,10.3100004 4.74476259,10.3100004 C6.0553683,10.3100004 7.11722111,9.2481476 7.11722111,7.9375419 Z M5.5355821,7.9375419 C5.5355821,8.37465502 5.18187572,8.7283614 4.74476259,8.7283614 C4.30764946,8.7283614 3.95394308,8.37465502 3.95394308,7.9375419 C3.95394308,7.50042877 4.30764946,7.14672239 4.74476259,7.14672239 C5.18187572,7.14672239 5.5355821,7.50042877 5.5355821,7.9375419 Z" id="Fill-1"></path>
            <path d="M17.3978747,7.9375419 C17.3978747,6.62693619 16.3360219,5.56508337 15.0254162,5.56508337 C13.7148105,5.56508337 12.6529577,6.62693619 12.6529577,7.9375419 C12.6529577,9.2481476 13.7148105,10.3100004 15.0254162,10.3100004 C16.3360219,10.3100004 17.3978747,9.2481476 17.3978747,7.9375419 Z M15.8162357,7.9375419 C15.8162357,8.37465502 15.4625293,8.7283614 15.0254162,8.7283614 C14.5883031,8.7283614 14.2345967,8.37465502 14.2345967,7.9375419 C14.2345967,7.50042877 14.5883031,7.14672239 15.0254162,7.14672239 C15.4625293,7.14672239 15.8162357,7.50042877 15.8162357,7.9375419 Z" id="Fill-2"></path>
            <g id="Group-6">
                <path d="M15.0255706,5.56523783 C13.9922538,5.56523783 13.1135869,6.22527093 12.7880303,7.14687685 L6.98238021,7.14687685 C6.65663053,6.22534816 5.77773196,5.56523783 4.74491705,5.56523783 C3.71160015,5.56523783 2.83293326,6.22527093 2.50737666,7.14687685 L1.99446379,7.14687685 C1.76648535,7.14687685 1.58163902,6.96195328 1.58163902,6.73405207 L1.58163902,5.38888662 C1.58163902,5.18033115 1.73621179,5.00525421 1.94283656,4.97949852 L3.69530494,4.82925053 C5.02402073,4.66351824 5.8182769,4.05727477 7.10818538,2.60630632 L7.52386761,2.13926717 C7.82270316,1.80301442 8.24977659,1.61114029 8.69901459,1.61114029 L12.9227939,1.61114029 C13.4727379,1.61114029 13.9819824,1.89777375 14.2672643,2.36782482 L14.3498988,2.50366969 C14.9427045,3.48072565 15.9614252,4.2252853 17.0118096,4.2920107 C17.2278949,4.30560291 17.3980292,4.48608584 17.3980292,4.70402457 L17.3980292,6.81077855 C17.3980292,6.92928564 17.3420771,7.02721133 17.2406376,7.08621388 C16.8983996,6.19654194 16.0355645,5.56523783 15.0255706,5.56523783 Z M15.7016673,1.68253801 L15.6189942,1.54657729 C15.0473105,0.604660287 14.025462,0.0295012746 12.9227939,0.0295012746 L8.69901459,0.0295012746 C7.79787421,0.0295012746 6.94056099,0.414678257 6.34200176,1.08818772 L5.92639676,1.55511104 C4.87898567,2.73334715 4.32367437,3.1572156 3.52926374,3.25664725 L1.7771815,3.40685662 C0.748652765,3.53447666 0,4.38263831 0,5.38888662 L0,6.73405207 C0,7.83529141 0.892799699,8.72851586 1.99446379,8.72851586 L3.16327803,8.72851586 C3.60004363,8.72851586 3.95409754,8.37446195 3.95409754,7.93769635 C3.95409754,7.50058323 4.30780392,7.14687685 4.74491705,7.14687685 C5.1815668,7.14687685 5.53573655,7.50093075 5.53573655,7.93769635 C5.53573655,8.37446195 5.88979046,8.72851586 6.32655606,8.72851586 L13.4439316,8.72851586 C13.8806972,8.72851586 14.2347511,8.37446195 14.2347511,7.93769635 C14.2347511,7.50058323 14.5884575,7.14687685 15.0255706,7.14687685 C15.4622204,7.14687685 15.8163902,7.50093075 15.8163902,7.93769635 C15.8163902,8.37446195 16.1704441,8.72851586 16.6072097,8.72851586 L16.9852044,8.72851586 C18.0871002,8.72851586 18.9796682,7.91491396 18.9796682,6.81077855 L18.9796682,4.70402457 C18.9796682,3.64981738 18.1591929,2.77941393 17.1115888,2.71349944 C16.6364793,2.68334172 16.0478825,2.25314054 15.7016673,1.68253801 Z" id="Fill-3"></path>
                <path d="M15.8878265,3.3045289 L18.6272361,1.4785004 C18.9906732,1.23627331 19.0888692,0.745254712 18.8466422,0.381856158 C18.6044151,0.0184189895 18.1133965,-0.0798156212 17.7499979,0.162450082 L15.0105883,1.98843997 C14.6471512,2.23070567 14.5489165,2.72168565 14.7911822,3.08508421 C15.0334093,3.44852138 15.5244279,3.54675599 15.8878265,3.3045289" id="Fill-5"></path>
            </g>
        </g>
    </g>
</svg>