<?xml version="1.0" encoding="UTF-8"?>
<svg width="70px" height="70px" viewBox="0 0 70 70" version="1.1" xmlns="http://www.w3.org/2000/svg" xmlns:xlink="http://www.w3.org/1999/xlink">
    <!-- Generator: Sketch 51.1 (57501) - http://www.bohemiancoding.com/sketch -->
    <title>Icons/catfish</title>
    <desc>Created with Sketch.</desc>
    <defs></defs>
    <g id="Icons/catfish" stroke="none" stroke-width="1" fill="none" fill-rule="evenodd">
        <rect id="Rectangle-2" x="0" y="0" width="70" height="70"></rect>
        <text id="Button-Name-Copy" font-family="Montserrat-Medium, Montserrat" font-size="8" font-weight="400" fill="#260E0D">
            <tspan x="20.956" y="65">Catfish</tspan>
        </text>
        <path d="M42.2000008,38.126055 C41.7803151,37.8953172 41.470149,37.7020147 41.3062877,37.5665668 C40.8991424,37.233052 40.1408658,37.2316907 39.7295404,37.5679281 C39.1994991,38.0062619 35.8094089,39 33.7293732,39 C30.8735043,39 28.5694133,38.1151647 27.2000008,36.5 C28.5694133,34.8855159 30.8735043,34 33.7293732,34 C35.8094089,34 39.1994991,34.9937381 39.7320485,35.4341138 C40.1383577,35.766948 40.8966344,35.7689899 41.3087958,35.4320719 C41.470985,35.2979853 41.7803151,35.1053635 42.2000008,34.8746256 C42.1013496,35.4872039 42.022763,36.0984209 42.022763,36.5 C42.022763,36.9022597 42.1013496,37.5134767 42.2000008,38.126055 M44.7110643,31.3444771 C44.3532781,31.0951245 43.868025,31.0652364 43.4680428,31.2778692 C43.1594851,31.4443889 41.7090004,32.2385596 40.6743212,32.9823475 C40.2171988,32.7338489 39.6941452,32.5126766 39.229111,32.3350556 C39.3240518,31.8252492 39.5069008,31.0421798 39.6721681,30.410259 C39.7741416,30.024275 39.6554656,29.6101107 39.3644895,29.3291621 C39.0708763,29.0456517 38.6401262,28.9346386 38.2480558,29.0379662 C37.6502803,29.1908227 34.6886541,29.9875552 33.1528984,31.151485 C29.2075798,31.2727455 26.0859608,32.9814935 24.3497745,35.9771397 C24.1502229,36.3204264 24.1502229,36.7465459 24.3488954,37.0881248 C26.1598037,40.211863 29.445811,41.9325662 33.6012301,41.9325662 C34.0592316,41.9325662 34.5743735,41.8915768 35.1369858,41.8104518 C35.6547649,42.5448462 36.517144,43 37.4454542,43 C38.9882426,43 40.2453294,41.7865413 40.2576365,40.2904261 C40.4088386,40.2186945 40.5477335,40.1495248 40.6725631,40.082917 C41.7072422,40.8275588 43.1594851,41.6225835 43.4733173,41.791665 C43.8583551,41.9991741 44.3664643,41.9641623 44.7093061,41.7233492 C45.0750041,41.4722888 45.2604904,41.03336 45.1804939,40.597847 C44.9361092,39.2093292 44.6512868,37.3118589 44.6512868,36.5330592 C44.6512868,35.7551134 44.9361092,33.8576432 45.1822521,32.4614398 C45.2604904,32.0344663 45.0758832,31.5963914 44.7110643,31.3444771 M49.3732124,37.1419986 L48.4994699,37.1430085 C47.7711862,37.1430085 47.1794558,37.7469113 47.1794558,38.491186 C47.1804453,39.2213226 47.7494169,39.8151267 48.4579102,39.8373438 C48.472753,39.8373438 48.4866062,39.8383537 48.5014489,39.8383537 L48.9863117,39.8373438 C48.8883496,40.2281638 48.7755448,40.6119147 48.6419602,40.9885966 C48.1204853,40.9310339 47.5940629,41.1855214 47.3328307,41.6874272 C47.0537873,42.2266982 47.1834138,42.8568576 47.5881258,43.2638355 C45.1390741,47.4386414 40.4537166,50.2723389 35.0816351,50.2723389 C29.6699729,50.2723389 24.9519614,47.4002663 22.5177524,43.1749669 C22.8462716,42.7669791 22.9234539,42.1832737 22.6671693,41.6874272 C22.4336435,41.2390445 21.9853929,40.9956657 21.5213099,40.9875867 C21.3877253,40.6119147 21.2749205,40.227154 21.1759689,39.8373438 L21.4985511,39.8383537 C21.5124043,39.8383537 21.527247,39.8373438 21.5411002,39.8373438 C22.2495936,39.8151267 22.8195547,39.2213226 22.8205442,38.491186 C22.8205442,37.7469113 22.2288138,37.1430085 21.5005301,37.1430085 L20.7900577,37.1419986 C20.7841206,36.9773897 20.7643303,36.8158104 20.7643303,36.6491817 C20.7643303,36.365408 20.7940158,36.0887034 20.8118271,35.8089692 L20.8820827,35.8463344 C20.8939569,35.8534035 20.9068206,35.8594627 20.9196843,35.8665318 C21.555943,36.1846411 22.3307339,35.9321734 22.6671693,35.286866 C23.0075627,34.6284302 22.7621628,33.8134644 22.117988,33.465059 L21.2976793,33.0207158 C21.5133938,32.2804805 21.774626,31.5513538 22.1239251,30.8494936 C22.2199081,30.658628 22.2693839,30.4465551 22.2693839,30.2324625 L22.2693839,21.7949919 L26.9280245,24.70241 C27.3327365,24.9629566 27.8443162,24.9821442 28.267829,24.7549232 C28.3361055,24.7185679 35.1499117,21.1426154 41.6421251,24.7478542 C42.0577218,24.9801244 42.5643539,24.968006 42.9700554,24.717558 L47.912687,21.747528 L47.912687,30.2708376 C47.912687,30.4829105 47.9611733,30.6919538 48.0541878,30.8807996 C48.382707,31.5523637 48.6310755,32.2451351 48.8398634,32.9459854 L47.882012,33.465059 C47.2378372,33.8134644 46.9924373,34.6284302 47.3328307,35.286866 C47.6682766,35.9321734 48.444057,36.1846411 49.0803157,35.8665318 C49.0931794,35.8594627 49.1050536,35.8534035 49.1179173,35.8463344 L49.3464955,35.7231301 C49.3682648,36.0311407 49.3989398,36.3381415 49.3989398,36.6491817 C49.3989398,36.8158104 49.3791495,36.9773897 49.3732124,37.1419986 Z M54.6789963,39.8312846 C55.409259,39.8312846 55.9990105,39.2273819 56,38.4831071 C55.9990105,37.7388323 55.40728,37.1399789 54.6780068,37.1359394 L52.0439157,37.138969 C52.0488632,36.9743601 52.0706326,36.8148005 52.0706326,36.6491817 C52.0706326,35.872591 51.9934503,35.1081188 51.8826246,34.3497058 L54.5760867,32.8914524 C55.2202615,32.543047 55.4656614,31.7270713 55.1242785,31.0686356 C54.7828955,30.4112097 53.9853457,30.1648012 53.3401814,30.5091671 L51.252303,31.6402224 C51.0613264,31.0706553 50.8406644,30.5091671 50.5843798,29.9567678 L50.5843798,19.363223 C50.5843798,18.8744455 50.3280952,18.4220234 49.911509,18.1796544 C49.4978914,17.9372854 48.9833431,17.940315 48.570715,18.1877334 L42.2338556,21.9939364 C35.9415243,18.8916133 29.7867358,21.0870725 27.7275533,22.0030253 L21.6301567,18.1998518 C21.2175286,17.9433446 20.7000118,17.9332459 20.2804571,18.1735952 C19.8579338,18.4159642 19.5976911,18.870406 19.5976911,19.363223 L19.5976911,29.9133434 C19.3196372,30.502098 19.08908,31.1049909 18.8872188,31.7159628 L16.6598186,30.5091671 C16.0146543,30.1648012 15.216115,30.4112097 14.874732,31.0686356 C14.5343386,31.7270713 14.7797385,32.543047 15.4239133,32.8914524 L18.2648133,34.4294856 C18.1619036,35.1606321 18.0926375,35.8978378 18.0926375,36.6491817 C18.0926375,36.8148005 18.1134174,36.9743601 18.1183649,37.1399789 L15.3219932,37.1359394 C14.59272,37.1399789 14.0009895,37.7388323 14,38.4831071 C14,39.2273819 14.5917305,39.8312846 15.3200141,39.8312846 L18.4211568,39.8353241 C18.5814584,40.6139345 18.8130051,41.3662882 19.0841324,42.1014742 L15.4239133,44.0838506 C14.7797385,44.4312462 14.5343386,45.2472218 14.874732,45.9056575 C15.216115,46.5630834 16.0146543,46.8094919 16.6598186,46.465126 L20.2121805,44.5413221 C23.1104724,49.5785577 28.6863942,53 35.0816351,53 C41.4471905,53 47.0003534,49.6068341 49.9085405,44.6069637 L53.3401814,46.465126 C53.9853457,46.8094919 54.7828955,46.5630834 55.1242785,45.9056575 C55.4656614,45.2472218 55.2202615,44.4312462 54.5760867,44.0838506 L51.0504417,42.1741849 C51.3344328,41.4157719 51.5758747,40.6391813 51.7411238,39.8343142 L54.6789963,39.8312846 Z" id="Fill-3" fill="#260E0D"></path>
    </g>
</svg>