<?xml version="1.0" encoding="UTF-8"?>
<svg width="249px" height="62px" viewBox="0 0 249 62" version="1.1" xmlns="http://www.w3.org/2000/svg" xmlns:xlink="http://www.w3.org/1999/xlink">
    <!-- Generator: Sketch 51.1 (57501) - http://www.bohemiancoding.com/sketch -->
    <title>Elements/CheckMyD8Premium</title>
    <desc>Created with Sketch.</desc>
    <defs>
        <polygon id="path-1" points="0 0.107451831 10.0168678 0.107451831 10.0168678 10.7423205 0 10.7423205"></polygon>
        <polygon id="path-3" points="0.039850942 0.0488734773 10.4358728 0.0488734773 10.4358728 13.5769682 0.039850942 13.5769682"></polygon>
        <polygon id="path-5" points="0.0796876312 0.0488734773 10.2961237 0.0488734773 10.2961237 13.5769403 0.0796876312 13.5769403"></polygon>
        <linearGradient x1="91.1311345%" y1="93.8675885%" x2="20.130637%" y2="39.80221%" id="linearGradient-7">
            <stop stop-color="#FCC374" offset="0%"></stop>
            <stop stop-color="#FF6058" offset="100%"></stop>
        </linearGradient>
        <path d="M17.8157708,7.0966711 C19.2183735,6.08411798 19.8514918,4.79226622 19.8514918,3.95623217 C19.8514918,3.13370223 19.2427292,2.44743769 18.3903855,2.44743769 C17.9394542,2.44743769 17.5441509,2.64077473 17.2472181,3.00655852 C17.20762,3.05534326 17.1723205,3.10414837 17.1410338,3.15141622 C17.109747,3.10413819 17.0744475,3.05534326 17.0348494,3.00655852 C16.7379166,2.64077473 16.3426133,2.44743769 15.891682,2.44743769 C15.0398359,2.44743769 14.4305757,3.13326447 14.4305757,3.95622199 C14.4305757,4.79225884 15.0636983,6.08411646 16.4663108,7.0966711 C15.0636983,8.10922574 14.4305757,9.40108336 14.4305757,10.2371202 C14.4305757,11.0600777 15.0398359,11.7459045 15.891682,11.7459045 C16.3426133,11.7459045 16.7379166,11.5525675 17.0348494,11.1867837 C17.0744475,11.1379989 17.109747,11.089204 17.1410338,11.041926 C17.1723205,11.0891938 17.20762,11.1379989 17.2472181,11.1867837 C17.5441509,11.5525675 17.9394542,11.7459045 18.3903855,11.7459045 C19.2427292,11.7459045 19.8514918,11.05964 19.8514918,10.23711 C19.8514918,9.40107598 19.2183735,8.10922422 17.8157708,7.0966711 Z M12.0332315,9.94244322 C12.0332315,8.45162246 12.6954123,7.29513658 14.0202013,6.47214766 C13.0364061,5.67499497 12.5447936,4.7592749 12.5447936,3.72428917 C12.5447936,2.6894431 12.984395,1.83098172 13.8626003,1.14988262 C14.7416606,0.468923179 15.8431577,0.127605526 17.1682318,0.127605526 C18.4931633,0.127605526 19.594803,0.468923179 20.4737208,1.14988262 C21.3522111,1.83098172 21.7923824,2.6894431 21.7923824,3.72428917 C21.7923824,4.7592749 21.3000574,5.67499497 20.3161197,6.47214766 C21.6410513,7.29513658 22.3039445,8.45162246 22.3039445,9.94244322 C22.3039445,11.099767 21.8317115,12.0703716 20.8869603,12.8542571 C19.9422092,13.6388408 18.702918,14.0311326 17.1682318,14.0311326 C15.6335455,14.0311326 14.3941118,13.6388408 13.4495032,12.8542571 C12.505607,12.0703716 12.0332315,11.099767 12.0332315,9.94244322 Z M22.3551527,17.9074064 L0.0942112757,17.9074064 L0.0942112757,15.4050843 L22.3551527,15.4050843 L22.3551527,17.9074064 Z M11.3680656,0.361828013 L11.3680656,13.8900065 L8.77404861,13.8900065 L8.77404861,12.2086193 C8.38808169,12.7952406 7.89279548,13.241665 7.28747735,13.5477526 C6.68201668,13.8542591 5.9806344,14.0073029 5.18233281,14.0073029 C4.1712363,14.0073029 3.28328434,13.7824849 2.51847692,13.3328489 C1.75338444,12.8830733 1.15832835,12.2510694 0.732596002,11.4364183 C0.306721128,10.6220466 0.0942112757,9.68674785 0.0942112757,8.63108074 C0.0942112757,7.58853965 0.303585503,6.66636695 0.722619013,5.86484192 C1.14165252,5.06331689 1.73343046,4.44108771 2.49852294,3.99787509 C3.26333036,3.55494175 4.13788465,3.3331958 5.12247088,3.3331958 C5.93374256,3.3331958 6.64567194,3.48959092 7.25754638,3.80238118 C7.8692783,4.11517143 8.37496908,4.56480743 8.77404861,5.15128915 L8.77404861,0.361828013 L11.3680656,0.361828013 Z M3.28100388,6.39267548 C2.72229254,6.98599949 2.4360955,7.75135815 2.42312541,8.68972891 C2.4360955,9.62809968 2.72229254,10.3938772 3.28100388,10.9867823 C3.83971523,11.5799667 4.5646147,11.8762796 5.45598734,11.8762796 C6.34707493,11.8762796 7.07539508,11.5799667 7.64094779,10.9867823 C8.20621545,10.3938772 8.4889918,9.62809968 8.4889918,8.68972891 C8.4889918,7.75135815 8.20621545,6.98599949 7.64094779,6.39267548 C7.07539508,5.79977038 6.34707493,5.50317819 5.45598734,5.50317819 C4.5646147,5.50317819 3.83971523,5.79977038 3.28100388,6.39267548 Z" id="path-8"></path>
    </defs>
    <g id="Elements/CheckMyD8Premium" stroke="none" stroke-width="1" fill="none" fill-rule="evenodd">
        <g id="Group">
            <text id="Review-Header-Copy-2" font-family="Montserrat-SemiBold, Montserrat" font-size="8.83999972" font-weight="500" letter-spacing="6.11999971" fill="#FF786B">
                <tspan x="149.86927" y="32.9999986">PREMIU</tspan>
                <tspan x="222.621107" y="32.9999986">M</tspan>
            </text>
            <g id="Branding/primary_light" transform="translate(17.599999, 22.799999)">
                <g transform="translate(0.000000, -0.278182)" id="CMD-Logo">
                    <g>
                        <g id="Group-3" transform="translate(0.000000, 3.336128)">
                            <mask id="mask-2" fill="white">
                                <use xlink:href="#path-1"></use>
                            </mask>
                            <g id="Clip-2"></g>
                            <path d="M5.52722304,8.55264908 C4.66236068,8.55264908 3.96083587,8.26611086 3.4220785,7.69261551 C2.88332113,7.11912017 2.61394244,6.36311729 2.61394244,5.42488617 C2.61394244,4.5126278 2.88332113,3.76989058 3.4220785,3.1962556 C3.96083587,2.62276025 4.66236068,2.33594276 5.52722304,2.33594276 C6.67115602,2.33594276 7.60243662,2.72050721 8.32077978,3.48935682 L9.89714394,2.0231525 C9.4182485,1.41069801 8.79625454,0.938300946 8.03144712,0.6059613 C7.26635464,0.273621654 6.39835665,0.107451831 5.42745316,0.107451831 C4.36305103,0.107451831 3.4220785,0.329058141 2.60396545,0.771991484 C1.78585241,1.2152041 1.14732515,1.84092425 0.68838369,2.64887265 C0.229442226,3.45710033 -2.8505681e-05,4.38876845 -2.8505681e-05,5.44429592 C-2.8505681e-05,6.48725592 0.226021545,7.40914935 0.678406702,8.21067437 C1.1305068,9.01205976 1.76589843,9.63470787 2.58401148,10.0776412 C3.40212452,10.5208538 4.33654074,10.7423205 5.3875452,10.7423205 C6.42515199,10.7423205 7.33619356,10.5599526 8.12124001,10.1949376 C8.90600141,9.83006214 9.53797236,9.30865195 10.0168678,8.63098628 L8.40059569,7.32117709 C7.76206843,8.14225151 6.80427755,8.55264908 5.52722304,8.55264908" id="Fill-1" fill="#260E0D" mask="url(#mask-2)"></path>
                        </g>
                        <g id="Group-6" transform="translate(10.404574, 0.403720)">
                            <mask id="mask-4" fill="white">
                                <use xlink:href="#path-3"></use>
                            </mask>
                            <g id="Clip-5"></g>
                            <path d="M6.48498542,3.02029712 C4.64921956,3.04640952 3.36532369,3.74362458 2.63386791,5.11194231 L2.63386791,0.0487896942 L0.039850942,0.0487896942 L0.039850942,13.5769682 L2.63386791,13.5769682 L2.63386791,8.43533877 C2.63386791,7.56231882 2.88642825,6.84555437 3.39211903,6.2850454 C3.89752475,5.72481571 4.58251627,5.43785858 5.44737863,5.4248722 C6.1788344,5.4248722 6.75749973,5.63670382 7.1833746,6.06022741 C7.60896442,6.48389064 7.82190186,7.06059767 7.82190186,7.79020887 L7.82190186,13.5769682 L10.4358728,13.5769682 L10.4358728,7.04747165 C10.4358728,5.80943665 10.0832575,4.82847614 9.37831204,4.10528831 C8.67308149,3.38196085 7.7087343,3.02029712 6.48498542,3.02029712" id="Fill-4" fill="#260E0D" mask="url(#mask-4)"></path>
                        </g>
                        <path d="M23.8621056,7.93989806 C23.9818294,7.15778278 24.2976724,6.54211661 24.8099195,6.09248062 C25.3218815,5.64284463 25.9572731,5.41788699 26.7155242,5.41788699 C27.5267959,5.41788699 28.1787208,5.64619595 28.671014,6.10225531 C29.163022,6.55845431 29.4224237,7.17104844 29.449219,7.93989806 L23.8621056,7.93989806 Z M26.6955703,3.44353814 C25.6445658,3.44353814 24.7067289,3.66835614 23.8820595,4.11799213 C23.0571051,4.56762812 22.4154423,5.19655996 21.9565008,6.00450836 C21.4975593,6.81273603 21.2680886,7.73798078 21.2680886,8.78052187 C21.2680886,9.82334224 21.4941386,10.7452357 21.9465238,11.5467607 C22.3986239,12.3481461 23.0405718,12.9707942 23.8720826,13.4137275 C24.7033082,13.8569401 25.6645198,14.0784068 26.7554322,14.0784068 C27.6864277,14.0784068 28.5344717,13.9220117 29.2995642,13.6092214 C30.0643716,13.2962915 30.7128759,12.8534978 31.2450769,12.2798628 L29.8482986,10.8526177 C29.4757293,11.2308984 29.0401625,11.5207879 28.5413131,11.7227052 C28.0424637,11.9249018 27.5202396,12.0257208 26.9749259,12.0257208 C26.1898795,12.0257208 25.5282626,11.8140288 24.9895052,11.3903656 C24.4507479,10.9669816 24.0947119,10.3835719 23.9219675,9.64069507 L31.8037883,9.64069507 C31.8169009,9.4714532 31.8237423,9.21717148 31.8237423,8.87826883 C31.8237423,7.15778278 31.3947318,5.82214047 30.5367108,4.87064368 C29.6786898,3.91942618 28.3982146,3.44353814 26.6955703,3.44353814 Z" id="Fill-7" fill="#260E0D"></path>
                        <path d="M37.778522,11.8887773 C36.9136597,11.8887773 36.2121348,11.6022391 35.6733775,11.0287437 C35.1346201,10.4552484 34.8652414,9.6992455 34.8652414,8.76101437 C34.8652414,7.84875601 35.1346201,7.10601879 35.6733775,6.5323838 C36.2121348,5.95888846 36.9136597,5.67207096 37.778522,5.67207096 C38.922455,5.67207096 39.8537356,6.05663541 40.5720788,6.82548503 L42.1484429,5.35928071 C41.6695475,4.74682622 41.0475535,4.27442915 40.2827461,3.94208951 C39.5176536,3.60974986 38.6496556,3.44358004 37.6787521,3.44358004 C36.61435,3.44358004 35.6733775,3.66518635 34.8552644,4.10811969 C34.0371514,4.55133231 33.3986241,5.17705246 32.9396827,5.98500086 C32.4807412,6.79322853 32.2512705,7.72489665 32.2512705,8.78042412 C32.2512705,9.82338413 32.4773205,10.7452776 32.9297057,11.5468026 C33.3818058,12.348188 34.0171974,12.9708361 34.8353105,13.4137694 C35.6534235,13.856982 36.5878397,14.0784487 37.6388442,14.0784487 C38.676451,14.0784487 39.5874925,13.8960808 40.372539,13.5310658 C41.1573004,13.1661903 41.7892713,12.6447802 42.2681668,11.9671145 L40.6518947,10.6573053 C40.0133674,11.4783797 39.0555765,11.8887773 37.778522,11.8887773" id="Fill-9" fill="#260E0D"></path>
                        <g id="Group-13" transform="translate(42.615993, 0.403720)">
                            <mask id="mask-6" fill="white">
                                <use xlink:href="#path-5"></use>
                            </mask>
                            <g id="Clip-12"></g>
                            <polygon id="Fill-11" fill="#260E0D" mask="url(#mask-6)" points="10.056676 3.13756553 7.06357948 3.13756553 2.67384713 7.47753032 2.67384713 0.0487617665 0.0796876312 0.0487617665 0.0796876312 13.5769403 2.67384713 13.5769403 2.67384713 10.6836304 4.31007322 9.00238282 7.20325731 13.5769403 10.2961237 13.5769403 6.10593112 7.16474007"></polygon>
                        </g>
                        <path d="M67.327625,3.42401668 C65.3587376,3.45012908 64.0350763,4.28405024 63.3567836,5.92633872 C63.1037957,5.13151634 62.66153,4.51557089 62.0297016,4.07878164 C61.3978732,3.64227167 60.6161049,3.42401668 59.6852519,3.42401668 C57.8892515,3.45012908 56.6387072,4.12779476 55.9337617,5.45715334 L55.9337617,3.521624 L53.3396022,3.521624 L53.3396022,13.9806878 L55.9337617,13.9806878 L55.9337617,8.81964858 C55.9337617,7.95933574 56.1763451,7.24927393 56.6620819,6.68876497 C57.1473911,6.12853528 57.8095781,5.83529442 58.6476451,5.80904238 C59.3659883,5.80904238 59.9311134,6.02101363 60.3437331,6.44439758 C60.7559253,6.86806081 60.9623064,7.45119121 60.9623064,8.19392843 L60.9623064,13.9806878 L63.5762773,13.9806878 L63.5762773,8.81964858 C63.5762773,7.95933574 63.8188607,7.24927393 64.304455,6.68876497 C64.7899067,6.12853528 65.4449673,5.83529442 66.2699217,5.80904238 C66.9882648,5.80904238 67.5569532,6.02101363 67.9761292,6.44439758 C68.3950202,6.86806081 68.6046795,7.45119121 68.6046795,8.19392843 L68.6046795,13.9806878 L71.2186504,13.9806878 L71.2186504,7.45119121 C71.2186504,6.21315621 70.8724489,5.2321957 70.1810436,4.50900788 C69.4890682,3.78568041 68.5378337,3.42401668 67.327625,3.42401668" id="Fill-14" fill="#260E0D"></path>
                        <path d="M79.7191158,3.52165193 L76.945513,11.126365 L73.9125085,3.52165193 L71.2185792,3.52165193 L75.6285505,13.8047712 L75.3092869,14.4888602 C74.9766256,15.1926383 74.4578222,15.544667 73.7528767,15.544667 C73.513429,15.544667 73.2870939,15.5020772 73.0744415,15.4174563 C72.8615041,15.3325561 72.6286127,15.1990617 72.3759098,15.0166938 L71.2586296,16.9522231 C71.6706793,17.2778601 72.0867197,17.5158042 72.5057532,17.6656363 C72.9247867,17.8153287 73.3937051,17.8904543 73.9125085,17.8904543 C74.7635456,17.8904543 75.4988497,17.6720596 76.1172804,17.2355497 C76.7359962,16.7987604 77.211471,16.1505585 77.5441323,15.2903853 L82.3330867,3.52165193 L79.7191158,3.52165193 Z" id="Fill-16" fill="#260E0D"></path>
                        <g id="Group-20" transform="translate(81.668776, 0.090765)">
                            <mask id="mask-9" fill="white">
                                <use xlink:href="#path-8"></use>
                            </mask>
                            <use id="Clip-19" fill="url(#linearGradient-7)" xlink:href="#path-8"></use>
                            <path d="M3.28100388,6.39267548 C3.83971523,5.79977038 4.5646147,5.50317819 5.45598734,5.50317819 C6.34707493,5.50317819 7.07539508,5.79977038 7.64094779,6.39267548 C8.20621545,6.98599949 8.4889918,7.75135815 8.4889918,8.68972891 C8.4889918,9.62809968 8.20621545,10.3938772 7.64094779,10.9867823 C7.07539508,11.5799667 6.34707493,11.8762796 5.45598734,11.8762796 C4.5646147,11.8762796 3.83971523,11.5799667 3.28100388,10.9867823 C2.72229254,10.3938772 2.4360955,9.62809968 2.42312541,8.68972891 C2.4360955,7.75135815 2.72229254,6.98599949 3.28100388,6.39267548 Z M2.51847692,13.3328489 C3.28328434,13.7824849 4.1712363,14.0073029 5.18233281,14.0073029 C5.9806344,14.0073029 6.68201668,13.8542591 7.28747735,13.5477526 C7.89279548,13.241665 8.38808169,12.7952406 8.77404861,12.2086193 L8.77404861,13.8900065 L11.3680656,13.8900065 L11.3680656,0.361688374 L8.77404861,0.361688374 L8.77404861,5.15128915 C8.37496908,4.56480743 7.8692783,4.11517143 7.25754638,3.80238118 C6.64567194,3.48959092 5.93374256,3.3331958 5.12247088,3.3331958 C4.13788465,3.3331958 3.26333036,3.55494175 2.49852294,3.99787509 C1.73343046,4.44108771 1.14165252,5.06331689 0.722619013,5.86484192 C0.303585503,6.66636695 0.0942112757,7.58853965 0.0942112757,8.63108074 C0.0942112757,9.68674785 0.306721128,10.6220466 0.732596002,11.4364183 C1.15832835,12.2510694 1.75338444,12.8830733 2.51847692,13.3328489 Z M0.0942112757,17.9074064 L22.3552953,17.9074064 L22.3552953,15.4050843 L0.0942112757,15.4050843 L0.0942112757,17.9074064 Z" id="Fill-18" mask="url(#mask-9)"></path>
                        </g>
                    </g>
                </g>
            </g>
            <rect id="Rectangle" fill="#FF786B" x="135.199992" y="13.5999992" width="1" height="34.3999979"></rect>
            <rect id="Rectangle-3" stroke="#FF786B" stroke-width="1.5999999" x="0.799999952" y="0.799999952" width="247.199985" height="59.9999964" rx="3.99999976"></rect>
        </g>
    </g>
</svg>