<?xml version="1.0" encoding="UTF-8"?>
<svg width="70px" height="70px" viewBox="0 0 70 70" version="1.1" xmlns="http://www.w3.org/2000/svg" xmlns:xlink="http://www.w3.org/1999/xlink">
    <!-- Generator: Sketch 51.1 (57501) - http://www.bohemiancoding.com/sketch -->
    <title>Icons/credit_card_dark</title>
    <desc>Created with Sketch.</desc>
    <defs></defs>
    <g id="Icons/credit_card_dark" stroke="none" stroke-width="1" fill="none" fill-rule="evenodd">
        <path d="M21.25,33.7777778 C20.5596441,33.7777778 20,33.2305702 20,32.5555556 C20,31.8805409 20.5596441,31.3333333 21.25,31.3333333 L48.75,31.3333333 C49.4403559,31.3333333 50,31.8805409 50,32.5555556 C50,33.2305702 49.4403559,33.7777778 48.75,33.7777778 L21.25,33.7777778 Z M23.75,26.4444444 C23.0596441,26.4444444 22.5,26.991652 22.5,27.6666667 L22.5,42.3333333 C22.5,43.008348 23.0596441,43.5555556 23.75,43.5555556 L46.25,43.5555556 C46.9403559,43.5555556 47.5,43.008348 47.5,42.3333333 L47.5,27.6666667 C47.5,26.991652 46.9403559,26.4444444 46.25,26.4444444 L23.75,26.4444444 Z M23.75,24 L46.25,24 C48.3210678,24 50,25.6416226 50,27.6666667 L50,42.3333333 C50,44.3583774 48.3210678,46 46.25,46 L23.75,46 C21.6789322,46 20,44.3583774 20,42.3333333 L20,27.6666667 C20,25.6416226 21.6789322,24 23.75,24 Z" id="Rectangle-path" fill="#FFFFFF" fill-rule="nonzero"></path>
    </g>
</svg>