<?xml version="1.0" encoding="UTF-8"?>
<svg width="70px" height="70px" viewBox="0 0 70 70" version="1.1" xmlns="http://www.w3.org/2000/svg" xmlns:xlink="http://www.w3.org/1999/xlink">
    <!-- Generator: Sketch 51.1 (57501) - http://www.bohemiancoding.com/sketch -->
    <title>Icons/dob_dark</title>
    <desc>Created with Sketch.</desc>
    <defs>
        <polygon id="path-1" points="0.003515625 0.0357103797 30 0.0357103797 30 23.1964759 0.003515625 23.1964759"></polygon>
    </defs>
    <g id="Icons/dob_dark" stroke="none" stroke-width="1" fill="none" fill-rule="evenodd">
        <rect id="Rectangle-2" x="0" y="0" width="70" height="70"></rect>
        <g id="gift" transform="translate(20.000000, 21.000000)">
            <g id="Group-4" transform="translate(0.000000, 5.800000)">
                <mask id="mask-2" fill="white">
                    <use xlink:href="#path-1"></use>
                </mask>
                <g id="Clip-2"></g>
                <path d="M27.0857227,23.2 L2.94855469,23.2 C2.38048828,23.2 1.92,22.7384668 1.92,22.1689803 L1.92,7.76882835 L3.97716797,7.76882835 L3.97716797,21.1379605 L26.057168,21.1379605 L26.057168,7.76882835 L28.1142773,7.76882835 L28.1142773,22.1689803 C28.1142773,22.7384668 27.6538477,23.2 27.0857227,23.2" id="Fill-1" fill="#FFFFFF" mask="url(#mask-2)"></path>
                <path d="M2.05716797,6.7721681 L27.942832,6.7721681 L27.942832,2.09816101 L2.05716797,2.09816101 L2.05716797,6.7721681 Z M28.9714453,8.83391392 L1.02855469,8.83391392 C0.460429688,8.83391392 0,8.37232203 0,7.80283544 L0,1.06673013 C0,0.497302278 0.460429688,0.0357103797 1.02855469,0.0357103797 L28.9714453,0.0357103797 C29.5395703,0.0357103797 30,0.497302278 30,1.06673013 L30,7.80283544 C30,8.37267443 29.5395703,8.83391392 28.9714453,8.83391392 Z" id="Fill-3" fill="#FFFFFF" mask="url(#mask-2)"></path>
            </g>
            <path d="M9.24337964,2.05467435 C8.23947656,2.05467435 7.39125553,2.90149818 7.39125553,3.90381689 C7.39125553,4.94072253 8.18971222,5.75301796 9.20908973,5.75301796 L13.503183,5.75301796 C12.8532573,4.27537767 11.5012384,2.05467435 9.24337964,2.05467435 Z M14.9712015,7.80769231 L9.20908973,7.80769231 C7.07191974,7.80769231 5.33333333,6.05639976 5.33333333,3.90381689 C5.33333333,1.75123402 7.08739416,0 9.24337964,0 C14.1991217,0 15.8965602,6.25367987 15.9664882,6.52007531 C16.0470841,6.82796337 15.9805558,7.15598324 15.7857774,7.40804062 C15.5909404,7.660098 15.2898339,7.80769231 14.9712015,7.80769231 Z" id="Fill-5" fill="#FFFFFF"></path>
            <path d="M16.4927725,5.75301796 L20.7910245,5.75301796 C21.8106804,5.75301796 22.6091257,4.94072253 22.6091257,3.90381689 C22.6091257,2.90149818 21.7609168,2.05467435 20.7570281,2.05467435 C18.4858377,2.05467435 17.1379411,4.27537767 16.4927725,5.75301796 Z M20.7910245,7.80769231 L15.0289953,7.80769231 C14.7100158,7.80769231 14.4092068,7.660098 14.2143725,7.40804062 C14.0195969,7.15598324 13.9527179,6.82796337 14.0336644,6.52007531 C14.1035913,6.25367987 15.8010055,0 20.7566765,0 C22.9126896,0 24.6666667,1.75123402 24.6666667,3.90381689 C24.6666667,6.05639976 22.9281052,7.80769231 20.7910245,7.80769231 Z" id="Fill-6" fill="#FFFFFF"></path>
            <polygon id="Fill-7" fill="#FFFFFF" points="14 27.8846154 16 27.8846154 16 6.69230769 14 6.69230769"></polygon>
        </g>
    </g>
</svg>