<?xml version="1.0" encoding="UTF-8"?>
<svg width="70px" height="70px" viewBox="0 0 70 70" version="1.1" xmlns="http://www.w3.org/2000/svg" xmlns:xlink="http://www.w3.org/1999/xlink">
    <!-- Generator: Sketch 51.1 (57501) - http://www.bohemiancoding.com/sketch -->
    <title>Icons/edit</title>
    <desc>Created with Sketch.</desc>
    <defs></defs>
    <g id="Icons/edit" stroke="none" stroke-width="1" fill="none" fill-rule="evenodd">
        <path d="M22.3636364,50 C21.6105208,50 21,49.3894792 21,48.6363636 C21,47.8832481 21.6105208,47.2727273 22.3636364,47.2727273 L46.9090909,47.2727273 C47.6622065,47.2727273 48.2727273,47.8832481 48.2727273,48.6363636 C48.2727273,49.3894792 47.6622065,50 46.9090909,50 L22.3636364,50 Z M40.8897088,26.8181818 L37.3636364,23.2921094 L23.7272727,36.928473 L23.7272727,40.4545455 L27.2533451,40.4545455 L40.8897088,26.8181818 Z M43.7824183,27.7824183 L28.7824183,42.7824183 C28.5266869,43.0381498 28.1798407,43.1818182 27.8181818,43.1818182 L22.3636364,43.1818182 C21.6105208,43.1818182 21,42.5712974 21,41.8181818 L21,36.3636364 C21,36.0019775 21.1436684,35.6551313 21.3993998,35.3993998 L36.3993998,20.3993998 C36.931933,19.8668667 37.7953398,19.8668667 38.3278729,20.3993998 L43.7824183,25.8539453 C44.3149515,26.3864784 44.3149515,27.2498852 43.7824183,27.7824183 Z" id="Shape" fill="#000000" fill-rule="nonzero"></path>
    </g>
</svg>