<?xml version="1.0" encoding="UTF-8"?>
<svg width="70px" height="70px" viewBox="0 0 70 70" version="1.1" xmlns="http://www.w3.org/2000/svg" xmlns:xlink="http://www.w3.org/1999/xlink">
    <!-- Generator: Sketch 51.1 (57501) - http://www.bohemiancoding.com/sketch -->
    <title>Icons/email_dark</title>
    <desc>Created with Sketch.</desc>
    <defs>
        <polygon id="path-1" points="0.003515625 0.00746411483 29.9999414 0.00746411483 29.9999414 24 0.003515625 24"></polygon>
    </defs>
    <g id="Icons/email_dark" stroke="none" stroke-width="1" fill="none" fill-rule="evenodd">
        <rect id="Rectangle-2" x="0" y="0" width="70" height="70"></rect>
        <g id="email" transform="translate(20.000000, 23.000000)">
            <mask id="mask-2" fill="white">
                <use xlink:href="#path-1"></use>
            </mask>
            <g id="Clip-2"></g>
            <path d="M3.96955078,2.38243062 C3.11724609,2.38243062 2.42378906,3.06195215 2.42378906,3.89712919 L2.42378906,20.1103349 C2.42378906,20.945512 3.11724609,21.6250335 3.96955078,21.6250335 L26.0304492,21.6250335 C26.8827539,21.6250335 27.5762109,20.945512 27.5762109,20.1103349 L27.5762109,3.89712919 C27.5762109,3.06195215 26.8827539,2.38243062 26.0304492,2.38243062 L3.96955078,2.38243062 Z M26.0304492,24 L3.96955078,24 C1.78078125,24 0.0001171875,22.2550622 0.0001171875,20.1103349 L0.0001171875,3.89712919 C0.0001171875,1.75240191 1.78083984,0.00746411483 3.96955078,0.00746411483 L26.0304492,0.00746411483 C28.2192187,0.00746411483 29.9998828,1.75240191 29.9998828,3.89712919 L29.9998828,20.1103349 C29.9998828,22.2550622 28.2192187,24 26.0304492,24 Z" id="Fill-1" fill="#FFFFFF" mask="url(#mask-2)"></path>
            <path d="M15,14.5422775 C14.7568359,14.5422775 14.5137305,14.4707368 14.3050781,14.3275981 L0.51703125,4.86993301 C-0.0312890625,4.49385646 -0.164648438,3.75341627 0.219140625,3.21617225 C0.602988281,2.67887081 1.35855469,2.54813397 1.906875,2.92432536 L14.9999414,11.9052632 L28.0930664,2.92432536 C28.6415625,2.54819139 29.3970703,2.67887081 29.7808008,3.21617225 C30.1645898,3.75341627 30.0312305,4.49385646 29.4830273,4.86993301 L15.6949805,14.3275981 C15.4863281,14.4707368 15.2431055,14.5422775 15,14.5422775" id="Fill-3" fill="#FFFFFF" mask="url(#mask-2)"></path>
        </g>
    </g>
</svg>