<?xml version="1.0" encoding="UTF-8"?>
<svg width="19px" height="17px" viewBox="0 0 19 17" version="1.1" xmlns="http://www.w3.org/2000/svg" xmlns:xlink="http://www.w3.org/1999/xlink">
    <!-- Generator: Sketch 51.1 (57501) - http://www.bohemiancoding.com/sketch -->
    <title>Icons/employed</title>
    <desc>Created with Sketch.</desc>
    <defs>
        <polygon id="path-1" points="0.0022265625 0.00696781116 19 0.00696781116 19 13.5343348 0.0022265625 13.5343348"></polygon>
    </defs>
    <g id="Icons/employed" stroke="none" stroke-width="1" fill="none" fill-rule="evenodd">
        <g id="briefcase">
            <g id="Group-3" transform="translate(0.000000, 3.429185)">
                <mask id="mask-2" fill="white">
                    <use xlink:href="#path-1"></use>
                </mask>
                <g id="Clip-2"></g>
                <path d="M2.51401172,1.51599142 C1.97418164,1.51599142 1.5350293,1.94770386 1.5350293,2.47838841 L1.5350293,11.0629506 C1.5350293,11.5935987 1.97418164,12.0253476 2.51401172,12.0253476 L16.4859883,12.0253476 C17.0258184,12.0253476 17.4650078,11.5935987 17.4650078,11.0629506 L17.4650078,2.47838841 C17.4650078,1.94770386 17.0258184,1.51599142 16.4859883,1.51599142 L2.51401172,1.51599142 Z M16.4859883,13.5343348 L2.51401172,13.5343348 C1.12779102,13.5343348 0,12.4256867 0,11.0629506 L0,2.47838841 C0,1.11561588 1.12779102,0.00696781116 2.51401172,0.00696781116 L16.4859883,0.00696781116 C17.8722461,0.00696781116 19,1.11565236 19,2.47838841 L19,11.0629506 C19,12.4256867 17.872209,13.5343348 16.4859883,13.5343348 Z" id="Fill-1" fill="#260E0D" mask="url(#mask-2)"></path>
            </g>
            <path d="M12.9929941,16.9635193 C12.5690938,16.9635193 12.225498,16.6257446 12.225498,16.2090258 L12.225498,2.47375536 C12.225498,1.94307082 11.7863086,1.51132189 11.2465156,1.51132189 L7.75348438,1.51132189 C7.21369141,1.51132189 6.77450195,1.94307082 6.77450195,2.47375536 L6.77450195,16.2090258 C6.77450195,16.6257446 6.43086914,16.9635193 6.00700586,16.9635193 C5.58314258,16.9635193 5.23950977,16.6257446 5.23950977,16.2090258 L5.23950977,2.47375536 C5.23950977,1.11101931 6.36730078,0.00233476395 7.75348438,0.00233476395 L11.2465156,0.00233476395 C12.6327363,0.00233476395 13.7604902,1.11101931 13.7604902,2.47375536 L13.7604902,16.2090258 C13.7604902,16.6257446 13.4168945,16.9635193 12.9929941,16.9635193" id="Fill-4" fill="#260E0D"></path>
        </g>
    </g>
</svg>