<?xml version="1.0" encoding="UTF-8"?>
<svg width="19px" height="18px" viewBox="0 0 19 18" version="1.1" xmlns="http://www.w3.org/2000/svg" xmlns:xlink="http://www.w3.org/1999/xlink">
    <!-- Generator: Sketch 51.1 (57501) - http://www.bohemiancoding.com/sketch -->
    <title>Icons/facebook_logo_inactive</title>
    <desc>Created with Sketch.</desc>
    <defs></defs>
    <g id="Icons/facebook_logo_inactive" stroke="none" stroke-width="1" fill="none" fill-rule="evenodd">
        <path d="M8.71742187,16.6265859 L10.4692852,16.6265859 L10.4692852,11.0626719 C10.4692852,10.6833926 10.7767461,10.3759316 11.1560254,10.3759316 L12.9638027,10.3759316 L13.4017852,8.62406836 L11.1560254,8.62406836 C10.7767461,8.62406836 10.4692852,8.31660742 10.4692852,7.93732812 L10.4692852,5.59335352 C10.4692852,4.78389453 11.1278359,4.12531055 11.9373281,4.12531055 L13.5946289,4.12531055 L13.5946289,2.37344727 L11.9373281,2.37344727 C10.1618574,2.37344727 8.71742187,3.81788281 8.71742187,5.59335352 L8.71742187,7.93732812 C8.71742187,8.31660742 8.40996094,8.62406836 8.03071484,8.62406836 L6.37344727,8.62406836 L6.37344727,10.3759316 L8.03071484,10.3759316 C8.40996094,10.3759316 8.71742187,10.6833926 8.71742187,11.0626719 L8.71742187,16.6265859 Z M11.1560254,18 L8.03071484,18 C7.65146875,18 7.34397461,17.6925723 7.34397461,17.313293 L7.34397461,11.7493789 L5.68670703,11.7493789 C5.30746094,11.7493789 5,11.4419512 5,11.0626719 L5,7.93732812 C5,7.55808203 5.30746094,7.25062109 5.68670703,7.25062109 L7.34397461,7.25062109 L7.34397461,5.59335352 C7.34397461,3.06058594 9.40456055,1 11.9373281,1 L14.2813359,1 C14.6606152,1 14.968043,1.30746094 14.968043,1.68670703 L14.968043,4.81201758 C14.968043,5.19126367 14.6606152,5.49875781 14.2813359,5.49875781 L11.9373281,5.49875781 C11.8851992,5.49875781 11.8427324,5.54119141 11.8427324,5.59335352 L11.8427324,7.25062109 L14.2813359,7.25062109 C14.4928066,7.25062109 14.692457,7.34803906 14.8225801,7.51471875 C14.9527363,7.68139844 14.9988223,7.89874609 14.9475234,8.1039082 L14.1662207,11.2292187 C14.0897871,11.5349199 13.8150977,11.7493789 13.5,11.7493789 L11.8427324,11.7493789 L11.8427324,17.313293 C11.8427324,17.6925723 11.5353047,18 11.1560254,18 Z" id="facebook" fill="#260E0D"></path>
    </g>
</svg>