<?xml version="1.0" encoding="UTF-8"?>
<svg width="21px" height="21px" viewBox="0 0 21 21" version="1.1" xmlns="http://www.w3.org/2000/svg" xmlns:xlink="http://www.w3.org/1999/xlink">
    <!-- Generator: Sketch 51.1 (57501) - http://www.bohemiancoding.com/sketch -->
    <title>Buttons/gender</title>
    <desc>Created with Sketch.</desc>
    <defs>
        <linearGradient x1="91.1311345%" y1="93.8675885%" x2="20.130637%" y2="39.80221%" id="linearGradient-1">
            <stop stop-color="#FCC374" offset="0%"></stop>
            <stop stop-color="#FF6058" offset="100%"></stop>
        </linearGradient>
    </defs>
    <g id="Buttons/gender" stroke="none" stroke-width="1" fill="none" fill-rule="evenodd">
        <path d="M16.1680427,0.41015625 L16.1680427,0.875560547 C16.1680427,1.10208359 16.3516759,1.2857168 16.5781989,1.2857168 L17.6424819,1.2857168 L14.7660746,3.96850781 C13.7477692,2.94352734 12.3278292,2.30614453 10.7592361,2.30614453 C8.64919523,2.30614453 6.80798099,3.45917578 5.85193061,5.15816602 C5.77003586,5.15463867 5.68772413,5.15250586 5.60491202,5.15250586 C2.51434409,5.15250586 0,7.62570703 0,10.6657441 C0,13.4882754 2.16762572,15.8218184 4.9513385,16.141248 L4.9513385,17.8498359 L3.40473552,17.8498359 C3.17821248,17.8498359 2.99457927,18.0334691 2.99457927,18.2599922 L2.99457927,18.7253965 C2.99457927,18.9519195 3.17821248,19.1355527 3.40473552,19.1355527 L4.9514219,19.1355527 L4.9514219,20.5898438 C4.9514219,20.8163668 5.13505511,21 5.36157815,21 L5.84837098,21 C6.07489402,21 6.25852723,20.8163668 6.25852723,20.5898438 L6.25852723,19.1355117 L7.89061099,19.1355117 C8.11713403,19.1355117 8.30076724,18.9518785 8.30076724,18.7253555 L8.30076724,18.2599512 C8.30076724,18.0334281 8.11713403,17.8497949 7.89061099,17.8497949 L6.25852723,17.8497949 L6.25852723,16.141207 C8.0910683,15.9309199 9.65640897,14.8478613 10.5122592,13.3268789 C10.5941539,13.3304063 10.676424,13.3325391 10.7591944,13.3325391 C13.849804,13.3325391 16.3641481,10.8593379 16.3641481,7.8193418 C16.3641481,6.78628125 16.0735552,5.8188457 15.5689267,4.99156055 L18.6928947,2.07789258 L18.6928947,3.26459766 C18.6928947,3.4911207 18.8765279,3.67475391 19.1030509,3.67475391 L19.5898438,3.67475391 C19.8163668,3.67475391 20,3.4911207 20,3.26459766 L20,0.41015625 C20,0.183633208 19.8163668,1.97031717e-15 19.5898438,0 L16.5781989,5.55111512e-17 C16.3516759,9.7122759e-17 16.1680427,0.183633208 16.1680427,0.41015625 Z M5.60499541,14.8931836 C3.23517638,14.8931836 1.30718872,12.9967441 1.30718872,10.6656621 C1.30718872,8.42542969 3.08789926,6.58698633 5.33008089,6.44708203 C5.21536986,6.88594922 5.15432408,7.34573437 5.15432408,7.8193418 C5.15432408,10.2993105 6.82774581,12.4018535 9.12217496,13.0923926 C8.34384121,14.1806602 7.05750146,14.8931836 5.60499541,14.8931836 Z M9.70999083,11.9191406 C7.84571762,11.4573047 6.4614711,9.79444922 6.4614711,7.8193418 C6.4614711,7.38309961 6.52902177,6.96207422 6.65432408,6.56586328 C8.51859728,7.02769922 9.9028438,8.6905957 9.9028438,10.6657031 C9.9028438,11.1019453 9.83525144,11.5229297 9.70999083,11.9191406 Z M11.0341923,12.0378809 C11.1489033,11.5990137 11.2099491,11.1392695 11.2099491,10.6656621 C11.2099491,8.18569336 9.5365274,6.08315039 7.24213994,5.39257031 C8.02047369,4.30434375 9.30685514,3.5917793 10.7593195,3.5917793 C13.1291802,3.5917793 15.0571679,5.48821875 15.0571679,7.81930078 C15.0570845,10.0595332 13.2763739,11.8980176 11.0341923,12.0378809 Z" id="Shape" fill="url(#linearGradient-1)" fill-rule="nonzero"></path>
    </g>
</svg>