<?xml version="1.0" encoding="UTF-8"?>
<svg width="19px" height="17px" viewBox="0 0 19 17" version="1.1" xmlns="http://www.w3.org/2000/svg" xmlns:xlink="http://www.w3.org/1999/xlink">
    <!-- Generator: Sketch 51.1 (57501) - http://www.bohemiancoding.com/sketch -->
    <title>Icons/health</title>
    <desc>Created with Sketch.</desc>
    <defs>
        <polygon id="path-1" points="0.00478991597 0.0254174757 18.9682269 0.0254174757 18.9682269 16.9999175 0.00478991597 16.9999175"></polygon>
    </defs>
    <g id="Icons/health" stroke="none" stroke-width="1" fill="none" fill-rule="evenodd">
        <g id="pulse-(1)">
            <mask id="mask-2" fill="white">
                <use xlink:href="#path-1"></use>
            </mask>
            <g id="Clip-2"></g>
            <path d="M13.9057647,0.0254174757 C12.0078403,0.0254174757 10.3506891,1.1104466 9.48411345,2.71199515 C8.61745798,1.1104466 6.96038655,0.0254174757 5.06246218,0.0254174757 C2.27081933,0.0254174757 0,2.37282039 0,5.25861165 C0,6.94648058 0.497991597,8.61891748 1.48064286,10.2297087 C2.24966387,11.4908447 3.31613866,12.7160825 4.65084874,13.8720825 C6.90107143,15.8203981 9.12111765,16.8938738 9.21468067,16.9386845 C9.30010084,16.9796165 9.39206723,16.9999175 9.48411345,16.9999175 C9.57983193,16.9999175 9.67555042,16.9777184 9.76384454,16.933568 C9.85708824,16.8867767 12.0733025,15.7656019 14.3201723,13.7947573 C15.6529664,12.6255534 16.718563,11.3985825 17.4866261,10.1478447 C18.4695168,8.54670874 18.9682269,6.9016699 18.9682269,5.25861165 C18.9682269,2.37282039 16.6970084,0.0254174757 13.9057647,0.0254174757 Z M5.06246218,1.35034466 C7.14711345,1.35034466 8.84322269,3.10365534 8.84322269,5.25861165 C8.84322269,5.62452427 9.13013866,5.92103398 9.48411345,5.92103398 C9.8380084,5.92103398 10.1249244,5.62452427 10.1249244,5.25861165 C10.1249244,3.10365534 11.8210336,1.35034466 13.9057647,1.35034466 C15.990416,1.35034466 17.6865252,3.10365534 17.6865252,5.25861165 C17.6865252,6.22992233 17.4760084,7.15477184 17.1226723,8.02416505 L13.9671555,8.02416505 L13.1076849,5.35953883 C13.022584,5.09579126 12.787479,4.91498058 12.518605,4.9068932 C12.2510882,4.89657767 12.0047269,5.06484466 11.904937,5.32306311 L10.4242941,9.14921845 L10.0572269,8.39032524 C9.94123109,8.15083981 9.69742437,8.00576214 9.43852941,8.02573301 C9.18003361,8.04479612 8.95802101,8.22304854 8.87603361,8.47705825 L8.47871008,9.70914563 L7.07606303,5.35953883 C6.98872689,5.08902427 6.74396218,4.90656311 6.46822269,4.90656311 C6.1922437,4.90656311 5.94747899,5.08902427 5.86014286,5.35953883 L5.00107143,8.02416505 L1.82368067,8.02416505 C1.48655042,7.16442718 1.28170168,6.23924757 1.28170168,5.25861165 C1.28170168,3.10365534 2.97781092,1.35034466 5.06246218,1.35034466 Z M9.47756723,15.5954369 C8.82701681,15.2518058 7.12779412,14.2931214 5.45196218,12.8376408 C4.42596218,11.9462961 3.29434454,10.7628981 2.46888235,9.34900971 L5.46289916,9.34900971 C5.73887815,9.34900971 5.98364286,9.16663107 6.07097899,8.8961165 L6.46822269,7.66402913 L7.87094958,12.0137184 C7.95796639,12.2841505 8.20305042,12.4666117 8.47871008,12.4666117 C8.75468908,12.4666117 8.99945378,12.2841505 9.08678992,12.0137184 L9.60258403,10.4131602 L9.9160042,11.0611408 C10.0288866,11.2945194 10.2639916,11.4379466 10.516021,11.4269709 C10.7679706,11.4159951 10.9906218,11.2532573 11.0841849,11.0111311 L12.4450798,7.49419417 L12.8972479,8.8961165 C12.9842647,9.16663107 13.2293487,9.34900971 13.5050084,9.34900971 L16.4550378,9.34900971 C14.4368067,12.7018883 10.5409286,15.0093495 9.47756723,15.5954369 Z" id="Fill-1" fill="#260E0D" mask="url(#mask-2)"></path>
        </g>
    </g>
</svg>