<?xml version="1.0" encoding="UTF-8"?>
<svg width="19px" height="17px" viewBox="0 0 19 17" version="1.1" xmlns="http://www.w3.org/2000/svg" xmlns:xlink="http://www.w3.org/1999/xlink">
    <!-- Generator: Sketch 51.1 (57501) - http://www.bohemiancoding.com/sketch -->
    <title>Icons/heartbreak</title>
    <desc>Created with Sketch.</desc>
    <defs>
        <path d="M9.50289366,17 L9.49517364,17 L9.12808337,16.7723911 C9.12808337,16.7723911 8.71051686,16.5134979 8.52290698,16.3962219 C8.07264328,16.1147434 5.71781459,14.6013675 3.56918975,12.4450683 C1.25827443,10.125943 0.0582316874,7.94133018 0,5.94891442 L1.89926786e-13,5.60525231 C0.0376645796,3.99189899 0.552470103,2.60207728 1.49460679,1.57626359 C2.42816541,0.559804614 3.71549205,0 5.11946713,0 C8.81584561,0 11.3705317,4.66885588 11.4775677,4.86761465 L11.7630465,5.39817008 L9.3894011,7.95019118 L11.6926417,10.9258266 L9.35310388,13.4160374 L8.30864945,12.2817437 L9.68048404,10.8215192 L7.38162285,7.85155001 L9.88524046,5.15974734 C9.18152713,4.06838971 7.34194828,1.59613547 5.11946713,1.59613547 C2.97796812,1.59613547 1.48232215,3.32355309 1.48232215,5.79692462 C1.48232215,7.34768995 2.55424073,9.24310082 4.58220885,11.2782135 C6.61455639,13.3177953 8.84308708,14.7499677 9.26918975,15.0163627 C9.32920264,15.0538719 9.4129312,15.1059857 9.49884947,15.1594164 C9.58473063,15.1060256 9.66842208,15.0539118 9.72839786,15.0164026 C10.1545748,14.7499677 12.3832168,13.3177155 14.4155643,11.2782135 C16.4435696,9.24302102 17.5155253,7.34761014 17.5155253,5.79688472 C17.5155253,5.79321361 17.5154139,5.7896223 17.5154139,5.78595119 C17.5133355,4.62931162 17.183877,3.63639564 16.6142185,2.90787951 C16.6141071,2.9077598 16.6139958,2.90760019 16.6138844,2.90748048 C16.5949936,2.88337883 16.57588,2.85951661 16.5564695,2.83597361 C16.5561726,2.83561448 16.5558386,2.83525535 16.5555417,2.83489622 C16.5363168,2.81159264 16.5168692,2.78856838 16.4971618,2.76586336 C16.4963824,2.76502539 16.495603,2.76418741 16.4948607,2.76330954 C16.4755245,2.74112326 16.4560027,2.71913649 16.436221,2.69750886 C16.4354045,2.69659108 16.4345138,2.6957132 16.4336973,2.69479542 C16.4139528,2.6732476 16.3939856,2.65193919 16.3737586,2.63095001 C16.3728308,2.63003223 16.371903,2.62911445 16.3710122,2.62819667 C16.3508595,2.6073272 16.330484,2.58669715 16.3098859,2.56638633 C16.3080302,2.56455077 16.3061003,2.56275512 16.3042075,2.56091956 C16.284463,2.54156642 16.2645701,2.52241279 16.2444173,2.50357839 C16.2422647,2.50154332 16.2400008,2.49958806 16.2378111,2.49755298 C16.217881,2.47903781 16.1978025,2.46068225 16.1775013,2.44268583 C16.174792,2.44029162 16.1720084,2.43801713 16.1692991,2.43562293 C16.1494062,2.41806544 16.1293648,2.40070746 16.1090636,2.38366872 C16.1062058,2.38127451 16.1032738,2.37900002 16.1004161,2.37660582 C16.0801891,2.35972669 16.0598137,2.34300717 16.0392155,2.32664678 C16.0358382,2.32393335 16.0323495,2.32137953 16.0289721,2.318706 C16.0087823,2.30278455 15.9884811,2.28698281 15.9679201,2.2715402 C15.9642458,2.26878687 15.9604602,2.26615324 15.956786,2.26339991 C15.9363734,2.24823662 15.9158866,2.23315314 15.8951772,2.21842879 C15.8911689,2.21555575 15.8870864,2.21288222 15.8830781,2.21004908 C15.8625542,2.19560406 15.8419932,2.18127874 15.8211353,2.16731255 C15.8164218,2.16416019 15.8115971,2.16116743 15.8068836,2.15805497 C15.7865824,2.14460753 15.7662441,2.1312798 15.7456831,2.11827129 C15.7403016,2.1148795 15.7348459,2.11168723 15.7294644,2.10833535 C15.7093859,2.09580568 15.6892702,2.08335583 15.6688948,2.0712651 C15.6630679,2.06779351 15.6570926,2.06452143 15.6512287,2.06108974 C15.6311872,2.04931824 15.6111087,2.03762655 15.5907704,2.02629398 C15.5844982,2.02282239 15.5781146,2.01955031 15.5718053,2.01607872 C15.5517268,2.00502548 15.5316482,1.99405205 15.5113099,1.98343775 C15.5045923,1.97992625 15.4976892,1.97661427 15.4909345,1.97314267 C15.4708931,1.9628476 15.4508517,1.95259243 15.4305505,1.94269639 C15.4234246,1.93922479 15.4161874,1.93599262 15.4090616,1.93256093 C15.3889831,1.92294421 15.3688674,1.91328759 15.3485291,1.90406991 C15.3407352,1.90055841 15.33283,1.89724643 15.324999,1.89377484 C15.3051432,1.88495619 15.2853245,1.87613754 15.265283,1.86767802 C15.2565242,1.86396701 15.2475798,1.86053532 15.2387467,1.85690411 C15.2194847,1.84896333 15.2002598,1.84098266 15.1807751,1.83340101 C15.1713111,1.8297299 15.1616986,1.82629821 15.1521975,1.8227069 C15.1331953,1.81548439 15.1142302,1.80822198 15.0950424,1.80135859 C15.0845021,1.79756777 15.0738133,1.79409618 15.0631988,1.79042506 C15.0448646,1.78408043 15.0266047,1.77761608 15.008122,1.77155076 C14.997322,1.76799936 14.9863734,1.76476719 14.9754991,1.7613355 C14.9570164,1.7554697 14.9385709,1.74952409 14.9199398,1.74397752 C14.908583,1.74058573 14.8971149,1.73755308 14.885721,1.734281 C14.867461,1.72905366 14.8492011,1.7236667 14.8307556,1.71871868 C14.8183596,1.71536679 14.805778,1.71237404 14.7933078,1.70918177 C14.7756417,1.70463278 14.7580127,1.69996409 14.7402352,1.69569442 C14.7281361,1.69278148 14.7158515,1.69022766 14.7036782,1.68743442 C14.6854182,1.68328447 14.6671583,1.67897491 14.6487499,1.67506437 C14.6356487,1.67231104 14.622362,1.66987693 14.6091866,1.66724331 C14.5915205,1.66369191 14.5738915,1.6600208 14.556114,1.65674872 C14.5428273,1.65431461 14.529355,1.65223964 14.5159941,1.64992524 C14.4981424,1.64685268 14.4803278,1.6436205 14.4623647,1.64082727 C14.4482615,1.63859268 14.4340098,1.63675712 14.4198324,1.63472205 C14.4024261,1.63220814 14.385094,1.62953461 14.3675763,1.62726012 C14.3519514,1.62522504 14.3361038,1.623589 14.3203676,1.62175345 C14.304186,1.61987799 14.2880787,1.61780301 14.2717858,1.61612707 C14.2527093,1.61417181 14.2334844,1.61265548 14.2143337,1.61097953 C14.2011955,1.60982234 14.1881685,1.60842572 14.174956,1.60742813 C14.1548775,1.6058719 14.1346505,1.60479451 14.1144978,1.6035575 C14.1019905,1.60279934 14.0895574,1.60180176 14.0770129,1.6011633 C14.0499199,1.59976668 14.0226784,1.5988489 13.9953999,1.59805084 C13.9896472,1.59789122 13.9839317,1.597572 13.9781791,1.59741238 C13.9450365,1.59657441 13.9117455,1.59613547 13.8783061,1.59613547 C13.012146,1.59613547 12.2860159,1.86735879 11.7069305,2.40501703 C11.4545943,2.0877053 11.1726784,1.75527018 10.8637438,1.42411197 C10.804733,1.36086511 10.7455366,1.29885524 10.6862289,1.23748383 C11.5343517,0.42273648 12.6126909,0 13.8783803,0 C14.2732332,0 14.6588819,0.0442927594 15.0300191,0.130563882 C15.1124858,0.149757411 15.1942474,0.170986013 15.2752295,0.194289591 C15.3157206,0.20594138 15.3560261,0.218111913 15.3961089,0.230761286 C15.4763117,0.256099937 15.5556979,0.28347366 15.6342306,0.312842553 C15.6734969,0.327526999 15.7125405,0.34273019 15.7513615,0.358412221 C16.4114291,0.625166362 17.0072157,1.03629096 17.5032035,1.57630349 C17.5933527,1.67446582 17.6794937,1.77598004 17.7617748,1.88068653 C17.7631109,1.88240237 17.7645212,1.88403841 17.7658573,1.88575426 C17.7902039,1.9168789 17.8141052,1.94836267 17.8377837,1.98004596 C17.8411611,1.98451514 17.8446498,1.98890451 17.84799,1.99341359 C17.869516,2.02238345 17.8905594,2.05175235 17.9114916,2.08120104 C17.9167617,2.08862307 17.9222174,2.09588549 17.9274505,2.10330752 C17.948828,2.1337139 17.969723,2.16451932 17.9905067,2.19540454 C17.9949603,2.2020684 17.9995996,2.20857266 18.0040532,2.21523652 C18.02454,2.24600203 18.0445443,2.27720648 18.0644372,2.30845083 C18.068928,2.31547383 18.0735672,2.32233721 18.0779837,2.32936021 C18.0975056,2.36032524 18.1164707,2.3916893 18.1353987,2.42313317 C18.1399266,2.430635 18.14464,2.43801713 18.1491308,2.44555887 C18.1687639,2.47859887 18.1879146,2.51199801 18.2069168,2.54551685 C18.2103684,2.55162207 18.2139684,2.55760758 18.21742,2.5637128 C18.2367191,2.59806961 18.2554987,2.63278556 18.2740927,2.66766112 C18.2769875,2.67312789 18.280068,2.67851484 18.2829628,2.68398161 C18.3015197,2.71901678 18.319557,2.75441108 18.3373716,2.7899251 C18.340118,2.79539186 18.3430129,2.80073892 18.3457593,2.80624558 C18.3637965,2.84247786 18.3813142,2.87906927 18.3986092,2.91578038 C18.4009474,2.9206885 18.4033969,2.92551681 18.4056979,2.93046483 C18.4234383,2.96841295 18.4406962,3.0067202 18.4576571,3.04518706 C18.4593644,3.04901779 18.4611458,3.05276871 18.462816,3.05659943 C18.4803707,3.09670234 18.4974802,3.13716437 18.5142185,3.17786583 C18.5151463,3.18010042 18.5161484,3.1822951 18.5170762,3.1845696 C18.5338887,3.22559028 18.5502188,3.26693019 18.5661777,3.30854942 C18.5669571,3.31054459 18.5677736,3.31253976 18.568553,3.31453493 C18.5846974,3.35675271 18.6003223,3.39924982 18.615576,3.44202625 C18.6160956,3.44346277 18.6166523,3.44489929 18.6171719,3.44633581 C18.6327597,3.49018963 18.647865,3.53436268 18.6625249,3.57881506 C18.6626362,3.57917419 18.6627847,3.57957322 18.662896,3.57993235 C18.8846134,4.25282316 18.9988124,4.99343002 18.9998887,5.78559206 C18.9998887,5.78575167 18.9998887,5.78587138 18.9998887,5.78599109 C18.9998887,5.78966221 19,5.79325351 19,5.79692462 C19,7.83004209 17.7983689,10.0668264 15.4284721,12.4450284 C13.2798101,14.6012877 10.9248701,16.1147035 10.4746064,16.396182 C10.287145,16.5134181 9.86991249,16.7722714 9.86991249,16.7722714 L9.50289366,17 Z" id="path-1"></path>
    </defs>
    <g id="Icons/heartbreak" stroke="none" stroke-width="1" fill="none" fill-rule="evenodd">
        <mask id="mask-2" fill="white">
            <use xlink:href="#path-1"></use>
        </mask>
        <use id="Clip-2" fill="#260E0D" xlink:href="#path-1"></use>
    </g>
</svg>