<?xml version="1.0" encoding="UTF-8"?>
<svg width="19px" height="17px" viewBox="0 0 19 17" version="1.1" xmlns="http://www.w3.org/2000/svg" xmlns:xlink="http://www.w3.org/1999/xlink">
    <!-- Generator: Sketch 51.1 (57501) - http://www.bohemiancoding.com/sketch -->
    <title>Icons/help_icon</title>
    <desc>Created with Sketch.</desc>
    <defs>
        <polygon id="path-1" points="0.0463636364 0.0309090909 17 0.0309090909 17 17 0.0463636364 17"></polygon>
    </defs>
    <g id="Icons/help_icon" stroke="none" stroke-width="1" fill="none" fill-rule="evenodd">
        <g id="help-circle" transform="translate(1.000000, 0.000000)">
            <mask id="mask-2" fill="white">
                <use xlink:href="#path-1"></use>
            </mask>
            <g id="Clip-2"></g>
            <path d="M8.5,1.54545455 C4.66572727,1.54545455 1.54545455,4.66572727 1.54545455,8.5 C1.54545455,12.3350455 4.66572727,15.4545455 8.5,15.4545455 C12.3350455,15.4545455 15.4545455,12.3350455 15.4545455,8.5 C15.4545455,4.66572727 12.3350455,1.54545455 8.5,1.54545455 Z M8.5,17 C3.81340909,17 0,13.1865909 0,8.5 C0,3.81340909 3.81340909,0 8.5,0 C13.1865909,0 17,3.81340909 17,8.5 C17,13.1865909 13.1865909,17 8.5,17 Z" id="Fill-1" fill="#260E0D" mask="url(#mask-2)"></path>
            <path d="M8.43818182,10.0454545 C8.11440909,10.0454545 7.81304545,9.84068182 7.70486364,9.51690909 C7.56963636,9.112 7.78909091,8.67463636 8.194,8.53940909 C8.65686364,8.38254545 9.98363636,7.75354545 9.98363636,6.95454545 C9.98440909,6.29772727 9.57022727,5.71045455 8.95127273,5.49331818 C8.14763636,5.2105 7.26363636,5.63472727 6.98004545,6.43836364 C6.83940909,6.84095455 6.39818182,7.05268182 5.99481818,6.9105 C5.59222727,6.76909091 5.3805,6.32786364 5.52190909,5.92527273 C6.08831818,4.31722727 7.85709091,3.47109091 9.46359091,4.03518182 C10.7015,4.47022727 11.5314091,5.644 11.5290909,6.95531818 C11.5290909,8.99763636 8.97368182,9.90868182 8.68236364,10.0052727 C8.60122727,10.0323182 8.51854545,10.0454545 8.43818182,10.0454545" id="Fill-4" fill="#260E0D" mask="url(#mask-2)"></path>
            <path d="M8.5,13.1363636 C8.29136364,13.1363636 8.09818182,13.0583182 7.95136364,12.9122727 C7.80454545,12.7654545 7.72727273,12.5715 7.72727273,12.3636364 C7.72727273,12.2631818 7.75045455,12.1619545 7.78909091,12.07 C7.82772727,11.9772727 7.88181818,11.8922727 7.95136364,11.815 C7.99,11.7840909 8.02863636,11.7446818 8.06727273,11.7222727 C8.11363636,11.6913636 8.16,11.6681818 8.20636364,11.6527273 C8.25272727,11.6295455 8.29909091,11.6133182 8.35318182,11.6055909 C8.60045455,11.5515 8.87090909,11.6372727 9.04863636,11.815 C9.11818182,11.8922727 9.17227273,11.9687727 9.21090909,12.07 C9.25727273,12.1619545 9.27272727,12.2631818 9.27272727,12.3636364 C9.27272727,12.5715 9.19545455,12.7654545 9.04863636,12.9122727 C8.90181818,13.0583182 8.70863636,13.1363636 8.5,13.1363636" id="Fill-5" fill="#260E0D" mask="url(#mask-2)"></path>
        </g>
    </g>
</svg>