<?xml version="1.0" encoding="UTF-8"?>
<svg width="19px" height="18px" viewBox="0 0 19 18" version="1.1" xmlns="http://www.w3.org/2000/svg" xmlns:xlink="http://www.w3.org/1999/xlink">
    <!-- Generator: Sketch 51.1 (57501) - http://www.bohemiancoding.com/sketch -->
    <title>Icons/instagram_logo_active</title>
    <desc>Created with Sketch.</desc>
    <defs>
        <polygon id="path-1" points="0.0075 0.09375 16.90625 0.09375 16.90625 17 0.0075 17"></polygon>
        <linearGradient x1="91.1311345%" y1="93.8675885%" x2="20.130637%" y2="39.80221%" id="linearGradient-3">
            <stop stop-color="#FCC374" offset="0%"></stop>
            <stop stop-color="#FF6058" offset="100%"></stop>
        </linearGradient>
    </defs>
    <g id="Icons/instagram_logo_active" stroke="none" stroke-width="1" fill="none" fill-rule="evenodd">
        <g id="instagram-logo" transform="translate(1.000000, 1.000000)">
            <g id="Group-3">
                <mask id="mask-2" fill="white">
                    <use xlink:href="#path-1"></use>
                </mask>
                <g id="Clip-2"></g>
                <path d="M12.24075,0.09375 L4.6655,0.09375 C2.09275,0.09375 0,2.186625 0,4.759375 L0,12.3345 C0,14.90725 2.09275,17 4.6655,17 L12.24075,17 C14.8135,17 16.90625,14.90675 16.90625,12.3345 L16.90625,4.759375 C16.90625,2.186625 14.8135,0.09375 12.24075,0.09375 Z M15.40625,12.3345 C15.40625,14.080125 13.986375,15.5 12.24075,15.5 L4.6655,15.5 C2.919875,15.5 1.5,14.080125 1.5,12.3345 L1.5,4.759375 C1.5,3.01375 2.919875,1.59375 4.6655,1.59375 L12.24075,1.59375 C13.986375,1.59375 15.40625,3.01375 15.40625,4.759375 L15.40625,12.3345 Z" id="Fill-1" fill="url(#linearGradient-3)" mask="url(#mask-2)"></path>
                <path d="M8.453125,4.191 C6.05075,4.191 4.096625,6.145125 4.096625,8.546875 C4.096625,10.94925 6.05075,12.903375 8.453125,12.903375 C10.855,12.903375 12.809625,10.94925 12.809625,8.546875 C12.809625,6.145125 10.855,4.191 8.453125,4.191 Z M8.453125,11.402875 C6.878375,11.402875 5.596625,10.122125 5.596625,8.546875 C5.596625,6.97225 6.877875,5.6905 8.453125,5.6905 C10.028375,5.6905 11.309625,6.97225 11.309625,8.546875 C11.309625,10.122125 10.027875,11.402875 8.453125,11.402875 Z" id="Fill-4" fill="url(#linearGradient-3)" mask="url(#mask-2)"></path>
                <path d="M12.99225,2.919 C12.703125,2.919 12.419375,3.03575 12.215375,3.24075 C12.00975,3.444875 11.892125,3.729 11.892125,4.019125 C11.892125,4.308125 12.01025,4.591875 12.215375,4.796875 C12.419,5.001 12.703125,5.11875 12.99225,5.11875 C13.28225,5.11875 13.565,5.001 13.77,4.796875 C13.975125,4.591875 14.09225,4.307625 14.09225,4.019125 C14.09225,3.729 13.975125,3.444875 13.77,3.24075 C13.565875,3.03575 13.28225,2.919 12.99225,2.919 Z" id="Fill-5" fill="url(#linearGradient-3)" mask="url(#mask-2)"></path>
            </g>
        </g>
    </g>
</svg>