<?xml version="1.0" encoding="UTF-8"?>
<svg width="19px" height="17px" viewBox="0 0 19 17" version="1.1" xmlns="http://www.w3.org/2000/svg" xmlns:xlink="http://www.w3.org/1999/xlink">
    <!-- Generator: Sketch 51.1 (57501) - http://www.bohemiancoding.com/sketch -->
    <title>Icons/kids</title>
    <desc>Created with Sketch.</desc>
    <defs></defs>
    <g id="Icons/kids" stroke="none" stroke-width="1" fill="none" fill-rule="evenodd">
        <g id="duck" transform="translate(1.000000, 0.500000)" fill="#260E0D">
            <g id="Group-4">
                <path d="M10.9116426,2.55047228 C11.3046603,2.55047228 11.6232852,2.86570639 11.6232852,3.25459412 C11.6232852,3.64352428 11.3046603,3.95875839 10.9116426,3.95875839 C10.5186248,3.95875839 10.2,3.64352428 10.2,3.25459412 C10.2,2.86570639 10.5186248,2.55047228 10.9116426,2.55047228" id="Fill-1"></path>
                <path d="M15.895264,3.56931417 C15.6776175,4.29864476 15.0186683,4.70087885 13.9345531,4.76747433 C13.8095101,4.43094867 13.8180765,4.0561807 13.9661624,3.72044353 L14.1172367,3.37800411 L15.8379886,3.49516222 C15.8636214,3.49690349 15.8787288,3.51109651 15.8868636,3.5227269 C15.9025355,3.54493634 15.897057,3.56330185 15.895264,3.56931417 Z M14.0220433,9.99158932 C14.095555,11.267384 13.5089554,12.5366078 12.412721,13.473807 C11.3618753,14.3722382 9.71118197,14.8954086 7.88384798,14.9092074 C6.02825814,14.9225133 4.29691439,14.3996386 3.13477181,13.4725914 C2.24572494,12.7634333 1.56207259,11.5609692 1.25919369,10.1734702 C1.04778939,9.20492813 1.0245472,7.95039014 1.38925033,7.42662834 C1.46385775,7.31952361 1.5228265,7.23489117 1.79110775,7.38973306 C2.82053744,7.98386858 3.68441634,8.42089528 4.65623861,8.42082957 C5.24127767,8.42073101 5.86566244,8.26227515 6.58836166,7.88425462 C6.93785775,7.70168378 7.25800228,7.54878029 7.56722298,7.41687064 C7.86133627,7.29140041 8.05959213,7.02859959 8.09764291,6.71392197 C8.13562728,6.3996386 8.00580306,6.09829979 7.75033822,5.90797536 C7.37590658,5.62897741 6.88572884,5.10997947 6.9511058,3.82899384 C6.98822689,3.1036386 7.32225033,2.42562628 7.89161752,1.91986858 C8.53443002,1.34892813 9.42377572,1.05094045 10.3323792,1.10258727 C11.5528597,1.17171253 12.6400628,1.85856263 13.1409984,2.86491992 L12.956057,3.28410678 C12.6548714,3.96691581 12.6787777,4.74073101 13.0118714,5.39916222 C12.9340765,5.6733963 12.7547132,5.94289938 12.5282347,6.11485832 C12.2947835,6.29210678 12.1642953,6.57071047 12.1790374,6.86009035 C12.1937464,7.14887885 12.3514945,7.41240246 12.6007503,7.56494456 C12.6563324,7.59898152 12.7116156,7.63449692 12.764641,7.6702423 C13.5076605,8.17172895 13.96593,9.01782341 14.0220433,9.99158932 Z M16.7918148,2.90020534 C16.5886781,2.61105544 16.2685999,2.43137577 15.9136917,2.40716222 L14.0780238,2.2821848 C13.3827171,0.982702259 11.9693929,0.103030801 10.3954984,0.0138644764 C9.19630111,-0.0540780287 8.01526595,0.344772074 7.15547103,1.10836961 C6.36600033,1.809577 5.90255111,2.75623819 5.85052181,3.77393018 C5.78886361,4.98105955 6.10545541,5.89453799 6.81696517,6.55444764 C6.57899838,6.66352361 6.33346127,6.78429569 6.07368002,6.92008214 C4.67938119,7.64928131 3.94413119,7.36979055 2.34659603,6.44780287 C1.6364808,6.03778234 0.921949547,6.17586858 0.481775719,6.80795072 C-0.0275602182,7.53948255 -0.142409828,8.91725667 0.18205111,10.4037125 C0.390765954,11.3598357 0.962025719,13.1402053 2.44318392,14.321577 C3.78283041,15.3902259 5.73580502,16 7.81216244,16 C7.83889095,16 7.86565267,15.9999014 7.89241439,15.9996715 C9.97740463,15.9839014 11.88768,15.3640411 13.1333949,14.2989405 C13.8245179,13.7080903 14.3499574,13.0100041 14.6952035,12.2239671 C15.0188011,11.4872444 15.166555,10.6937823 15.1225277,9.92946201 C15.0475882,8.62902669 14.4272542,7.48773717 13.4182777,6.7913922 C13.686891,6.52974127 13.8959046,6.20382752 14.0220101,5.85422587 C16.0876761,5.71715811 16.7442679,4.57573717 16.9524183,3.87807803 C17.0520277,3.54372074 16.993557,3.18731828 16.7918148,2.90020534 Z" id="Fill-3" stroke="#260E0D" stroke-width="0.3"></path>
            </g>
            <path d="M7.21530469,12.4984641 C6.01069531,12.4984641 4.95403906,11.8915483 4.95403906,11.1996386 C4.95403906,10.5076961 6.01069531,9.90074743 7.21530469,9.90074743 C8.41988086,9.90074743 9.47657031,10.5076961 9.47657031,11.1996386 C9.47657031,11.8915483 8.41988086,12.4984641 7.21530469,12.4984641 Z M7.21530469,8.8101848 C5.32926758,8.8101848 3.85189453,9.85974538 3.85189453,11.1996057 C3.85189453,12.5394333 5.32926758,13.588961 7.21530469,13.588961 C9.10130859,13.588961 10.5786816,12.5394333 10.5786816,11.1996057 C10.5786816,9.85974538 9.10130859,8.8101848 7.21530469,8.8101848 Z" id="Fill-5" stroke="#260E0D" stroke-width="0.3"></path>
        </g>
    </g>
</svg>