<?xml version="1.0" encoding="UTF-8"?>
<svg width="21px" height="21px" viewBox="0 0 21 21" version="1.1" xmlns="http://www.w3.org/2000/svg" xmlns:xlink="http://www.w3.org/1999/xlink">
    <!-- Generator: Sketch 51.1 (57501) - http://www.bohemiancoding.com/sketch -->
    <title>Buttons/location_light_btn</title>
    <desc>Created with Sketch.</desc>
    <defs>
        <linearGradient x1="91.1311345%" y1="93.8675885%" x2="20.130637%" y2="39.80221%" id="linearGradient-1">
            <stop stop-color="#FCC374" offset="0%"></stop>
            <stop stop-color="#FF6058" offset="100%"></stop>
        </linearGradient>
    </defs>
    <g id="Buttons/location_light_btn" stroke="none" stroke-width="1" fill="none" fill-rule="evenodd">
        <path d="M10.4886534,1.69661133 C6.71608665,1.69661133 3.64685012,4.85858789 3.64685012,8.74514648 C3.64685012,13.5244512 8.88922014,17.8892109 10.4886932,19.1093027 C12.0875293,17.8897031 17.3304965,13.5248203 17.3304965,8.74514648 C17.3304567,4.85858789 14.26126,1.69661133 10.4886534,1.69661133 Z M10.4886534,21 C10.3294426,21 10.170192,20.9525039 10.0319227,20.8575117 C9.95050585,20.8016484 8.01588993,19.4639238 6.05830211,17.3350488 C4.89672834,16.0719316 3.96809836,14.7899473 3.29825059,13.5247793 C2.43682436,11.8977715 2,10.2896719 2,8.74514648 C2,6.40922461 2.88296487,4.213125 4.48625995,2.56138477 C6.08959485,0.909644531 8.22128337,0 10.4886534,0 C12.7560632,0 14.8877518,0.909644531 16.4910468,2.56138477 C18.0943817,4.213125 18.9773466,6.40922461 18.9773466,8.74514648 C18.9773466,10.2896719 18.5405222,11.8977715 17.679096,13.5247793 C17.0092482,14.7899883 16.0806183,16.0719727 14.9190445,17.3350488 C12.9614567,19.4639238 11.0268407,20.8016074 10.9454239,20.8575117 C10.8071148,20.9525039 10.647904,21 10.4886534,21 Z M10.4886534,6.96113086 C11.4435199,6.96113086 12.2203443,7.76142773 12.2203443,8.74510547 C12.2203443,9.72882422 11.4435199,10.5291211 10.4886534,10.5291211 C9.5338267,10.5291211 8.75700234,9.72882422 8.75700234,8.74510547 C8.75700234,7.76142773 9.5338267,6.96113086 10.4886534,6.96113086 Z M10.4886534,12.2256914 C12.3516066,12.2256914 13.8671944,10.6643086 13.8671546,8.74510547 C13.8671546,6.82594336 12.3515667,5.26456055 10.4886534,5.26456055 C8.62577986,5.26456055 7.11019204,6.82594336 7.11019204,8.74510547 C7.11019204,10.6643086 8.62577986,12.2256914 10.4886534,12.2256914 Z" id="location-pin" fill="url(#linearGradient-1)"></path>
    </g>
</svg>