<?xml version="1.0" encoding="UTF-8"?>
<svg width="19px" height="17px" viewBox="0 0 19 17" version="1.1" xmlns="http://www.w3.org/2000/svg" xmlns:xlink="http://www.w3.org/1999/xlink">
    <!-- Generator: Sketch 51.1 (57501) - http://www.bohemiancoding.com/sketch -->
    <title>Icons/married</title>
    <desc>Created with Sketch.</desc>
    <defs>
        <polygon id="path-1" points="0.00222707424 0.0259825328 19.0043668 0.0259825328 19.0043668 17 0.00222707424 17"></polygon>
    </defs>
    <g id="Icons/married" stroke="none" stroke-width="1" fill="none" fill-rule="evenodd">
        <g id="married">
            <mask id="mask-2" fill="white">
                <use xlink:href="#path-1"></use>
            </mask>
            <g id="Clip-2"></g>
            <path d="M12.3041026,15.5110524 C11.8828886,15.5110524 11.4733668,15.4604607 11.0808821,15.3656987 C12.5008275,14.1361681 13.4005655,12.3210655 13.4005655,10.2997358 C13.4005655,8.27840611 12.5008275,6.46330349 11.080845,5.23377293 C11.4733297,5.13901092 11.8828515,5.08841921 12.3040655,5.08841921 C15.1775852,5.08841921 17.5153821,7.42621616 17.5153821,10.2997358 C17.5153821,13.1732555 15.1776223,15.5110524 12.3041026,15.5110524 Z M11.9116179,10.2997358 C11.9116179,12.1426397 10.9499672,13.7651747 9.50218341,14.6920087 C8.05439956,13.7651747 7.09274891,12.1426397 7.09274891,10.2997358 C7.09274891,8.45683188 8.05439956,6.83433406 9.50218341,5.9075 C10.9499672,6.83429694 11.9116179,8.45683188 11.9116179,10.2997358 Z M6.70026419,15.5110524 C3.82674454,15.5110524 1.4889476,13.1732555 1.4889476,10.2997358 C1.4889476,7.42621616 3.82674454,5.08841921 6.70026419,5.08841921 C7.12147817,5.08841921 7.531,5.13901092 7.92348472,5.23377293 C6.50350218,6.46330349 5.60376419,8.27840611 5.60376419,10.2997358 C5.60376419,12.3210655 6.50350218,14.1361681 7.92348472,15.3656987 C7.531,15.4604607 7.12147817,15.5110524 6.70026419,15.5110524 Z M6.70026419,1.51493013 C7.06973581,1.51493013 7.37031659,1.81551092 7.37031659,2.18494541 C7.37031659,2.60263319 7.01973799,3.05383843 6.69915066,3.37045415 C6.36950655,3.043 6.03024891,2.58908515 6.03024891,2.18494541 C6.03024891,1.81551092 6.33082969,1.51493013 6.70026419,1.51493013 Z M12.3041026,3.59947162 C11.3042948,3.59947162 10.3551528,3.81995197 9.50218341,4.21425546 C9.11719651,4.03627511 8.71257424,3.89389083 8.29254803,3.79111135 C8.66847817,3.26129039 8.85926419,2.72278384 8.85926419,2.18494541 C8.85926419,0.9945 7.89074672,0.0259825328 6.70026419,0.0259825328 C5.50981878,0.0259825328 4.54130131,0.9945 4.54130131,2.18494541 C4.54130131,2.79839301 4.79362882,3.34684716 5.10671834,3.79144541 C2.17900655,4.50841485 0,7.15417904 0,10.2997358 C0,13.9942664 3.00573362,17 6.70026419,17 C7.70007205,17 8.64921397,16.7795568 9.50218341,16.3852162 C10.3551528,16.7795568 11.3042948,17 12.3041026,17 C15.9986332,17 19.0043668,13.9942664 19.0043668,10.2997358 C19.0043668,6.60520524 15.9986332,3.59947162 12.3041026,3.59947162 Z" id="Fill-1" fill="#260E0D" mask="url(#mask-2)"></path>
        </g>
    </g>
</svg>