<?xml version="1.0" encoding="UTF-8"?>
<svg width="19px" height="18px" viewBox="0 0 19 18" version="1.1" xmlns="http://www.w3.org/2000/svg" xmlns:xlink="http://www.w3.org/1999/xlink">
    <!-- Generator: Sketch 51.1 (57501) - http://www.bohemiancoding.com/sketch -->
    <title>Icons/NO</title>
    <desc>Created with Sketch.</desc>
    <defs></defs>
    <g id="Icons/NO" stroke="none" stroke-width="1" fill="none" fill-rule="evenodd">
        <path d="M8.98958333,15.3263889 L7.18402778,15.3263889 L4.77083333,7.27083333 L4.73611111,7.27083333 L4.73611111,15.3263889 L3,15.3263889 L3,3.17361111 L5.04861111,3.17361111 L7.21875,10.4131944 L7.25347222,10.4131944 L7.25347222,3.17361111 L8.98958333,3.17361111 L8.98958333,15.3263889 Z M13.7589286,3 C15.5992063,3 16.7276786,4.16319444 16.7276786,6.07291667 L16.7276786,12.4270833 C16.7276786,14.3368056 15.5992063,15.5 13.7589286,15.5 C11.9186508,15.5 10.7901786,14.3368056 10.7901786,12.4270833 L10.7901786,6.07291667 C10.7901786,4.16319444 11.9186508,3 13.7589286,3 Z M13.7589286,4.70138889 C13.0297619,4.70138889 12.6304563,5.1875 12.6304563,6.09027778 L12.6304563,12.4097222 C12.6304563,13.3125 13.0297619,13.7986111 13.7589286,13.7986111 C14.4880952,13.7986111 14.8874008,13.3125 14.8874008,12.4097222 L14.8874008,6.09027778 C14.8874008,5.1875 14.4880952,4.70138889 13.7589286,4.70138889 Z" id="NO" fill="#FF786B"></path>
    </g>
</svg>