<?xml version="1.0" encoding="UTF-8"?>
<svg width="70px" height="70px" viewBox="0 0 70 70" version="1.1" xmlns="http://www.w3.org/2000/svg" xmlns:xlink="http://www.w3.org/1999/xlink">
    <!-- Generator: Sketch 51.1 (57501) - http://www.bohemiancoding.com/sketch -->
    <title>Icons/notification_dark</title>
    <desc>Created with Sketch.</desc>
    <defs>
        <polygon id="path-1" points="0.003515625 0.00568359375 30 0.00568359375 30 23.1116016 0.003515625 23.1116016"></polygon>
    </defs>
    <g id="Icons/notification_dark" stroke="none" stroke-width="1" fill="none" fill-rule="evenodd">
        <rect id="Rectangle-2" x="0" y="0" width="70" height="70"></rect>
        <g id="bell" transform="translate(20.000000, 20.000000)">
            <g id="Group-3">
                <mask id="mask-2" fill="white">
                    <use xlink:href="#path-1"></use>
                </mask>
                <g id="Clip-2"></g>
                <path d="M5.6878125,20.6879297 L24.3121289,20.6879297 C23.7608203,19.8469336 23.4398437,18.841875 23.4398437,17.7633398 L23.4398437,10.8692578 C23.4398437,6.21544922 19.65375,2.42935547 15,2.42935547 C10.34625,2.42935547 6.56015625,6.21544922 6.56015625,10.8692578 L6.56015625,17.7633398 C6.56015625,18.8418164 6.23917969,19.846875 5.6878125,20.6879297 Z M28.7881641,23.1116016 L1.21183594,23.1116016 C0.542578125,23.1116016 0,22.569082 0,21.8997656 C0,21.2304492 0.542578125,20.6879297 1.21183594,20.6879297 C2.82445313,20.6879297 4.13642578,19.3760156 4.13642578,17.7633398 L4.13642578,10.8692578 C4.13642578,4.87904297 9.00978516,0.00568359375 15,0.00568359375 C20.9902148,0.00568359375 25.8635742,4.87904297 25.8635742,10.8692578 L25.8635742,17.7633398 C25.8635742,19.375957 27.1754883,20.6879297 28.7881641,20.6879297 C29.4574805,20.6879297 30,21.2304492 30,21.8997656 C30,22.569082 29.4574805,23.1116016 28.7881641,23.1116016 Z" id="Fill-1" fill="#FFFFFF" mask="url(#mask-2)"></path>
            </g>
            <path d="M14.9933203,30 C14.3176758,30 13.6334766,29.8276172 13.0082227,29.4648633 C12.4112109,29.1185742 11.9126367,28.62 11.5663477,28.0230469 C11.2305469,27.444082 11.4276563,26.7025195 12.0065039,26.3667187 C12.5854102,26.030918 13.3270313,26.2279687 13.662832,26.806875 C13.7976563,27.039375 13.9917773,27.2334961 14.2242773,27.3683203 C14.9616211,27.7960547 15.909375,27.5442187 16.3369922,26.806875 C16.6728516,26.2280273 17.4143555,26.0308008 17.9933789,26.3667187 C18.5723438,26.7025195 18.7693359,27.444082 18.4335938,28.0230469 C17.6980664,29.2910742 16.363418,30 14.9933203,30" id="Fill-4" fill="#FFFFFF"></path>
        </g>
        <text id="Button-Name" font-family="Montserrat-Medium, Montserrat" font-size="8" font-weight="400" fill="#FFFFFF">
            <tspan x="9.336" y="65">Notifications</tspan>
        </text>
    </g>
</svg>