<?xml version="1.0" encoding="UTF-8"?>
<svg width="19px" height="17px" viewBox="0 0 19 17" version="1.1" xmlns="http://www.w3.org/2000/svg" xmlns:xlink="http://www.w3.org/1999/xlink">
    <!-- Generator: Sketch 51.1 (57501) - http://www.bohemiancoding.com/sketch -->
    <title>Icons/own_place</title>
    <desc>Created with Sketch.</desc>
    <defs>
        <polygon id="path-1" points="0.0019921875 0 15.4373613 0 15.4373613 17 0.0019921875 17"></polygon>
    </defs>
    <g id="Icons/own_place" stroke="none" stroke-width="1" fill="none" fill-rule="evenodd">
        <g id="home" transform="translate(2.000000, 0.000000)">
            <g id="Group-3">
                <mask id="mask-2" fill="white">
                    <use xlink:href="#path-1"></use>
                </mask>
                <g id="Clip-2"></g>
                <path d="M1.37341406,6.4918418 L1.37341406,14.7506211 C1.37341406,15.2335937 1.76637305,15.6265527 2.24937891,15.6265527 L13.1879824,15.6265527 C13.6709551,15.6265527 14.0639141,15.2335937 14.0639141,14.7506211 L14.0639141,6.4918418 L7.71866406,1.55666211 L1.37341406,6.4918418 Z M13.1879824,17 L2.24937891,17 C1.00907617,17 0,15.9909238 0,14.7506211 L0,6.15599219 C0,5.94408984 0.0978496094,5.74404102 0.265126953,5.61395117 L7.29708398,0.144666016 C7.54507812,-0.0482441406 7.89234961,-0.0482109375 8.14027734,0.144666016 L15.1722344,5.61395117 C15.3394785,5.74407422 15.4373613,5.94408984 15.4373613,6.15599219 L15.4373613,14.7506211 C15.4373281,15.9909238 14.4282852,17 13.1879824,17 Z" id="Fill-1" fill="#260E0D" mask="url(#mask-2)"></path>
            </g>
            <path d="M10.0626387,17 C9.68335937,17 9.37589844,16.6925391 9.37589844,16.3132598 L9.37589844,9.18670703 L6.06139648,9.18670703 L6.06139648,16.3132598 C6.06139648,16.6925391 5.75393555,17 5.37468945,17 C4.99544336,17 4.68798242,16.6925391 4.68798242,16.3132598 L4.68798242,8.5 C4.68798242,8.12075391 4.99544336,7.81325977 5.37468945,7.81325977 L10.0626719,7.81325977 C10.4419512,7.81325977 10.7493789,8.12075391 10.7493789,8.5 L10.7493789,16.3132598 C10.7493457,16.6925391 10.441918,17 10.0626387,17" id="Fill-4" fill="#260E0D"></path>
        </g>
    </g>
</svg>