<?xml version="1.0" encoding="UTF-8"?>
<svg width="70px" height="70px" viewBox="0 0 70 70" version="1.1" xmlns="http://www.w3.org/2000/svg" xmlns:xlink="http://www.w3.org/1999/xlink">
    <!-- Generator: Sketch 51.1 (57501) - http://www.bohemiancoding.com/sketch -->
    <title>Icons/password_active</title>
    <desc>Created with Sketch.</desc>
    <defs>
        <linearGradient x1="91.1311345%" y1="93.8675885%" x2="20.130637%" y2="39.80221%" id="linearGradient-1">
            <stop stop-color="#FCC374" offset="0%"></stop>
            <stop stop-color="#FF6058" offset="100%"></stop>
        </linearGradient>
    </defs>
    <g id="Icons/password_active" stroke="none" stroke-width="1" fill="none" fill-rule="evenodd">
        <rect id="Rectangle-2" x="0" y="0" width="70" height="70"></rect>
        <path d="M26.0727097,32.4093359 L26.0727097,28.105918 C26.0727097,23.6363281 30.0765806,20 34.9979355,20 C39.9193548,20 43.9231613,23.6363281 43.9231613,28.105918 L43.9231613,32.4093359 L45.6252258,32.4093359 C48.0352258,32.4093359 49.995871,34.1900586 49.995871,36.3788281 L49.995871,46.0305078 C49.995871,48.2192773 48.0352258,50 45.6252258,50 L24.3707097,50 C21.9607097,50 20,48.2192773 20,46.0305078 L20,36.3788281 C20,34.1900586 21.9607097,32.4093359 24.3707097,32.4093359 L26.0727097,32.4093359 Z M28.7414194,32.4093359 L41.2545161,32.4093359 L41.2545161,28.105918 C41.2545161,24.9727344 38.4478065,22.4237305 34.9979355,22.4237305 C31.5480645,22.4237305 28.7414194,24.9727344 28.7414194,28.105918 L28.7414194,32.4093359 Z M24.3707097,34.8330078 C23.4321935,34.8330078 22.6687097,35.5264648 22.6687097,36.3788281 L22.6687097,46.0305078 C22.6687097,46.8828711 23.4321935,47.5763281 24.3707097,47.5763281 L45.6252258,47.5763281 C46.5636774,47.5763281 47.3272258,46.8828711 47.3272258,46.0305078 L47.3272258,36.3788281 C47.3272258,35.5264648 46.5636774,34.8330078 45.6252258,34.8330078 L24.3707097,34.8330078 Z" id="Fill-1" fill="url(#linearGradient-1)"></path>
    </g>
</svg>