<?xml version="1.0" encoding="UTF-8"?>
<svg width="70px" height="70px" viewBox="0 0 70 70" version="1.1" xmlns="http://www.w3.org/2000/svg" xmlns:xlink="http://www.w3.org/1999/xlink">
    <!-- Generator: Sketch 51.1 (57501) - http://www.bohemiancoding.com/sketch -->
    <title>Icons/password_dark</title>
    <desc>Created with Sketch.</desc>
    <defs>
        <polygon id="path-1" points="0.00387096774 0.0460546875 29.995871 0.0460546875 29.995871 17.6367188 0.00387096774 17.6367188"></polygon>
    </defs>
    <g id="Icons/password_dark" stroke="none" stroke-width="1" fill="none" fill-rule="evenodd">
        <rect id="Rectangle-2" x="0" y="0" width="70" height="70"></rect>
        <g id="padlock" transform="translate(20.000000, 20.000000)">
            <g id="Group-3" transform="translate(0.000000, 12.363281)">
                <mask id="mask-2" fill="white">
                    <use xlink:href="#path-1"></use>
                </mask>
                <g id="Clip-2"></g>
                <path d="M4.37070968,2.46972656 C3.43219355,2.46972656 2.66870968,3.16318359 2.66870968,4.01554687 L2.66870968,13.6672266 C2.66870968,14.5195898 3.43219355,15.2130469 4.37070968,15.2130469 L25.6252258,15.2130469 C26.5636774,15.2130469 27.3272258,14.5195898 27.3272258,13.6672266 L27.3272258,4.01554687 C27.3272258,3.16318359 26.5636774,2.46972656 25.6252258,2.46972656 L4.37070968,2.46972656 Z M25.6252258,17.6367188 L4.37070968,17.6367188 C1.96070968,17.6367188 0,15.8559961 0,13.6672266 L0,4.01554687 C0,1.82677734 1.96070968,0.0460546875 4.37070968,0.0460546875 L25.6252258,0.0460546875 C28.0352258,0.0460546875 29.995871,1.82677734 29.995871,4.01554687 L29.995871,13.6672266 C29.995871,15.8559961 28.0352258,17.6367188 25.6252258,17.6367188 Z" id="Fill-1" fill="#FFFFFF" mask="url(#mask-2)"></path>
            </g>
            <path d="M22.5888387,14.8330078 C21.851871,14.8330078 21.2545161,14.2904297 21.2545161,13.6211719 L21.2545161,8.10591797 C21.2545161,4.97273437 18.4478065,2.42373047 14.9979355,2.42373047 C11.5480645,2.42373047 8.74141935,4.97273437 8.74141935,8.10591797 L8.74141935,13.6211719 C8.74141935,14.2904297 8.14393548,14.8330078 7.40703226,14.8330078 C6.67012903,14.8330078 6.07270968,14.2904297 6.07270968,13.6211719 L6.07270968,8.10591797 C6.07270968,3.63632813 10.0765806,0 14.9979355,0 C19.9193548,0 23.9231613,3.63632813 23.9231613,8.10591797 L23.9231613,13.6211719 C23.9231613,14.2904297 23.3258065,14.8330078 22.5888387,14.8330078" id="Fill-4" fill="#FFFFFF"></path>
        </g>
    </g>
</svg>