<?xml version="1.0" encoding="UTF-8"?>
<svg width="21px" height="21px" viewBox="0 0 21 21" version="1.1" xmlns="http://www.w3.org/2000/svg" xmlns:xlink="http://www.w3.org/1999/xlink">
    <!-- Generator: Sketch 51.1 (57501) - http://www.bohemiancoding.com/sketch -->
    <title>Icons/rating_icon_active</title>
    <desc>Created with Sketch.</desc>
    <defs>
        <linearGradient x1="91.1311345%" y1="93.8675885%" x2="20.130637%" y2="39.80221%" id="linearGradient-1">
            <stop stop-color="#FCC374" offset="0%"></stop>
            <stop stop-color="#FF6058" offset="100%"></stop>
        </linearGradient>
    </defs>
    <g id="Icons/rating_icon_active" stroke="none" stroke-width="1" fill="none" fill-rule="evenodd">
        <g id="Group">
            <rect id="Rectangle-5" fill="url(#linearGradient-1)" x="0" y="0" width="21" height="21" rx="5"></rect>
            <path d="M9.81465035,10.2112028 C8.52305489,11.1285046 7.94000006,12.2980126 7.94000006,13.0550775 C7.94000006,13.8008785 8.50195318,14.4224055 9.28765631,14.4224055 C9.70357428,14.4224055 10.0681837,14.2471948 10.3420606,13.9157051 C10.378584,13.8714942 10.4111426,13.8272741 10.4400001,13.7844286 C10.4688575,13.8272648 10.5014161,13.8714942 10.5379395,13.9157051 C10.8118165,14.2471948 11.1764258,14.4224055 11.5923438,14.4224055 C12.3785059,14.4224055 12.9400001,13.8004818 12.9400001,13.0550683 C12.9400001,12.2980059 12.3569491,11.1285032 11.0653628,10.2112028 C12.3569491,9.29390231 12.9400001,8.12439964 12.9400001,7.36733724 C12.9400001,6.62192371 12.3785059,6 11.5923438,6 C11.1764258,6 10.8118165,6.1752107 10.5379395,6.50670037 C10.5014161,6.5509113 10.4688575,6.59514067 10.4400001,6.63797693 C10.4111426,6.59513145 10.378584,6.5509113 10.3420606,6.50670037 C10.0681837,6.1752107 9.70357428,6 9.28765631,6 C8.50195318,6 7.94000006,6.62152699 7.94000006,7.36732802 C7.94000006,8.12439295 8.52305489,9.29390093 9.81465035,10.2112028 Z M6,12.8946462 C6,11.5435976 6.58025445,10.4955382 7.74113795,9.74970871 C6.87905989,9.02729318 6.4482706,8.19742657 6.4482706,7.25947607 C6.4482706,6.32165214 6.83348364,5.54367592 7.60303564,4.92643336 C8.37333685,4.30931737 9.3385546,4 10.4996878,4 C11.6606962,4 12.6260388,4.30931737 13.3962152,4.92643336 C14.1660169,5.54367592 14.5517294,6.32165214 14.5517294,7.25947607 C14.5517294,8.19742657 14.1203158,9.02729318 13.2581129,9.74970871 C14.4191212,10.4955382 15,11.5435976 15,12.8946462 C15,13.943465 14.5861925,14.8230704 13.7583279,15.5334626 C12.9304633,16.2444875 11.8444996,16.6 10.4996878,16.6 C9.15487604,16.6 8.06878755,16.2444875 7.24104777,15.5334626 C6.41393232,14.8230704 6,13.943465 6,12.8946462 Z" id="Combined-Shape" fill="#FFFFFF"></path>
        </g>
    </g>
</svg>