<?xml version="1.0" encoding="UTF-8"?>
<svg width="19px" height="17px" viewBox="0 0 19 17" version="1.1" xmlns="http://www.w3.org/2000/svg" xmlns:xlink="http://www.w3.org/1999/xlink">
    <!-- Generator: Sketch 51.1 (57501) - http://www.bohemiancoding.com/sketch -->
    <title>Icons/religion</title>
    <desc>Created with Sketch.</desc>
    <defs>
        <polygon id="path-1" points="0.00428571429 0.0284487297 12.9647653 0.0284487297 12.9647653 16.9289414 0.00428571429 16.9289414"></polygon>
    </defs>
    <g id="Icons/religion" stroke="none" stroke-width="1" fill="none" fill-rule="evenodd">
        <g id="prayer" transform="translate(3.000000, 0.000000)">
            <mask id="mask-2" fill="white">
                <use xlink:href="#path-1"></use>
            </mask>
            <g id="Clip-2"></g>
            <path d="M12.868,15.7486862 L10.4274286,12.1971799 C10.5206429,11.5300544 10.8147143,9.46174477 10.9790714,8.71488285 C11.303,7.242 11.0876429,5.81691632 10.3725,4.70160251 L7.61185714,0.397686192 C7.411,0.0842887029 7.02428571,-0.0490794979 6.67157143,0.0736903766 C6.59178571,0.101502092 6.51928571,0.141263598 6.45478571,0.189276151 C6.39007143,0.141263598 6.3175,0.101502092 6.23771429,0.0736903766 C5.88507143,-0.0490794979 5.49857143,0.0842887029 5.29742857,0.397686192 L2.53714286,4.70160251 C1.82171429,5.81691632 1.60628571,7.24228452 1.93021429,8.71488285 C2.09485714,9.46309623 2.3895,11.5367406 2.48242857,12.200523 L0.0937142857,15.7533808 C-0.0764285714,16.0065314 -0.00835714286,16.3493766 0.245785714,16.5188787 C0.340714286,16.5821841 0.447857143,16.6122008 0.553857143,16.6122008 C0.732428571,16.6122008 0.907928571,16.5263473 1.01478571,16.3674435 L2.30857143,14.4427448 L4.52792857,15.179364 L4.12585714,16.1701297 C4.01114286,16.452728 4.14814286,16.7744477 4.43221429,16.8883975 C4.5,16.9159247 4.57028571,16.9289414 4.6395,16.9289414 C4.85878571,16.9289414 5.06642857,16.7983473 5.15342857,16.5836067 L6.45814286,13.3686151 L7.78457143,16.5863808 C7.87278571,16.7997699 8.0795,16.9289414 8.29771429,16.9289414 C8.36771429,16.9289414 8.43892857,16.9156402 8.50778571,16.8872594 C8.791,16.7716736 8.92635714,16.4491004 8.81028571,16.1673556 L8.40371429,15.1812845 L10.6275,14.4430293 L11.9531429,16.3718536 C12.0605714,16.5282678 12.2343571,16.6122008 12.411,16.6122008 C12.519,16.6122008 12.6277857,16.5811172 12.7235,16.5158201 C12.976,16.3435439 13.0407143,16.0001297 12.868,15.7486862 Z M6.45478571,3.65798745 L7.22628571,5.5498954 C6.9375,5.56824686 6.67214286,5.67188285 6.45478571,5.83576569 C6.23742857,5.67159833 5.97178571,5.56824686 5.68328571,5.5498954 L6.45478571,3.65798745 Z M5.88921429,6.9130251 L5.88671429,11.1768954 C5.88671429,11.2916276 5.89092857,11.4061464 5.89871429,11.5205941 C5.88642857,11.6637071 5.86721429,11.8059665 5.83957143,11.9468033 L4.94392857,14.1538159 L2.94835714,13.4913849 L3.52064286,12.6398201 C3.59628571,12.5277908 3.62778571,12.3919331 3.60935714,12.2582803 C3.5935,12.1426946 3.21871429,9.41309205 3.01314286,8.47873222 C2.75221429,7.29335565 2.91492857,6.1631046 3.471,5.29567782 L5.53235714,2.08175314 L5.40371429,3.30176987 L4.48435714,5.60630126 C4.38171429,5.86329289 4.32814286,6.137 4.32614286,6.41341004 L4.30721429,9.03496653 C4.30721429,9.35199163 4.57564286,9.60649372 4.89842857,9.58565272 C5.19278571,9.5664477 5.41542857,9.30974059 5.41542857,9.01604603 L5.41542857,6.65041423 L5.59178571,6.65041423 C5.72821429,6.65041423 5.88921429,6.77745188 5.88921429,6.9130251 Z M7.02007143,6.9130251 C7.02007143,6.745159 7.18107143,6.65041423 7.3175,6.65041423 L7.49385714,6.65041423 L7.49385714,9.01604603 C7.49385714,9.30974059 7.7165,9.5664477 8.01114286,9.58565272 C8.334,9.60649372 8.60214286,9.35170711 8.60214286,9.03496653 L8.58314286,6.41341004 C8.58121429,6.137 8.52764286,5.86329289 8.42521429,5.60630126 L7.50585714,3.30176987 L7.37692857,2.08175314 L9.43835714,5.29567782 C9.99442857,6.1631046 10.1570714,7.29335565 9.8965,8.47873222 C9.69085714,9.41309205 9.31585714,12.1426946 9.29992857,12.2582803 C9.2815,12.3938536 9.31414286,12.5317029 9.39171429,12.6445146 L9.97657143,13.4955816 L7.98157143,14.1576569 L7.06978571,11.9454519 C7.04214286,11.805113 7.02285714,11.6631381 7.01057143,11.5208787 C7.01842857,11.406431 7.02285714,11.2916276 7.02285714,11.1768954 L7.02007143,6.9130251 Z" id="Fill-1" fill="#260E0D" mask="url(#mask-2)"></path>
        </g>
    </g>
</svg>