<?xml version="1.0" encoding="UTF-8"?>
<svg width="70px" height="70px" viewBox="0 0 70 70" version="1.1" xmlns="http://www.w3.org/2000/svg" xmlns:xlink="http://www.w3.org/1999/xlink">
    <!-- Generator: Sketch 51.1 (57501) - http://www.bohemiancoding.com/sketch -->
    <title>Icons/removal</title>
    <desc>Created with Sketch.</desc>
    <defs></defs>
    <g id="Icons/removal" stroke="none" stroke-width="1" fill="none" fill-rule="evenodd">
        <path d="M36.5578981,21.5197206 C36.5973456,21.7749564 36.6186916,22.0477654 36.6186916,22.3312169 L36.6186916,45.883332 C36.6186916,46.0875218 36.6076164,46.2861847 36.5866786,46.4767317 C42.7750071,45.6942561 47.5763281,40.397241 47.5763281,34 C47.5763281,27.5928451 42.7601142,22.2893788 36.5578981,21.5197206 Z M34.2360452,46.5533929 C34.209286,46.3396808 34.1950198,46.1150657 34.1950198,45.883332 L34.1950198,22.3312169 C34.1950198,22.0198324 34.220783,21.7212913 34.2680063,21.4447817 C27.6727512,21.8251133 22.4237305,27.3111149 22.4237305,34 C22.4237305,40.6780766 27.6558012,46.1572083 34.2360452,46.5533929 Z M24.393418,44.606582 C21.560293,41.773457 20,38.0066406 20,34 C20,29.9933594 21.560293,26.2264844 24.393418,23.393418 C27.226543,20.560293 30.9933594,19 35,19 C39.0066406,19 42.773457,20.560293 45.606582,23.393418 C48.439707,26.2264844 50,29.9933594 50,34 C50,38.0066406 48.439707,41.773457 45.606582,44.606582 C42.773457,47.439707 39.0066406,49 35,49 C30.9933594,49 27.2264844,47.439707 24.393418,44.606582 Z" id="Combined-Shape" fill="#260E0D" transform="translate(35.000000, 34.000000) rotate(45.000000) translate(-35.000000, -34.000000) "></path>
    </g>
</svg>