<?xml version="1.0" encoding="UTF-8"?>
<svg width="70px" height="70px" viewBox="0 0 70 70" version="1.1" xmlns="http://www.w3.org/2000/svg" xmlns:xlink="http://www.w3.org/1999/xlink">
    <!-- Generator: Sketch 51.1 (57501) - http://www.bohemiancoding.com/sketch -->
    <title>Icons/report</title>
    <desc>Created with Sketch.</desc>
    <defs></defs>
    <g id="Icons/report" stroke="none" stroke-width="1" fill="none" fill-rule="evenodd">
        <g id="Group" transform="translate(34.000000, 28.000000)" fill="#0A0B09">
            <path d="M1.38885531,8.88888889 C0.621865489,8.88888889 0,8.26276889 0,7.49038065 L0,1.39850824 C0,0.626187626 0.621865489,0 1.38885531,0 C2.15597944,0 2.77777778,0.626187626 2.77777778,1.39850824 L2.77777778,7.49038065 C2.77777778,8.26276889 2.15597944,8.88888889 1.38885531,8.88888889" id="Fill-4"></path>
            <path d="M1.38892247,15 C1.02345897,15 0.665449798,14.8519172 0.406831656,14.5932257 C0.148750762,14.3346684 0,13.977255 0,13.6111111 C0,13.2456388 0.148750762,12.887621 0.406831656,12.6289966 C0.665449798,12.3703722 1.02345897,12.2222222 1.38892247,12.2222222 C1.75492321,12.2222222 2.11293238,12.3703722 2.37101328,12.6289966 C2.62956426,12.887621 2.77777778,13.2456388 2.77777778,13.6111111 C2.77777778,13.977255 2.62963142,14.3346684 2.37101328,14.5932257 C2.11226082,14.8518501 1.75485606,15 1.38892247,15" id="Fill-5"></path>
        </g>
        <path d="M24.393418,45.606582 C21.560293,42.773457 20,39.0066406 20,35 C20,30.9933594 21.560293,27.2264844 24.393418,24.393418 C27.226543,21.560293 30.9933594,20 35,20 C39.0066406,20 42.773457,21.560293 45.606582,24.393418 C48.439707,27.2264844 50,30.9933594 50,35 C50,39.0066406 48.439707,42.773457 45.606582,45.606582 C42.773457,48.439707 39.0066406,50 35,50 C30.9933594,50 27.2264844,48.439707 24.393418,45.606582 Z M35,22.4237305 C28.0654297,22.4237305 22.4237305,28.0654297 22.4237305,35 C22.4237305,41.9345703 28.0654297,47.5763281 35,47.5763281 C41.9345703,47.5763281 47.5763281,41.9345703 47.5763281,35 C47.5763281,28.0654297 41.9345703,22.4237305 35,22.4237305 Z" id="Combined-Shape" fill="#0A0B09"></path>
    </g>
</svg>