<?xml version="1.0" encoding="UTF-8"?>
<svg width="29px" height="29px" viewBox="0 0 29 29" version="1.1" xmlns="http://www.w3.org/2000/svg" xmlns:xlink="http://www.w3.org/1999/xlink">
    <!-- Generator: sketchtool 50 (54983) - http://www.bohemiancoding.com/sketch -->
    <title>25B3DB48-4DDD-4ED7-AF8B-48046ECC7C84</title>
    <desc>Created with sketchtool.</desc>
    <defs>
        <polygon id="path-1" points="0 0 30 0 30 30 0 30"></polygon>
    </defs>
    <g id="Symbols" stroke="none" stroke-width="1" fill="none" fill-rule="evenodd">
        <g id="Icons/search_dark" transform="translate(-20.000000, -20.000000)">
            <g id="search" transform="translate(34.000000, 35.000000) scale(-1, 1) translate(-34.000000, -35.000000) translate(19.000000, 20.000000)">
                <mask id="mask-2" fill="white">
                    <use xlink:href="#path-1"></use>
                </mask>
                <g id="Clip-2"></g>
                <path d="M12.7500294,2.43289295 C7.06112404,2.43289295 2.43289295,7.06106522 2.43289295,12.7499706 C2.43289295,18.438876 7.06106522,23.0671071 12.7499706,23.0671071 C18.438876,23.0671071 23.0671071,18.438876 23.0671071,12.7499706 C23.0671071,7.06106522 18.4389348,2.43289295 12.7500294,2.43289295 Z M12.7500294,25.5 C9.34439099,25.5 6.14260623,24.1737749 3.73441569,21.7656431 C1.32622514,19.3574526 0,16.1556678 0,12.7499706 C0,9.34433217 1.32622514,6.14254742 3.73441569,3.73435687 C6.14254742,1.32622514 9.34433217,0 12.7500294,0 C16.1557266,0 19.3574526,1.32622514 21.7656431,3.73435687 C24.1737749,6.14254742 25.5,9.34433217 25.5,12.7499706 C25.5,16.1556678 24.1737749,19.3573938 21.7656431,21.7655843 C19.3574526,24.173716 16.1556678,25.5 12.7500294,25.5 Z" id="Fill-1" fill="#FFFFFF" mask="url(#mask-2)"></path>
                <path d="M26.3803919,27.7985238 L19.8586555,21.5906207 C19.3804482,21.1123568 19.6147765,20.6520692 20.0929838,20.1738053 C20.5712504,19.6955415 21.1123215,19.380434 21.590588,19.8586979 L28.1123244,26.0666011 C28.5905909,26.544865 28.5905909,27.32026 28.1123244,27.7985238 C27.8732207,28.0376854 27.5598042,28.1572366 27.2463877,28.1572366 C26.9329712,28.1572366 26.6194955,28.0376854 26.3803919,27.7985238 Z" id="Fill-3" fill="#FFFFFF" mask="url(#mask-2)"></path>
            </g>
        </g>
    </g>
</svg>