<?xml version="1.0" encoding="UTF-8"?>
<svg width="70px" height="70px" viewBox="0 0 70 70" version="1.1" xmlns="http://www.w3.org/2000/svg" xmlns:xlink="http://www.w3.org/1999/xlink">
    <!-- Generator: Sketch 51.1 (57501) - http://www.bohemiancoding.com/sketch -->
    <title>Icons/settings_dark</title>
    <desc>Created with Sketch.</desc>
    <defs></defs>
    <g id="Icons/settings_dark" stroke="none" stroke-width="1" fill="none" fill-rule="evenodd">
        <rect id="Rectangle-2" x="0" y="0" width="70" height="70"></rect>
        <path d="M46.1375,36.25 L46.25,36.25 C46.9403559,36.25 47.5,35.6903559 47.5,35 C47.5,34.3096441 46.9403559,33.75 46.25,33.75 L46.0325146,33.7499901 C44.7122466,33.7447244 43.5211744,32.9559348 43.0010752,31.7424143 C42.9558056,31.6367892 42.9254206,31.5256691 42.9105724,31.4122324 C42.4964524,30.2308973 42.7838035,28.9057873 43.6786165,27.9911165 L43.7541083,27.915625 C43.9888296,27.6811647 44.1207166,27.3630116 44.1207166,27.03125 C44.1207166,26.6994884 43.9888296,26.3813353 43.753125,26.1458917 C43.5186647,25.9111704 43.2005116,25.7792834 42.86875,25.7792834 C42.5369884,25.7792834 42.2188353,25.9111704 41.9838835,26.1463835 L41.8990812,26.2310782 C40.9310548,27.1779832 39.4841484,27.4403344 38.2575857,26.8989248 C37.0440652,26.3788256 36.2552756,25.1877534 36.25,23.8625 L36.25,23.75 C36.25,23.0596441 35.6903559,22.5 35,22.5 C34.3096441,22.5 33.75,23.0596441 33.75,23.75 L33.7499901,23.9674854 C33.7447244,25.2877534 32.9559348,26.4788256 31.7424143,26.9989248 C31.6367892,27.0441944 31.5256691,27.0745794 31.4122324,27.0894276 C30.2308973,27.5035476 28.9057873,27.2161965 27.9911165,26.3213835 L27.915625,26.2458917 C27.6811647,26.0111704 27.3630116,25.8792834 27.03125,25.8792834 C26.6994884,25.8792834 26.3813353,26.0111704 26.1458917,26.246875 C25.9111704,26.4813353 25.7792834,26.7994884 25.7792834,27.13125 C25.7792834,27.4630116 25.9111704,27.7811647 26.1463835,28.0161165 L26.2310782,28.1009188 C27.1779832,29.0689452 27.4403344,30.5158516 26.9231701,31.6814764 C26.4536681,32.9580371 25.2515204,33.8178514 23.8625,33.85 L23.75,33.85 C23.0596441,33.85 22.5,34.4096441 22.5,35.1 C22.5,35.7903559 23.0596441,36.35 23.75,36.35 L23.9674854,36.3500099 C25.2877534,36.3552756 26.4788256,37.1440652 26.9935782,38.3452933 C27.5403344,39.5841484 27.2779832,41.0310548 26.3213835,42.0088835 L26.2458917,42.084375 C26.0111704,42.3188353 25.8792834,42.6369884 25.8792834,42.96875 C25.8792834,43.3005116 26.0111704,43.6186647 26.246875,43.8541083 C26.4813353,44.0888296 26.7994884,44.2207166 27.13125,44.2207166 C27.4630116,44.2207166 27.7811647,44.0888296 28.0161165,43.8536165 L28.1009188,43.7689218 C29.0689452,42.8220168 30.5158516,42.5596656 31.6814764,43.0768299 C32.9580371,43.5463319 33.8178514,44.7484796 33.85,46.1375 L33.85,46.25 C33.85,46.9403559 34.4096441,47.5 35.1,47.5 C35.7903559,47.5 36.35,46.9403559 36.35,46.25 L36.3500099,46.0325146 C36.3552756,44.7122466 37.1440652,43.5211744 38.3452933,43.0064218 C39.5841484,42.4596656 41.0310548,42.7220168 42.0088835,43.6786165 L42.084375,43.7541083 C42.3188353,43.9888296 42.6369884,44.1207166 42.96875,44.1207166 C43.3005116,44.1207166 43.6186647,43.9888296 43.8541083,43.753125 C44.0888296,43.5186647 44.2207166,43.2005116 44.2207166,42.86875 C44.2207166,42.5369884 44.0888296,42.2188353 43.8536165,41.9838835 L43.7689218,41.8990812 C42.8235796,40.9326524 42.5605335,39.488923 43.1037213,38.2514288 C43.6252071,37.041397 44.8144899,36.2552667 46.1375,36.25 Z M43.1064218,38.2452933 L43.1010752,38.2575857 C43.1019556,38.2555316 43.1028379,38.2534786 43.1037221,38.2514269 C43.1046192,38.2493831 43.1055194,38.2473379 43.1064218,38.2452933 Z M45.3734982,30.8939684 C45.5220791,31.1130076 45.7704216,31.2489265 46.0375,31.25 L46.25,31.25 C48.3210678,31.25 50,32.9289322 50,35 C50,37.0710678 48.3210678,38.75 46.25,38.75 L46.1424854,38.7499901 C45.8186461,38.7512816 45.5264963,38.9447583 45.3989248,39.2424143 C45.2594682,39.5585768 45.3238185,39.9134784 45.5463835,40.1411165 L45.6208917,40.215625 C46.3250556,40.919006 46.7207166,41.8734653 46.7207166,42.86875 C46.7207166,43.8640347 46.3250556,44.818494 45.621875,45.5208917 C44.918494,46.2250556 43.9640347,46.6207166 42.96875,46.6207166 C41.9734653,46.6207166 41.019006,46.2250556 40.3161165,45.5213835 L40.2509188,45.4560782 C40.0134784,45.2238185 39.6585768,45.1594682 39.3424143,45.2989248 C39.0447583,45.4264963 38.8512816,45.7186461 38.85,46.0375 L38.85,46.25 C38.85,48.3210678 37.1710678,50 35.1,50 C33.0289322,50 31.35,48.3210678 31.35,46.25 C31.3425401,45.8331974 31.1316423,45.538331 30.7452933,45.3935782 C30.4414232,45.2594682 30.0865216,45.3238185 29.8588835,45.5463835 L29.784375,45.6208917 C29.080994,46.3250556 28.1265347,46.7207166 27.13125,46.7207166 C26.1359653,46.7207166 25.181506,46.3250556 24.4791083,45.621875 C23.7749444,44.918494 23.3792834,43.9640347 23.3792834,42.96875 C23.3792834,41.9734653 23.7749444,41.019006 24.4786165,40.3161165 L24.5439218,40.2509188 C24.7761815,40.0134784 24.8405318,39.6585768 24.7010752,39.3424143 C24.5735037,39.0447583 24.2813539,38.8512816 23.9625,38.85 L23.75,38.85 C21.6789322,38.85 20,37.1710678 20,35.1 C20,33.0289322 21.6789322,31.35 23.75,31.35 C24.1668026,31.3425401 24.461669,31.1316423 24.6064218,30.7452933 C24.7405318,30.4414232 24.6761815,30.0865216 24.4536165,29.8588835 L24.3791083,29.784375 C23.6749444,29.080994 23.2792834,28.1265347 23.2792834,27.13125 C23.2792834,26.1359653 23.6749444,25.181506 24.378125,24.4791083 C25.081506,23.7749444 26.0359653,23.3792834 27.03125,23.3792834 C28.0265347,23.3792834 28.980994,23.7749444 29.6838835,24.4786165 L29.7490812,24.5439218 C29.9865216,24.7761815 30.3414232,24.8405318 30.6452933,24.7064218 C30.7253831,24.671075 30.8087423,24.6443364 30.8939684,24.6265018 C31.1130076,24.4779209 31.2489265,24.2295784 31.25,23.9625 L31.25,23.75 C31.25,21.6789322 32.9289322,20 35,20 C37.0710678,20 38.75,21.6789322 38.75,23.75 L38.7499901,23.8575146 C38.7512816,24.1813539 38.9447583,24.4735037 39.2547067,24.6064218 C39.5585768,24.7405318 39.9134784,24.6761815 40.1411165,24.4536165 L40.215625,24.3791083 C40.919006,23.6749444 41.8734653,23.2792834 42.86875,23.2792834 C43.8640347,23.2792834 44.818494,23.6749444 45.5208917,24.378125 C46.2250556,25.081506 46.6207166,26.0359653 46.6207166,27.03125 C46.6207166,28.0265347 46.2250556,28.980994 45.5213835,29.6838835 L45.4560782,29.7490812 C45.2238185,29.9865216 45.1594682,30.3414232 45.2935782,30.6452933 C45.328925,30.7253831 45.3556636,30.8087423 45.3734982,30.8939684 Z M35,40 C32.2385763,40 30,37.7614237 30,35 C30,32.2385763 32.2385763,30 35,30 C37.7614237,30 40,32.2385763 40,35 C40,37.7614237 37.7614237,40 35,40 Z M35,37.5 C36.3807119,37.5 37.5,36.3807119 37.5,35 C37.5,33.6192881 36.3807119,32.5 35,32.5 C33.6192881,32.5 32.5,33.6192881 32.5,35 C32.5,36.3807119 33.6192881,37.5 35,37.5 Z" id="Shape" fill="#FFFFFF" fill-rule="nonzero"></path>
    </g>
</svg>