<?xml version="1.0" encoding="UTF-8"?>
<svg width="70px" height="70px" viewBox="0 0 70 70" version="1.1" xmlns="http://www.w3.org/2000/svg" xmlns:xlink="http://www.w3.org/1999/xlink">
    <!-- Generator: Sketch 51.1 (57501) - http://www.bohemiancoding.com/sketch -->
    <title>Icons/share</title>
    <desc>Created with Sketch.</desc>
    <defs>
        <polygon id="path-1" points="0.00348387097 0 26.9962839 0 26.9962839 20.3483203 0.00348387097 20.3483203"></polygon>
    </defs>
    <g id="Icons/share" stroke="none" stroke-width="1" fill="none" fill-rule="evenodd">
        <g id="share" transform="translate(21.000000, 20.000000)">
            <g id="Group-4">
                <mask id="mask-2" fill="white">
                    <use xlink:href="#path-1"></use>
                </mask>
                <g id="Clip-2"></g>
                <path d="M21.696271,2.42373047 C20.0982194,2.42373047 18.7980968,3.73564453 18.7980968,5.34832031 C18.7980968,6.9609375 20.0981613,8.27291016 21.696271,8.27291016 C23.2943806,8.27291016 24.5945032,6.9609375 24.5945032,5.34832031 C24.5945032,3.73564453 23.2943806,2.42373047 21.696271,2.42373047 Z M21.696271,10.696582 C18.7738839,10.696582 16.3962581,8.29734375 16.3962581,5.34832031 C16.3962581,2.39923828 18.7738839,0 21.696271,0 C24.6187161,0 26.9962839,2.39923828 26.9962839,5.34832031 C26.9962839,8.29734375 24.6187161,10.696582 21.696271,10.696582 Z" id="Fill-1" fill="#0A0B09" mask="url(#mask-2)"></path>
                <path d="M5.3000129,12.0754102 C3.70196129,12.0754102 2.40183871,13.3873828 2.40183871,15 C2.40183871,16.6126172 3.70196129,17.9245898 5.3000129,17.9245898 C6.89806452,17.9245898 8.1981871,16.6126758 8.1981871,15 C8.1981871,13.3873828 6.89806452,12.0754102 5.3000129,12.0754102 Z M5.3000129,20.3483203 C2.37756774,20.3483203 0,17.9490234 0,15 C0,12.0509766 2.37756774,9.65167969 5.3000129,9.65167969 C8.2224,9.65167969 10.5999677,12.0509766 10.5999677,15 C10.5999677,17.9490234 8.2224,20.3483203 5.3000129,20.3483203 Z" id="Fill-3" fill="#0A0B09" mask="url(#mask-2)"></path>
            </g>
            <path d="M21.696271,21.7270898 C20.0982194,21.7270898 18.7980968,23.0390039 18.7980968,24.6516797 C18.7980968,26.2643555 20.0981613,27.5763281 21.696271,27.5763281 C23.2943806,27.5763281 24.5945032,26.2643555 24.5945032,24.6516797 C24.5945032,23.0390039 23.2943806,21.7270898 21.696271,21.7270898 Z M21.696271,30 C18.7738839,30 16.3962581,27.6007617 16.3962581,24.6516797 C16.3962581,21.7026563 18.7738839,19.303418 21.696271,19.303418 C24.6187161,19.303418 26.9962839,21.7026563 26.9962839,24.6516797 C26.9962839,27.6007617 24.6187161,30 21.696271,30 Z" id="Fill-5" fill="#0A0B09"></path>
            <path d="M18.1699548,23.7817383 C17.9646387,23.7817383 17.7566516,23.7285938 17.5664323,23.6167969 L8.23424516,18.129082 C7.66120645,17.7921094 7.46732903,17.0501953 7.80125806,16.471875 C8.1351871,15.8936719 8.87045806,15.6980273 9.44349677,16.035 L18.7757419,21.5226563 C19.3487226,21.8596875 19.5426,22.6016016 19.208671,23.1798633 C18.9855871,23.5661719 18.5832581,23.7817383 18.1699548,23.7817383" id="Fill-6" fill="#0A0B09"></path>
            <path d="M8.83997419,14.1300586 C8.42684516,14.1300586 8.02492258,13.9148437 7.80166452,13.5288281 C7.4673871,12.9507422 7.66074194,12.2087109 8.23354839,11.8713281 L17.5521484,6.38367187 C18.1249548,6.04634766 18.8603419,6.24146484 19.1946194,6.81949219 C19.5289548,7.39751953 19.3355419,8.13960937 18.7626774,8.47699219 L9.44419355,13.9646484 C9.25385806,14.0767383 9.04546452,14.1300586 8.83997419,14.1300586" id="Fill-7" fill="#0A0B09"></path>
        </g>
        <text id="Not-True" font-family="Montserrat-Medium, Montserrat" font-size="8" font-weight="400" fill="#260E0D">
            <tspan x="0.78" y="65">Share this review</tspan>
        </text>
    </g>
</svg>