<?xml version="1.0" encoding="UTF-8"?>
<svg width="70px" height="70px" viewBox="0 0 70 70" version="1.1" xmlns="http://www.w3.org/2000/svg" xmlns:xlink="http://www.w3.org/1999/xlink">
    <!-- Generator: Sketch 51.1 (57501) - http://www.bohemiancoding.com/sketch -->
    <title>Icons/share_active</title>
    <desc>Created with Sketch.</desc>
    <defs>
        <linearGradient x1="91.1311345%" y1="93.8675885%" x2="20.130637%" y2="39.80221%" id="linearGradient-1">
            <stop stop-color="#FCC374" offset="0%"></stop>
            <stop stop-color="#FF6058" offset="100%"></stop>
        </linearGradient>
    </defs>
    <g id="Icons/share_active" stroke="none" stroke-width="1" fill="none" fill-rule="evenodd">
        <path d="M43.696271,22.4237305 C42.0982194,22.4237305 40.7980968,23.7356445 40.7980968,25.3483203 C40.7980968,26.9609375 42.0981613,28.2729102 43.696271,28.2729102 C45.2943806,28.2729102 46.5945032,26.9609375 46.5945032,25.3483203 C46.5945032,23.7356445 45.2943806,22.4237305 43.696271,22.4237305 Z M32.3647347,33.4225416 C32.5176188,33.9213727 32.5999677,34.4511662 32.5999677,35 C32.5999677,35.5486034 32.5176879,36.0781826 32.3649272,36.5768303 L39.8484392,40.9773728 C40.8151211,39.9470638 42.1826243,39.303418 43.696271,39.303418 C46.6187161,39.303418 48.9962839,41.7026562 48.9962839,44.6516797 C48.9962839,47.6007617 46.6187161,50 43.696271,50 C40.7738839,50 38.3962581,47.6007617 38.3962581,44.6516797 C38.3962581,44.1006053 38.4792828,43.568729 38.6333724,43.0681188 L31.1526688,38.6691534 C30.1857283,39.7025005 28.8161953,40.3483203 27.3000129,40.3483203 C24.3775677,40.3483203 22,37.9490234 22,35 C22,32.0509766 24.3775677,29.6516797 27.3000129,29.6516797 C28.8159487,29.6516797 30.185283,30.2972895 31.152197,31.3303426 L38.631513,26.9258274 C38.478615,26.4269839 38.3962581,25.8971739 38.3962581,25.3483203 C38.3962581,22.3992383 40.7738839,20 43.696271,20 C46.6187161,20 48.9962839,22.3992383 48.9962839,25.3483203 C48.9962839,28.2973437 46.6187161,30.696582 43.696271,30.696582 C42.1803409,30.696582 40.8109957,30.0509929 39.8440672,29.0179619 L32.3647347,33.4225416 Z M29.833881,33.5814565 C29.8227686,33.5642844 29.8120242,33.5467402 29.8016645,33.5288281 C29.7916201,33.5114577 29.782052,33.4939392 29.7729563,33.4762881 C29.2630671,32.6367035 28.3452706,32.0754102 27.3000129,32.0754102 C25.7019613,32.0754102 24.4018387,33.3873828 24.4018387,35 C24.4018387,36.6126172 25.7019613,37.9245898 27.3000129,37.9245898 C28.3452006,37.9245898 29.2629441,37.3633967 29.7728539,36.5239067 C29.7818575,36.506428 29.7913242,36.4890791 29.8012581,36.471875 C29.8117665,36.4536795 29.8226723,36.4358629 29.8339581,36.4184298 C30.0659398,35.9980821 30.1981871,35.5143376 30.1981871,35 C30.1981871,34.4856241 30.0659105,34.0018362 29.833881,33.5814565 Z M41.1202243,43.312374 C40.914412,43.713863 40.7980968,44.1693175 40.7980968,44.6516797 C40.7980968,46.2643555 42.0981613,47.5763281 43.696271,47.5763281 C45.2943806,47.5763281 46.5945032,46.2643555 46.5945032,44.6516797 C46.5945032,43.0390039 45.2943806,41.7270898 43.696271,41.7270898 C42.686365,41.7270898 41.7954443,42.2510348 41.2764514,43.043721 C41.2569382,43.0898981 41.2343673,43.1353652 41.208671,43.1798633 C41.1817081,43.2265541 41.1521269,43.2707507 41.1202243,43.312374 Z" id="Combined-Shape" fill="url(#linearGradient-1)"></path>
    </g>
</svg>