<?xml version="1.0" encoding="UTF-8"?>
<svg width="70px" height="70px" viewBox="0 0 70 70" version="1.1" xmlns="http://www.w3.org/2000/svg" xmlns:xlink="http://www.w3.org/1999/xlink">
    <!-- Generator: Sketch 51.1 (57501) - http://www.bohemiancoding.com/sketch -->
    <title>Icons/share_link</title>
    <desc>Created with Sketch.</desc>
    <defs></defs>
    <g id="Icons/share_link" stroke="none" stroke-width="1" fill="none" fill-rule="evenodd">
        <path d="M31.1605261,37.1936751 C30.7070344,36.5869418 30.8308824,35.7271762 31.4371483,35.273335 C32.0434143,34.8194937 32.9025177,34.9434371 33.3560094,35.5501704 C34.3089867,36.8251727 35.7683251,37.6230912 37.3552644,37.7368323 C38.9422038,37.8505734 40.5002681,37.2689219 41.6252495,36.1426651 L45.7211487,32.0439019 C47.7992294,29.8906478 47.7695099,26.4679427 45.6543523,24.3511548 C43.5391948,22.2343669 40.1191257,22.2046245 37.9816917,24.2704191 L35.623802,26.6164069 C35.086887,27.1506118 34.2189062,27.1480793 33.6851128,26.6107504 C33.1513194,26.0734216 33.1538499,25.2047718 33.690765,24.6705669 L36.0628163,22.3106912 C39.2902098,19.1911677 44.4203134,19.2357813 47.5930498,22.4109631 C50.7657861,25.5861449 50.8103653,30.7202026 47.6765453,33.9670887 L43.5641227,38.082681 C41.8769141,39.7718024 39.5398176,40.6442796 37.1594086,40.473668 C34.7789995,40.3030563 32.5899921,39.1061786 31.1605261,37.1936751 Z M38.8394739,32.8063249 C39.2929656,33.4130582 39.1691176,34.2728238 38.5628517,34.726665 C37.9565857,35.1805063 37.0974823,35.0565629 36.6439906,34.4498296 C35.6910133,33.1748273 34.2316749,32.3769088 32.6447356,32.2631677 C31.0577962,32.1494266 29.4997319,32.7310781 28.3747505,33.8573349 L24.2788513,37.9560981 C22.2007706,40.1093522 22.2304901,43.5320573 24.3456477,45.6488452 C26.4608052,47.7656331 29.8808743,47.7953755 32.0154781,45.7324051 L34.3596591,43.3864172 C34.8950157,42.850648 35.7630001,42.850648 36.2983566,43.3864172 C36.8337131,43.9221863 36.8337131,44.7908398 36.2983566,45.3266089 L33.9371837,47.6893088 C30.7097902,50.8088323 25.5796866,50.7642187 22.4069502,47.5890369 C19.2342139,44.4138551 19.1896347,39.2797974 22.3234547,36.0329113 L26.4358773,31.917319 C28.1230859,30.2281976 30.4601824,29.3557204 32.8405914,29.526332 C35.2210005,29.6969437 37.4100079,30.8938214 38.8394739,32.8063249 Z" id="Combined-Shape" fill="#000000" fill-rule="nonzero"></path>
    </g>
</svg>