<?xml version="1.0" encoding="UTF-8"?>
<svg width="70px" height="70px" viewBox="0 0 70 70" version="1.1" xmlns="http://www.w3.org/2000/svg" xmlns:xlink="http://www.w3.org/1999/xlink">
    <!-- Generator: Sketch 51.1 (57501) - http://www.bohemiancoding.com/sketch -->
    <title>Icons/STI</title>
    <desc>Created with Sketch.</desc>
    <defs></defs>
    <g id="Icons/STI" stroke="none" stroke-width="1" fill="none" fill-rule="evenodd">
        <rect id="Rectangle-2" x="0" y="0" width="70" height="70"></rect>
        <text id="Button-Name-Copy" font-family="Montserrat-Medium, Montserrat" font-size="8" font-weight="400" fill="#260E0D">
            <tspan x="8.86" y="65">It is what it is</tspan>
        </text>
        <path d="M17.1218618,27.3743017 C17.1218618,24.9999881 17.6702344,23.1773807 18.766996,21.9064246 C19.8637576,20.6354685 21.5088754,20 23.7023986,20 C25.8959218,20 27.5410396,20.6354685 28.6378012,21.9064246 C29.7345628,23.1773807 30.2829354,24.9999881 30.2829354,27.3743017 L30.2829354,28.5055866 L26.0583933,28.5055866 L26.0583933,27.0810056 C26.0583933,26.0195478 25.8620623,25.2723485 25.4693946,24.8393855 C25.0767269,24.4064224 24.5283543,24.1899441 23.8242604,24.1899441 C23.1201665,24.1899441 22.5717939,24.4064224 22.1791262,24.8393855 C21.7864585,25.2723485 21.5901275,26.0195478 21.5901275,27.0810056 C21.5901275,28.0865972 21.8067686,28.9734598 22.2400571,29.7416201 C22.6733456,30.5097804 23.2149482,31.2360301 23.864881,31.9203911 C24.5148138,32.604752 25.2121271,33.2891027 25.9568418,33.9734637 C26.7015565,34.6578247 27.3988697,35.4050239 28.0488026,36.2150838 C28.6987354,37.0251437 29.2403379,37.9469222 29.6736265,38.9804469 C30.106915,40.0139716 30.323556,41.2290433 30.323556,42.6256983 C30.323556,45.0000119 29.7616434,46.8226193 28.6378012,48.0935754 C27.5139591,49.3645315 25.8553013,50 23.661778,50 C21.4682548,50 19.809597,49.3645315 18.6857548,48.0935754 C17.5619126,46.8226193 17,45.0000119 17,42.6256983 L17,40.6145251 L21.2245422,40.6145251 L21.2245422,42.9189944 C21.2245422,43.9804522 21.4344131,44.7206683 21.8541614,45.1396648 C22.2739097,45.5586613 22.8358223,45.7681564 23.5399162,45.7681564 C24.2440101,45.7681564 24.8059227,45.5586613 25.225671,45.1396648 C25.6454193,44.7206683 25.8552903,43.9804522 25.8552903,42.9189944 C25.8552903,41.9134028 25.6386493,41.0265402 25.2053607,40.2583799 C24.7720722,39.4902196 24.2304696,38.7639699 23.5805368,38.0796089 C22.930604,37.395248 22.2332907,36.7108973 21.488576,36.0265363 C20.7438614,35.3421753 20.0465481,34.5949761 19.3966153,33.7849162 C18.7466824,32.9748563 18.2050799,32.0530778 17.7717914,31.0195531 C17.3385028,29.9860284 17.1218618,28.7709567 17.1218618,27.3743017 Z M31.6640357,20.3351955 L45.4750389,20.3351955 L45.4750389,24.5251397 L40.8036702,24.5251397 L40.8036702,49.6648045 L36.3354045,49.6648045 L36.3354045,24.5251397 L31.6640357,24.5251397 L31.6640357,20.3351955 Z M48.5317343,20.314243 L53,20.314243 L53,49.643852 L48.5317343,49.643852 L48.5317343,20.314243 Z" id="STI" fill="#260E0D"></path>
    </g>
</svg>