<?xml version="1.0" encoding="UTF-8"?>
<svg width="70px" height="70px" viewBox="0 0 70 70" version="1.1" xmlns="http://www.w3.org/2000/svg" xmlns:xlink="http://www.w3.org/1999/xlink">
    <!-- Generator: Sketch 51.1 (57501) - http://www.bohemiancoding.com/sketch -->
    <title>Icons/switch_light_active</title>
    <desc>Created with Sketch.</desc>
    <defs>
        <linearGradient x1="91.1311345%" y1="93.8675885%" x2="20.130637%" y2="39.80221%" id="linearGradient-1">
            <stop stop-color="#FCC374" offset="0%"></stop>
            <stop stop-color="#FF6058" offset="100%"></stop>
        </linearGradient>
    </defs>
    <g id="Icons/switch_light_active" stroke="none" stroke-width="1" fill="none" fill-rule="evenodd">
        <rect id="Rectangle-2" x="0" y="0" width="70" height="70"></rect>
        <path d="M29.3176172,26.6698058 C24.5916836,26.6698058 20.7468945,30.4066948 20.7468945,35 C20.7468945,39.5933052 24.5916836,43.3301942 29.3176172,43.3301942 L40.6823828,43.3301942 C45.4083164,43.3301942 49.2531719,39.5933052 49.2531719,35 C49.2531719,30.4066948 45.4083164,26.6698058 40.6823828,26.6698058 L29.3176172,26.6698058 Z M40.6823828,46 L29.3176172,46 C23.0770234,46 18,41.0653934 18,35 C18,28.934542 23.0770234,24 29.3176172,24 L40.6823828,24 C46.9229766,24 52,28.934542 52,35 C52,41.0653934 46.9229766,46 40.6823828,46 Z M29.3176172,32.1927184 C27.7249961,32.1927184 26.4292773,33.4520742 26.4292773,35 C26.4292773,36.5479904 27.7249961,37.8072816 29.3176172,37.8072816 C30.9102383,37.8072816 32.205957,36.5479258 32.205957,35 C32.205957,33.4520742 30.9102383,32.1927184 29.3176172,32.1927184 Z M29.3176172,40.4770228 C26.2103359,40.4770228 23.6823828,38.0200141 23.6823828,35 C23.6823828,31.9799214 26.2103359,29.5229126 29.3176172,29.5229126 C32.424832,29.5229126 34.9527852,31.9799214 34.9527852,35 C34.9527852,38.0200141 32.424832,40.4770228 29.3176172,40.4770228 Z" id="Fill-1" fill="url(#linearGradient-1)" transform="translate(35.000000, 35.000000) scale(-1, 1) translate(-35.000000, -35.000000) "></path>
        <text id="Button-Name-Copy" font-family="Montserrat-Medium, Montserrat" font-size="8" font-weight="400" fill="#260E0D">
            <tspan x="21.1" y="65">Switch</tspan>
        </text>
    </g>
</svg>