<?xml version="1.0" encoding="UTF-8"?>
<svg width="19px" height="18px" viewBox="0 0 19 18" version="1.1" xmlns="http://www.w3.org/2000/svg" xmlns:xlink="http://www.w3.org/1999/xlink">
    <!-- Generator: Sketch 51.1 (57501) - http://www.bohemiancoding.com/sketch -->
    <title>Icons/twitter_logo_active</title>
    <desc>Created with Sketch.</desc>
    <defs>
        <linearGradient x1="91.1311345%" y1="93.8675885%" x2="20.130637%" y2="39.80221%" id="linearGradient-1">
            <stop stop-color="#FCC374" offset="0%"></stop>
            <stop stop-color="#FF6058" offset="100%"></stop>
        </linearGradient>
    </defs>
    <g id="Icons/twitter_logo_active" stroke="none" stroke-width="1" fill="none" fill-rule="evenodd">
        <path d="M17.7397692,4.776 C17.1264615,5.05333333 16.4621538,5.24533333 15.7677692,5.32933333 C16.4778462,4.896 17.0192308,4.20933333 17.2794615,3.39066667 C16.6151538,3.792 15.8802308,4.084 15.093,4.24 C14.4705385,3.56266667 13.5760769,3.136 12.5900769,3.136 C10.6952308,3.136 9.15738462,4.704 9.15738462,6.636 C9.15738462,6.912 9.18876923,7.17733333 9.245,7.43333333 C6.389,7.28666667 3.86123077,5.896 2.16515385,3.776 C1.86830769,4.292 1.69961538,4.896 1.69961538,5.53733333 C1.69961538,6.75066667 2.30769231,7.824 3.227,8.448 C2.66469231,8.43333333 2.139,8.272 1.67476923,8.01066667 L1.67476923,8.05333333 C1.67476923,9.75066667 2.85953846,11.1666667 4.42746154,11.4906667 C4.14107692,11.568 3.83507692,11.6093333 3.52384615,11.6093333 C3.30415385,11.6093333 3.08969231,11.5893333 2.87523077,11.548 C3.31461538,12.9386667 4.58046154,13.948 6.083,13.98 C4.90738462,14.9173333 3.42576923,15.4746667 1.81730769,15.4746667 C1.54138462,15.4746667 1.27069231,15.4586667 1,15.428 C2.52215385,16.4226667 4.32546154,17 6.26607692,17 C12.5796154,17 16.0332308,11.6666667 16.0332308,7.04266667 L16.0227692,6.58933333 C16.6975385,6.09466667 17.2794615,5.48 17.7397692,4.776 Z" id="twitter-logo-silhouette" fill="url(#linearGradient-1)"></path>
    </g>
</svg>