<?xml version="1.0" encoding="UTF-8"?>
<svg width="70px" height="70px" viewBox="0 0 70 70" version="1.1" xmlns="http://www.w3.org/2000/svg" xmlns:xlink="http://www.w3.org/1999/xlink">
    <!-- Generator: Sketch 51.1 (57501) - http://www.bohemiancoding.com/sketch -->
    <title>Icons/user_dark</title>
    <desc>Created with Sketch.</desc>
    <defs></defs>
    <g id="Icons/user_dark" stroke="none" stroke-width="1" fill="none" fill-rule="evenodd">
        <rect id="Rectangle-2" x="0" y="0" width="70" height="70"></rect>
        <g id="user" transform="translate(20.000000, 20.000000)" fill="#FFFFFF">
            <path d="M28.7781605,30 C28.1075342,30 27.563953,29.4574805 27.563953,28.7881641 L27.563953,27.2598633 C27.563953,23.7744727 21.8086497,20.8299609 14.996184,20.8299609 C8.1837182,20.8299609 2.42841487,23.7744727 2.42841487,27.2598633 L2.42841487,28.7881641 C2.42841487,29.4574805 1.88477495,30 1.21420744,30 C0.543639922,30 0,29.4574805 0,28.7881641 L0,27.2598633 C0,22.2952148 6.58708415,18.4062891 14.996184,18.4062891 C23.4052838,18.4062891 29.9923679,22.2952148 29.9923679,27.2598633 L29.9923679,28.7881641 C29.9923679,29.4574219 29.4487867,30 28.7781605,30" id="Fill-1"></path>
            <path d="M15.0624658,2.42373047 C14.8217613,2.42373047 14.5811742,2.44142578 14.3420548,2.47675781 C11.6634247,2.87320313 9.80729941,5.37076172 10.2045205,8.04427734 C10.396908,9.33931641 11.083092,10.4821289 12.1367319,11.2620703 C13.1903718,12.0420703 14.4854795,12.3658594 15.782818,12.1737305 C18.4615068,11.7773438 20.3176321,9.27978516 19.920411,6.60626953 C19.6008611,4.45523438 17.9381213,2.79574219 15.782818,2.47669922 C15.5438748,2.44136719 15.3031703,2.42373047 15.0624658,2.42373047 Z M15.0469667,14.6519531 C13.4841487,14.6520117 11.9683562,14.1550195 10.6900391,13.2087305 C9.11542074,12.0430664 8.08990215,10.3351758 7.80228963,8.39976562 C7.20868885,4.40431641 9.98260274,0.671777344 13.9858708,0.0792773437 C14.7002348,-0.0264257813 15.4247554,-0.0264257813 16.1389432,0.0792773437 C17.7081605,0.311542969 19.1305479,1.02597656 20.2522309,2.14552734 C21.3739726,3.26507812 22.0899217,4.68462891 22.3225832,6.25072266 C22.916184,10.2461719 20.1422701,13.9787109 16.139002,14.5712109 C15.7741292,14.6252344 15.4092564,14.6519531 15.0469667,14.6519531 Z" id="Fill-3"></path>
        </g>
    </g>
</svg>