<?xml version="1.0" encoding="UTF-8"?>
<svg width="70px" height="70px" viewBox="0 0 70 70" version="1.1" xmlns="http://www.w3.org/2000/svg" xmlns:xlink="http://www.w3.org/1999/xlink">
    <!-- Generator: Sketch 51.1 (57501) - http://www.bohemiancoding.com/sketch -->
    <title>Icons/watchlist2_dark</title>
    <desc>Created with Sketch.</desc>
    <defs></defs>
    <g id="Icons/watchlist2_dark" stroke="none" stroke-width="1" fill="none" fill-rule="evenodd">
        <rect id="Rectangle-2" x="0" y="0" width="70" height="70"></rect>
        <text id="Button-Name-Copy" font-family="Montserrat-Medium, Montserrat" font-size="8" font-weight="400" fill="#FFFFFF">
            <tspan x="15.772" y="65">Watchlist</tspan>
        </text>
        <path d="M21.1937632,24.4236719 C20.5344864,24.4236719 20,23.8811523 20,23.2118359 C20,22.5425781 20.5344864,22 21.1937632,22 L48.8062368,22 C49.4655714,22 50,22.5425781 50,23.2118359 C50,23.8811523 49.4655714,24.4236719 48.8062368,24.4236719 L21.1937632,24.4236719 Z M21.1937632,46.4236719 C20.5344864,46.4236719 20,45.8811523 20,45.2118359 C20,44.5425781 20.5344864,44 21.1937632,44 L37.8062368,44 C38.4655714,44 39,44.5425781 39,45.2118359 C39,45.8811523 38.4655714,46.4236719 37.8062368,46.4236719 L21.1937632,46.4236719 Z M21.1937632,35.4236719 C20.5344864,35.4236719 20,34.8811523 20,34.2118359 C20,33.5425781 20.5344864,33 21.1937632,33 L41.8062368,33 C42.4655714,33 43,33.5425781 43,34.2118359 C43,34.8811523 42.4655714,35.4236719 41.8062368,35.4236719 L21.1937632,35.4236719 Z" id="Combined-Shape" fill="#FFFFFF"></path>
        <g id="visualization" transform="translate(41.000000, 38.000000)">
            <path d="M1.36710382,7.2997655 L1.19169654,7.00548153 L1.36714517,6.71122376 C3.21104924,3.61867699 5.94537565,1.15743593 9.49999122,1.15740625 C11.6772278,1.15740625 13.7369489,2.14701336 15.6076358,4.07100044 C16.4468452,4.93421486 17.1246576,5.85857111 17.6328996,6.71139865 L17.808274,7.00567595 L17.6328335,7.2999114 C15.7888388,10.3925195 13.0545935,12.8536875 9.49999122,12.8536875 C7.32281304,12.8536875 5.26309208,11.8640663 3.39239472,9.94010548 C2.55329408,9.07705592 1.87565988,8.15297916 1.36710382,7.2997655 Z M4.6072476,8.9079481 C6.14459115,10.4420452 7.78631007,11.207375 9.49999072,11.207375 C12.2096473,11.207375 14.4167058,9.36389755 15.9383941,7.00636783 C15.5317468,6.38358456 15.0130998,5.72224769 14.3927636,5.10314224 C12.8554397,3.56903521 11.213726,2.80371875 9.49999477,2.80371875 C6.79033336,2.8037407 4.58321628,4.64726396 3.06159485,7.00473857 C3.46841945,7.627749 3.9869622,8.28893126 4.6072476,8.9079481 Z M9.49999072,12.5 C10.6701244,12.5 11.8193585,12.2115807 12.9197332,11.640206 C13.7899483,11.1882842 14.6308167,10.558994 15.4179039,9.76880143 C16.0027136,9.18167845 16.5130601,8.55344872 16.9455342,7.92519729 C17.2093362,7.54197435 17.390555,7.23947202 17.4859087,7.06007915 C17.5046792,7.02473444 17.5046792,6.98634719 17.4859945,6.95117593 C17.390537,6.77158778 17.2093343,6.4691078 16.9455332,6.08588331 C16.5130601,5.45762858 16.0027152,4.82940373 15.4178991,4.24228743 C14.6307785,3.45203146 13.7899467,2.82276272 12.9197474,2.37089511 C11.8193975,1.79950394 10.6701704,1.51109375 9.49999072,1.51109375 C8.32981106,1.51109375 7.18058398,1.79950394 6.08023635,2.37089392 C5.21006941,2.82276109 4.36923274,3.45203348 3.58206932,4.24230055 C2.99724994,4.82940598 2.48690416,5.45762831 2.05443732,6.0858811 C1.79064107,6.46910292 1.60947645,6.77152763 1.51403933,6.95107743 C1.49530229,6.98634719 1.49530229,7.02473444 1.51398699,7.05991782 C1.6094584,7.23953216 1.7906392,7.54197924 2.05443634,7.9251995 C2.48690412,8.55344899 2.99725156,9.18167619 3.58206813,9.76879202 C4.36929838,10.5590943 5.21010942,11.1883534 6.0802289,11.640196 C7.18061418,12.2115893 8.32984335,12.5 9.49999072,12.5 Z M9.49999072,13.5 C8.16717346,13.5 6.86024023,13.1720119 5.61938114,12.5276752 C4.65489604,12.0268297 3.73142841,11.3357107 2.87358057,10.4745153 C1.78853379,9.38520259 1.03770758,8.2944712 0.630890046,7.52910835 C0.456352053,7.20045306 0.456352053,6.81052781 0.630975762,6.48182407 C1.03774424,5.71655357 1.78853529,4.62586516 2.8735786,3.53658042 C3.73135489,2.67542207 4.6548549,1.98428539 5.61938343,1.48341739 C6.86020403,0.839082415 8.16713934,0.51109375 9.49999072,0.51109375 C10.8328421,0.51109375 12.1397774,0.839082415 13.3805937,1.48341517 C14.3451583,1.98428375 15.2686632,2.67542408 16.1264011,3.5365787 C17.2114228,4.62586781 17.9622935,5.71665941 18.369058,6.48192257 C18.5436294,6.81052781 18.5436294,7.20045306 18.3690057,7.52926968 C17.9623301,8.29436537 17.2114243,9.38519994 16.1264033,10.4745129 C15.2686977,11.3356024 14.3451715,12.0267522 13.3805887,12.5276812 C12.1397293,13.1720032 10.8327949,13.5 9.49999072,13.5 Z" id="Fill-1" fill="#FFFFFF" fill-rule="nonzero"></path>
            <path d="M9.5,4.50001562 C10.9850713,4.50001562 12.2325039,5.59528758 12.2325039,7.00556793 C12.2325039,8.41581546 10.9850621,9.51107812 9.5,9.51107812 C8.01495631,9.51107812 6.76749609,8.41583405 6.76749609,7.00556793 C6.76749609,5.59529935 8.01496187,4.50001562 9.5,4.50001562 Z M9.5,6.1463125 C8.86893836,6.1463125 8.38592773,6.55306474 8.38592773,7.0055625 C8.38592773,7.45805019 8.86892853,7.86478125 9.5,7.86478125 C10.1310802,7.86478125 10.6140723,7.45804463 10.6140723,7.0055625 C10.6140723,6.5530519 10.1310846,6.1463125 9.5,6.1463125 Z M9.5,9.1574375 C10.97748,9.1574375 12.1491016,8.17081682 12.1491016,7.00559375 C12.1491016,5.84034321 10.977485,4.85371875 9.5,4.85371875 C8.02254706,4.85371875 6.85093555,5.840347 6.85093555,7.00559375 C6.85093555,8.17081304 8.0225521,9.1574375 9.5,9.1574375 Z M9.5,10.1574375 C7.50467837,10.1574375 5.85093555,8.76481196 5.85093555,7.00559375 C5.85093555,5.24635018 7.50467192,3.85371875 9.5,3.85371875 C11.4953587,3.85371875 13.1491016,5.24634429 13.1491016,7.00559375 C13.1491016,8.76481786 11.4953523,10.1574375 9.5,10.1574375 Z" id="Fill-4" fill="#FFFFFF" fill-rule="nonzero"></path>
            <g id="Group-3" transform="translate(0.000000, 1.000000)">
                <polygon id="Clip-2" points="0.0022265625 0.01109375 19 0.01109375 19 11.998125 0.0022265625 11.998125"></polygon>
            </g>
        </g>
    </g>
</svg>