<?xml version="1.0" encoding="UTF-8"?>
<svg width="365px" height="65px" viewBox="0 0 365 65" version="1.1" xmlns="http://www.w3.org/2000/svg" xmlns:xlink="http://www.w3.org/1999/xlink">
    <!-- Generator: sketchtool 50 (54983) - http://www.bohemiancoding.com/sketch -->
    <title>E0C1C084-F476-4872-92C5-3597EF1A082C</title>
    <desc>Created with sketchtool.</desc>
    <defs>
        <polygon id="path-1" points="0 0.386264764 35.1270262 0.386264764 35.1270262 38.616186 0 38.616186"></polygon>
        <polygon id="path-3" points="0.139748783 0.175688976 36.5963877 0.175688976 36.5963877 48.8060965 0.139748783 48.8060965"></polygon>
        <polygon id="path-5" points="0.279447584 0.175688976 36.1063173 0.175688976 36.1063173 48.8059961 0.279447584 48.8059961"></polygon>
        <path d="M78.3947689,65.3730315 L0.330378918,65.3730315 L0.330378918,56.3777559 L78.3947689,56.3777559 L78.3947689,65.3730315 Z M39.8653896,2.30068898 L39.8653896,50.9313976 L30.7687235,50.9313976 L30.7687235,44.8871949 C29.4152195,46.9959646 27.6783561,48.6007579 25.555634,49.7010728 C23.4324122,50.8028937 20.9728136,51.3530512 18.1733396,51.3530512 C14.6276391,51.3530512 11.5137803,50.5448819 8.83176322,48.9285433 C6.14874653,47.3117028 4.0620113,45.0397933 2.56905846,42.1113091 C1.0756058,39.1838287 0.330378918,35.8216437 0.330378918,32.0267618 C0.330378918,28.279065 1.06460983,24.964065 2.53407128,22.0827657 C4.00353273,19.2014665 6.07877217,16.9646949 8.76178887,15.3714469 C11.4438059,13.7792028 14.5106819,12.9820768 17.9634165,12.9820768 C20.8083739,12.9820768 23.3049589,13.5442815 25.4506725,14.6686909 C27.5958863,15.7931004 29.3692364,17.409439 30.7687235,19.5177067 L30.7687235,2.30068898 L39.8653896,2.30068898 Z M11.5057832,23.9802067 C9.54650127,26.1130709 8.5428691,28.8643602 8.49738577,32.2375886 C8.5428691,35.6108169 9.54650127,38.3636122 11.5057832,40.4949705 C13.4650651,42.6273327 16.0071335,43.6925098 19.1329879,43.6925098 C22.2578427,43.6925098 24.8119066,42.6273327 26.7951798,40.4949705 C28.7774533,38.3636122 29.7690898,35.6108169 29.7690898,32.2375886 C29.7690898,28.8643602 28.7774533,26.1130709 26.7951798,23.9802067 C24.8119066,21.8488484 22.2578427,20.7826673 19.1329879,20.7826673 C16.0071335,20.7826673 13.4650651,21.8488484 11.5057832,23.9802067 Z" id="path-7"></path>
    </defs>
    <g id="Symbols" stroke="none" stroke-width="1" fill="none" fill-rule="evenodd">
        <g id="Branding/primary__mono_dark" transform="translate(0.000000, 1.000000)">
            <g id="Branding/primary_light" transform="translate(0.000000, -2.000000)">
                <g id="CMD-Logo">
                    <g id="Group-3" transform="translate(0.000000, 12.992618)">
                        <mask id="mask-2" fill="white">
                            <use xlink:href="#path-1"></use>
                        </mask>
                        <g id="Clip-2"></g>
                        <path d="M19.3827963,30.7448179 C16.3499079,30.7448179 13.8898095,29.7147785 12.0005019,27.6531939 C10.1111943,25.5916093 9.16654053,22.8739518 9.16654053,19.5012254 C9.16654053,16.2218652 10.1111943,13.5518947 12.0005019,11.4898081 C13.8898095,9.42822343 16.3499079,8.39718012 19.3827963,8.39718012 C23.3943261,8.39718012 26.6601292,9.77960138 29.179206,12.54344 L34.7071801,7.27277067 C33.0277955,5.07113681 30.8465949,3.37297736 28.1645779,2.17829232 C25.4815612,0.983607283 22.4376767,0.386264764 19.0329246,0.386264764 C15.3002926,0.386264764 12.0005019,1.18288878 9.13155335,2.77513287 C6.2626048,4.36838091 4.02342544,6.61770177 2.41401528,9.52209154 C0.804605118,12.4274852 -9.99633641e-05,15.7766191 -9.99633641e-05,19.570999 C-9.99633641e-05,23.3202018 0.792609514,26.6341978 2.3790281,29.515497 C3.96444706,32.3962943 6.19263044,34.6345719 9.06157899,36.2268159 C11.9305275,37.820064 15.2073266,38.616186 18.8929759,38.616186 C22.5316423,38.616186 25.7264714,37.9606152 28.4794625,36.6484695 C31.2314539,35.3368258 33.4476417,33.4624754 35.1270262,31.0264222 L29.4591034,26.3179577 C27.2199241,29.2695325 23.8611551,30.7448179 19.3827963,30.7448179" id="Fill-1" fill="#FFFFFF" mask="url(#mask-2)"></path>
                    </g>
                    <g id="Group-6" transform="translate(36.486628, 2.451280)">
                        <mask id="mask-4" fill="white">
                            <use xlink:href="#path-3"></use>
                        </mask>
                        <g id="Clip-5"></g>
                        <path d="M22.7414654,10.8572776 C16.3038248,10.9511457 11.8014748,13.4574744 9.23641492,18.3762638 L9.23641492,0.175387795 L0.139748783,0.175387795 L0.139748783,48.8060965 L9.23641492,48.8060965 L9.23641492,30.3231142 C9.23641492,27.1848071 10.1220903,24.6082028 11.8954404,22.5933012 C13.6677909,20.5794035 16.0699105,19.5478583 19.102799,19.5011752 C21.6678589,19.5011752 23.6971152,20.2626614 25.1905678,21.7851319 C26.6830209,23.3081043 27.4297472,25.3812343 27.4297472,28.0040197 L27.4297472,48.8060965 L36.5963877,48.8060965 L36.5963877,25.3340492 C36.5963877,20.8835965 35.3598409,17.3572677 32.8877469,14.7575728 C30.4146532,12.157376 27.0328926,10.8572776 22.7414654,10.8572776" id="Fill-4" fill="#FFFFFF" mask="url(#mask-4)"></path>
                    </g>
                    <path d="M83.6793321,29.5421181 C84.0991782,26.7305925 85.2067723,24.5174134 87.003114,22.9010748 C88.798456,21.2847362 91.0266394,20.476065 93.6856649,20.476065 C96.5306222,20.476065 98.8167843,21.2967835 100.543152,22.9362126 C102.268519,24.5761437 103.178186,26.7782795 103.272151,29.5421181 L83.6793321,29.5421181 Z M93.6156905,13.3787323 C89.9300413,13.3787323 86.6412466,14.1869016 83.7493065,15.8032402 C80.8563667,17.4195787 78.6061914,19.6804449 76.9967812,22.5848346 C75.3873711,25.4902283 74.582666,28.8162717 74.582666,32.5639685 C74.582666,36.3126693 75.3753755,39.6266654 76.961794,42.5079646 C78.547213,45.3887618 80.798388,47.6270394 83.7143193,49.2192835 C86.629251,50.8125315 90.0000156,51.6086535 93.8256136,51.6086535 C97.090417,51.6086535 100.064327,51.0464488 102.747344,49.9220394 C105.429361,48.797128 107.703527,47.2053858 109.569843,45.1432992 L104.671639,40.0126791 C103.365117,41.3725118 101.837677,42.4145984 100.088318,43.1404449 C98.3389595,43.8672953 96.5076306,44.2297165 94.5953315,44.2297165 C91.8423404,44.2297165 89.5221907,43.4687323 87.6328832,41.9457598 C85.7435756,40.4237913 84.4950332,38.3265669 83.8892552,35.6560945 L111.529125,35.6560945 C111.575109,35.0477087 111.5991,34.133624 111.5991,32.9153465 C111.5991,26.7305925 110.094651,21.9292638 107.085754,18.5088504 C104.076857,15.0894409 99.5865022,13.3787323 93.6156905,13.3787323 Z" id="Fill-7" fill="#FFFFFF"></path>
                    <path d="M132.481247,43.737436 C129.448358,43.737436 126.98826,42.7073967 125.098952,40.645812 C123.209645,38.5842274 122.264991,35.8665699 122.264991,32.4938435 C122.264991,29.2144833 123.209645,26.5445128 125.098952,24.4824262 C126.98826,22.4208415 129.448358,21.3897982 132.481247,21.3897982 C136.492776,21.3897982 139.758579,22.7722195 142.277656,25.5360581 L147.80563,20.2653888 C146.126246,18.0637549 143.945045,16.3655955 141.263028,15.1709104 C138.580011,13.9762254 135.536127,13.3788829 132.131375,13.3788829 C128.398743,13.3788829 125.098952,14.1755069 122.230004,15.767751 C119.361055,17.360999 117.121876,19.6103199 115.512465,22.5147096 C113.903055,25.4201033 113.09835,28.7692372 113.09835,32.5636171 C113.09835,36.3128199 113.89106,39.6268159 115.477478,42.5081152 C117.062897,45.3889124 119.291081,47.62719 122.160029,49.2194341 C125.028978,50.8126821 128.305777,51.6088041 131.991426,51.6088041 C135.630093,51.6088041 138.824922,50.9532333 141.577913,49.6410876 C144.329904,48.3294439 146.546092,46.4550935 148.225476,44.0190404 L142.557554,39.3105758 C140.318374,42.2621506 136.959605,43.737436 132.481247,43.737436" id="Fill-9" fill="#FFFFFF"></path>
                    <g id="Group-13" transform="translate(149.445229, 2.451280)">
                        <mask id="mask-6" fill="white">
                            <use xlink:href="#path-5"></use>
                        </mask>
                        <g id="Clip-12"></g>
                        <polygon id="Fill-11" fill="#FFFFFF" mask="url(#mask-6)" points="35.266625 11.2788307 24.7704718 11.2788307 9.37661354 26.8800118 9.37661354 0.175287402 0.279447584 0.175287402 0.279447584 48.8059961 9.37661354 48.8059961 9.37661354 38.4052087 15.1145106 32.3615079 25.2602923 48.8059961 36.1063173 48.8059961 21.4122026 25.7556024"></polygon>
                    </g>
                    <path d="M236.10367,13.3085571 C229.1992,13.4024252 224.557401,16.4001811 222.178773,22.3038327 C221.291598,19.446628 219.740667,17.2324449 217.524979,15.6622874 C215.309291,14.0931339 212.567795,13.3085571 209.303492,13.3085571 C203.0053,13.4024252 198.619907,15.8384783 196.147813,20.6172185 L196.147813,13.6594331 L187.050647,13.6594331 L187.050647,51.257376 L196.147813,51.257376 L196.147813,32.7046201 C196.147813,29.6119921 196.998501,27.0594823 198.701877,25.0445807 C200.403753,23.0306831 202.725902,21.9765492 205.664825,21.8821791 C208.183902,21.8821791 210.165676,22.6441673 211.612645,24.1661358 C213.058116,25.6891083 213.78185,27.7853287 213.78185,30.4552992 L213.78185,51.257376 L222.948491,51.257376 L222.948491,32.7046201 C222.948491,29.6119921 223.799179,27.0594823 225.502055,25.0445807 C227.204431,23.0306831 229.501589,21.9765492 232.394529,21.8821791 C234.913606,21.8821791 236.907875,22.6441673 238.377836,24.1661358 C239.846798,25.6891083 240.582028,27.7853287 240.582028,30.4552992 L240.582028,51.257376 L249.748669,51.257376 L249.748669,27.7853287 C249.748669,23.334876 248.534614,19.8085472 246.110002,17.2088524 C243.683392,14.6086555 240.347614,13.3085571 236.10367,13.3085571" id="Fill-14" fill="#FFFFFF"></path>
                    <path d="M279.557994,13.6595335 L269.831559,40.9967382 L259.195457,13.6595335 L249.748419,13.6595335 L265.213251,50.6249961 L264.093662,53.0841398 C262.927089,55.614061 261.107756,56.8795236 258.635662,56.8795236 C257.79597,56.8795236 257.00226,56.7264232 256.256534,56.4222303 C255.509807,56.1170335 254.693107,55.6371516 253.806932,54.9815807 L249.888867,61.9393661 C251.333838,63.1099567 252.792803,63.965311 254.262265,64.5039232 C255.731726,65.0420335 257.376123,65.3120925 259.195457,65.3120925 C262.179863,65.3120925 264.758418,64.5270138 266.927123,62.9578602 C269.096828,61.3877028 270.764217,59.057565 271.930789,55.965439 L288.724634,13.6595335 L279.557994,13.6595335 Z" id="Fill-16" fill="#FFFFFF"></path>
                    <g id="Group-20" transform="translate(286.395038, 0.326280)">
                        <mask id="mask-8" fill="white">
                            <use xlink:href="#path-7"></use>
                        </mask>
                        <use id="Clip-19" fill="#FFFFFF" xlink:href="#path-7"></use>
                        <path d="M11.5057832,23.9802067 C13.4650651,21.8488484 16.0071335,20.7826673 19.1329879,20.7826673 C22.2578427,20.7826673 24.8119066,21.8488484 26.7951798,23.9802067 C28.7774533,26.1130709 29.7690898,28.8643602 29.7690898,32.2375886 C29.7690898,35.6108169 28.7774533,38.3636122 26.7951798,40.4949705 C24.8119066,42.6273327 22.2578427,43.6925098 19.1329879,43.6925098 C16.0071335,43.6925098 13.4650651,42.6273327 11.5057832,40.4949705 C9.54650127,38.3636122 8.5428691,35.6108169 8.49738577,32.2375886 C8.5428691,28.8643602 9.54650127,26.1130709 11.5057832,23.9802067 Z M8.83176322,48.9285433 C11.5137803,50.5448819 14.6276391,51.3530512 18.1733396,51.3530512 C20.9728136,51.3530512 23.4324122,50.8028937 25.555634,49.7010728 C27.6783561,48.6007579 29.4152195,46.9959646 30.7687235,44.8871949 L30.7687235,50.9313976 L39.8653896,50.9313976 L39.8653896,2.30018701 L30.7687235,2.30018701 L30.7687235,19.5177067 C29.3692364,17.409439 27.5958863,15.7931004 25.4506725,14.6686909 C23.3049589,13.5442815 20.8083739,12.9820768 17.9634165,12.9820768 C14.5106819,12.9820768 11.4438059,13.7792028 8.76178887,15.3714469 C6.07877217,16.9646949 4.00353273,19.2014665 2.53407128,22.0827657 C1.06460983,24.964065 0.330378918,28.279065 0.330378918,32.0267618 C0.330378918,35.8216437 1.0756058,39.1838287 2.56905846,42.1113091 C4.0620113,45.0397933 6.14874653,47.3117028 8.83176322,48.9285433 Z M0.330378918,65.3730315 L78.3952687,65.3730315 L78.3952687,56.3777559 L0.330378918,56.3777559 L0.330378918,65.3730315 Z" id="Fill-18" mask="url(#mask-8)"></path>
                        <path d="M62.4761214,26.51091 C67.3947507,22.871013 69.614962,18.2271013 69.614962,15.2217501 C69.614962,12.264943 67.4801613,9.79797892 64.4911729,9.79797892 C62.9098527,9.79797892 61.5236079,10.4929814 60.4823277,11.8078904 C60.3434656,11.9832604 60.2196778,12.1587036 60.1099619,12.3286208 C60.000246,12.158667 59.8764582,11.9832604 59.7375961,11.8078904 C58.6963159,10.4929814 57.310071,9.79797892 55.7287509,9.79797892 C52.7415076,9.79797892 50.6049618,12.2633694 50.6049618,15.2217135 C50.6049618,18.2270748 52.8251879,22.8710076 57.7438518,26.51091 C52.8251879,30.1508124 50.6049618,34.7947452 50.6049618,37.8001065 C50.6049618,40.7584506 52.7415076,43.223841 55.7287509,43.223841 C57.310071,43.223841 58.6963159,42.5288386 59.7375961,41.2139295 C59.8764582,41.0385595 60.000246,40.8631529 60.1099619,40.6931992 C60.2196778,40.8631163 60.3434656,41.0385595 60.4823277,41.2139295 C61.5236079,42.5288386 62.9098527,43.223841 64.4911729,43.223841 C67.4801613,43.223841 69.614962,40.7568769 69.614962,37.8000699 C69.614962,34.7947186 67.3947507,30.1508069 62.4761214,26.51091 Z M42.197985,36.7408101 C42.197985,31.3816503 44.5201122,27.224348 49.1658658,24.265891 C45.7159053,21.4003094 43.9919245,18.1085051 43.9919245,14.387968 C43.9919245,10.667933 45.5335131,7.58196063 48.6131925,5.13356511 C51.6958701,2.68567161 55.5585866,1.45871269 60.2053395,1.45871269 C64.8515928,1.45871269 68.7148089,2.68567161 71.7969868,5.13356511 C74.8776656,7.58196063 76.4212531,10.667933 76.4212531,14.387968 C76.4212531,18.1085051 74.6947737,21.4003094 71.2443136,24.265891 C75.8905668,27.224348 78.2151925,31.3816503 78.2151925,36.7408101 C78.2151925,40.9011246 76.5591715,44.3902262 73.2461301,47.2081151 C69.9330887,50.0285142 65.5871579,51.4387137 60.2053395,51.4387137 C54.8235211,51.4387137 50.4770906,50.0285142 47.1645489,47.2081151 C43.8545057,44.3902262 42.197985,40.9011246 42.197985,36.7408101 Z" id="Combined-Shape" fill="#FFFFFF"></path>
                    </g>
                </g>
            </g>
        </g>
    </g>
</svg>